<?xml version="1.0" encoding="UTF-8" standalone="no"?><svg xmlns="http://www.w3.org/2000/svg" xmlns:xlink="http://www.w3.org/1999/xlink" clip-rule="evenodd" stroke-miterlimit="4.00" viewBox="0 0 1024 768"><desc>SVG generated by Keynote</desc><defs></defs><g transform="matrix(1.00, 0.00, -0.00, -1.00, 0.0, 768.0)"><path d="M 0.0 768.0 L 1024.0 768.0 L 1024.0 0.0 L 0.0 0.0 Z M 0.0 768.0 " fill="#000000"></path><text xml:space="preserve" font-family="Helvetica-Light" font-size="80.0" fill="#FEFFFF" transform="matrix(1.00, 0.00, -0.00, -1.00, 113.0, 633.0)">A</text><text xml:space="preserve" font-family="Helvetica-Light" font-size="80.0" fill="#FEFFFF" transform="matrix(1.00, 0.00, -0.00, -1.00, 166.4, 633.0)"> </text><text xml:space="preserve" font-family="Helvetica-Light" font-size="80.0" fill="#FEFFFF" transform="matrix(1.00, 0.00, -0.00, -1.00, 188.6, 633.0)">T</text><text xml:space="preserve" font-family="Helvetica-Light" font-size="80.0" fill="#FEFFFF" transform="matrix(1.00, 0.00, -0.00, -1.00, 224.2, 633.0)">a</text><text xml:space="preserve" font-family="Helvetica-Light" font-size="80.0" fill="#FEFFFF" transform="matrix(1.00, 0.00, -0.00, -1.00, 268.7, 633.0)">l</text><text xml:space="preserve" font-family="Helvetica-Light" font-size="80.0" fill="#FEFFFF" transform="matrix(1.00, 0.00, -0.00, -1.00, 286.4, 633.0)">e</text><text xml:space="preserve" font-family="Helvetica-Light" font-size="80.0" fill="#FEFFFF" transform="matrix(1.00, 0.00, -0.00, -1.00, 330.9, 633.0)"> </text><text xml:space="preserve" font-family="Helvetica-Light" font-size="80.0" fill="#FEFFFF" transform="matrix(1.00, 0.00, -0.00, -1.00, 353.2, 633.0)">o</text><text xml:space="preserve" font-family="Helvetica-Light" font-size="80.0" fill="#FEFFFF" transform="matrix(1.00, 0.00, -0.00, -1.00, 397.6, 633.0)">f</text><text xml:space="preserve" font-family="Helvetica-Light" font-size="80.0" fill="#FEFFFF" transform="matrix(1.00, 0.00, -0.00, -1.00, 419.9, 633.0)"> </text><text xml:space="preserve" font-family="Helvetica-Light" font-size="80.0" fill="#FEFFFF" transform="matrix(1.00, 0.00, -0.00, -1.00, 442.1, 633.0)">T</text><text xml:space="preserve" font-family="Helvetica-Light" font-size="80.0" fill="#FEFFFF" transform="matrix(1.00, 0.00, -0.00, -1.00, 479.9, 633.0)">w</text><text xml:space="preserve" font-family="Helvetica-Light" font-size="80.0" fill="#FEFFFF" transform="matrix(1.00, 0.00, -0.00, -1.00, 537.6, 633.0)">o</text><text xml:space="preserve" font-family="Helvetica-Light" font-size="80.0" fill="#FEFFFF" transform="matrix(1.00, 0.00, -0.00, -1.00, 582.1, 633.0)"> </text><text xml:space="preserve" font-family="Helvetica-Light" font-size="80.0" fill="#FEFFFF" transform="matrix(1.00, 0.00, -0.00, -1.00, 604.4, 633.0)">M</text><text xml:space="preserve" font-family="Helvetica-Light" font-size="80.0" fill="#FEFFFF" transform="matrix(1.00, 0.00, -0.00, -1.00, 671.0, 633.0)">a</text><text xml:space="preserve" font-family="Helvetica-Light" font-size="80.0" fill="#FEFFFF" transform="matrix(1.00, 0.00, -0.00, -1.00, 715.5, 633.0)">t</text><text xml:space="preserve" font-family="Helvetica-Light" font-size="80.0" fill="#FEFFFF" transform="matrix(1.00, 0.00, -0.00, -1.00, 737.7, 633.0)">r</text><text xml:space="preserve" font-family="Helvetica-Light" font-size="80.0" fill="#FEFFFF" transform="matrix(1.00, 0.00, -0.00, -1.00, 764.4, 633.0)">i</text><text xml:space="preserve" font-family="Helvetica-Light" font-size="80.0" fill="#FEFFFF" transform="matrix(1.00, 0.00, -0.00, -1.00, 782.1, 633.0)">c</text><text xml:space="preserve" font-family="Helvetica-Light" font-size="80.0" fill="#FEFFFF" transform="matrix(1.00, 0.00, -0.00, -1.00, 826.6, 633.0)">e</text><text xml:space="preserve" font-family="Helvetica-Light" font-size="80.0" fill="#FEFFFF" transform="matrix(1.00, 0.00, -0.00, -1.00, 871.1, 633.0)">s</text><text xml:space="preserve" font-family="Helvetica-Bold" font-weight="bold" font-size="24.2" fill="#FEFFFF" transform="matrix(1.00, 0.00, -0.00, -1.00, 79.0, 528.6)">•</text><text xml:space="preserve" font-family="Helvetica-Bold" font-weight="bold" font-size="32.3" fill="#FEFFFF" transform="matrix(1.00, 0.00, -0.00, -1.00, 109.0, 526.0)">D</text><text xml:space="preserve" font-family="Helvetica-Bold" font-weight="bold" font-size="32.3" fill="#FEFFFF" transform="matrix(1.00, 0.00, -0.00, -1.00, 132.3, 526.0)">o</text><text xml:space="preserve" font-family="Helvetica-Bold" font-weight="bold" font-size="32.3" fill="#FEFFFF" transform="matrix(1.00, 0.00, -0.00, -1.00, 152.1, 526.0)">c</text><text xml:space="preserve" font-family="Helvetica-Bold" font-weight="bold" font-size="32.3" fill="#FEFFFF" transform="matrix(1.00, 0.00, -0.00, -1.00, 170.0, 526.0)">u</text><text xml:space="preserve" font-family="Helvetica-Bold" font-weight="bold" font-size="32.3" fill="#FEFFFF" transform="matrix(1.00, 0.00, -0.00, -1.00, 189.8, 526.0)">m</text><text xml:space="preserve" font-family="Helvetica-Bold" font-weight="bold" font-size="32.3" fill="#FEFFFF" transform="matrix(1.00, 0.00, -0.00, -1.00, 218.5, 526.0)">e</text><text xml:space="preserve" font-family="Helvetica-Bold" font-weight="bold" font-size="32.3" fill="#FEFFFF" transform="matrix(1.00, 0.00, -0.00, -1.00, 236.4, 526.0)">n</text><text xml:space="preserve" font-family="Helvetica-Bold" font-weight="bold" font-size="32.3" fill="#FEFFFF" transform="matrix(1.00, 0.00, -0.00, -1.00, 256.2, 526.0)">t</text><text xml:space="preserve" font-family="Helvetica-Bold" font-weight="bold" font-size="32.3" fill="#FEFFFF" transform="matrix(1.00, 0.00, -0.00, -1.00, 266.9, 526.0)"> </text><text xml:space="preserve" font-family="Helvetica-Bold" font-weight="bold" font-size="32.3" fill="#FEFFFF" transform="matrix(1.00, 0.00, -0.00, -1.00, 275.9, 526.0)">T</text><text xml:space="preserve" font-family="Helvetica-Bold" font-weight="bold" font-size="32.3" fill="#FEFFFF" transform="matrix(1.00, 0.00, -0.00, -1.00, 293.2, 526.0)">e</text><text xml:space="preserve" font-family="Helvetica-Bold" font-weight="bold" font-size="32.3" fill="#FEFFFF" transform="matrix(1.00, 0.00, -0.00, -1.00, 311.2, 526.0)">r</text><text xml:space="preserve" font-family="Helvetica-Bold" font-weight="bold" font-size="32.3" fill="#FEFFFF" transform="matrix(1.00, 0.00, -0.00, -1.00, 323.8, 526.0)">m</text><text xml:space="preserve" font-family="Helvetica-Bold" font-weight="bold" font-size="32.3" fill="#FEFFFF" transform="matrix(1.00, 0.00, -0.00, -1.00, 352.5, 526.0)"> </text><text xml:space="preserve" font-family="Helvetica-Bold" font-weight="bold" font-size="32.3" fill="#FEFFFF" transform="matrix(1.00, 0.00, -0.00, -1.00, 361.5, 526.0)">M</text><text xml:space="preserve" font-family="Helvetica-Bold" font-weight="bold" font-size="32.3" fill="#FEFFFF" transform="matrix(1.00, 0.00, -0.00, -1.00, 388.4, 526.0)">a</text><text xml:space="preserve" font-family="Helvetica-Bold" font-weight="bold" font-size="32.3" fill="#FEFFFF" transform="matrix(1.00, 0.00, -0.00, -1.00, 406.4, 526.0)">t</text><text xml:space="preserve" font-family="Helvetica-Bold" font-weight="bold" font-size="32.3" fill="#FEFFFF" transform="matrix(1.00, 0.00, -0.00, -1.00, 417.1, 526.0)">r</text><text xml:space="preserve" font-family="Helvetica-Bold" font-weight="bold" font-size="32.3" fill="#FEFFFF" transform="matrix(1.00, 0.00, -0.00, -1.00, 429.7, 526.0)">i</text><text xml:space="preserve" font-family="Helvetica-Bold" font-weight="bold" font-size="32.3" fill="#FEFFFF" transform="matrix(1.00, 0.00, -0.00, -1.00, 438.7, 526.0)">x</text><text xml:space="preserve" font-family="Helvetica-Bold" font-weight="bold" font-size="32.3" fill="#FEFFFF" transform="matrix(1.00, 0.00, -0.00, -1.00, 456.6, 526.0)"> </text><text xml:space="preserve" font-family="Helvetica-Bold" font-weight="bold" font-size="32.3" fill="#FEFFFF" transform="matrix(1.00, 0.00, -0.00, -1.00, 465.6, 526.0)">(</text><text xml:space="preserve" font-family="Helvetica-Bold" font-weight="bold" font-size="32.3" fill="#FEFFFF" transform="matrix(1.00, 0.00, -0.00, -1.00, 476.3, 526.0)">D</text><text xml:space="preserve" font-family="Helvetica-Bold" font-weight="bold" font-size="32.3" fill="#FEFFFF" transform="matrix(1.00, 0.00, -0.00, -1.00, 499.7, 526.0)">T</text><text xml:space="preserve" font-family="Helvetica-Bold" font-weight="bold" font-size="32.3" fill="#FEFFFF" transform="matrix(1.00, 0.00, -0.00, -1.00, 519.4, 526.0)">M</text><text xml:space="preserve" font-family="Helvetica-Bold" font-weight="bold" font-size="32.3" fill="#FEFFFF" transform="matrix(1.00, 0.00, -0.00, -1.00, 546.3, 526.0)">)</text><text xml:space="preserve" font-family="Helvetica-Light" font-size="24.2" fill="#FEFFFF" transform="matrix(1.00, 0.00, -0.00, -1.00, 114.0, 454.9)">•</text><text xml:space="preserve" font-family="Helvetica-Light" font-size="32.3" fill="#FEFFFF" transform="matrix(1.00, 0.00, -0.00, -1.00, 144.0, 453.0)">R</text><text xml:space="preserve" font-family="Helvetica-Light" font-size="32.3" fill="#FEFFFF" transform="matrix(1.00, 0.00, -0.00, -1.00, 165.5, 453.0)">o</text><text xml:space="preserve" font-family="Helvetica-Light" font-size="32.3" fill="#FEFFFF" transform="matrix(1.00, 0.00, -0.00, -1.00, 183.5, 453.0)">w</text><text xml:space="preserve" font-family="Helvetica-Light" font-size="32.3" fill="#FEFFFF" transform="matrix(1.00, 0.00, -0.00, -1.00, 206.8, 453.0)">s</text><text xml:space="preserve" font-family="Helvetica-Light" font-size="32.3" fill="#FEFFFF" transform="matrix(1.00, 0.00, -0.00, -1.00, 223.0, 453.0)"> </text><text xml:space="preserve" font-family="Helvetica-Light" font-size="32.3" fill="#FEFFFF" transform="matrix(1.00, 0.00, -0.00, -1.00, 232.0, 453.0)">a</text><text xml:space="preserve" font-family="Helvetica-Light" font-size="32.3" fill="#FEFFFF" transform="matrix(1.00, 0.00, -0.00, -1.00, 249.9, 453.0)">r</text><text xml:space="preserve" font-family="Helvetica-Light" font-size="32.3" fill="#FEFFFF" transform="matrix(1.00, 0.00, -0.00, -1.00, 260.1, 453.0)">e</text><text xml:space="preserve" font-family="Helvetica-Light" font-size="32.3" fill="#FEFFFF" transform="matrix(1.00, 0.00, -0.00, -1.00, 278.0, 453.0)"> </text><text xml:space="preserve" font-family="Helvetica-Light" font-size="32.3" fill="#FEFFFF" transform="matrix(1.00, 0.00, -0.00, -1.00, 287.0, 453.0)">d</text><text xml:space="preserve" font-family="Helvetica-Light" font-size="32.3" fill="#FEFFFF" transform="matrix(1.00, 0.00, -0.00, -1.00, 306.8, 453.0)">o</text><text xml:space="preserve" font-family="Helvetica-Light" font-size="32.3" fill="#FEFFFF" transform="matrix(1.00, 0.00, -0.00, -1.00, 324.7, 453.0)">c</text><text xml:space="preserve" font-family="Helvetica-Light" font-size="32.3" fill="#FEFFFF" transform="matrix(1.00, 0.00, -0.00, -1.00, 342.7, 453.0)">u</text><text xml:space="preserve" font-family="Helvetica-Light" font-size="32.3" fill="#FEFFFF" transform="matrix(1.00, 0.00, -0.00, -1.00, 360.6, 453.0)">m</text><text xml:space="preserve" font-family="Helvetica-Light" font-size="32.3" fill="#FEFFFF" transform="matrix(1.00, 0.00, -0.00, -1.00, 387.5, 453.0)">e</text><text xml:space="preserve" font-family="Helvetica-Light" font-size="32.3" fill="#FEFFFF" transform="matrix(1.00, 0.00, -0.00, -1.00, 405.5, 453.0)">n</text><text xml:space="preserve" font-family="Helvetica-Light" font-size="32.3" fill="#FEFFFF" transform="matrix(1.00, 0.00, -0.00, -1.00, 423.5, 453.0)">t</text><text xml:space="preserve" font-family="Helvetica-Light" font-size="32.3" fill="#FEFFFF" transform="matrix(1.00, 0.00, -0.00, -1.00, 432.4, 453.0)">s</text><text xml:space="preserve" font-family="Helvetica-Light" font-size="32.3" fill="#FEFFFF" transform="matrix(1.00, 0.00, -0.00, -1.00, 448.6, 453.0)"> </text><text xml:space="preserve" font-family="Helvetica-Light" font-size="24.2" fill="#FEFFFF" transform="matrix(1.00, 0.00, -0.00, -1.00, 114.0, 381.2)">•</text><text xml:space="preserve" font-family="Helvetica-Light" font-size="32.3" fill="#FEFFFF" transform="matrix(1.00, 0.00, -0.00, -1.00, 144.0, 379.0)">C</text><text xml:space="preserve" font-family="Helvetica-Light" font-size="32.3" fill="#FEFFFF" transform="matrix(1.00, 0.00, -0.00, -1.00, 167.3, 379.0)">o</text><text xml:space="preserve" font-family="Helvetica-Light" font-size="32.3" fill="#FEFFFF" transform="matrix(1.00, 0.00, -0.00, -1.00, 185.3, 379.0)">l</text><text xml:space="preserve" font-family="Helvetica-Light" font-size="32.3" fill="#FEFFFF" transform="matrix(1.00, 0.00, -0.00, -1.00, 192.4, 379.0)">u</text><text xml:space="preserve" font-family="Helvetica-Light" font-size="32.3" fill="#FEFFFF" transform="matrix(1.00, 0.00, -0.00, -1.00, 210.4, 379.0)">m</text><text xml:space="preserve" font-family="Helvetica-Light" font-size="32.3" fill="#FEFFFF" transform="matrix(1.00, 0.00, -0.00, -1.00, 237.3, 379.0)">n</text><text xml:space="preserve" font-family="Helvetica-Light" font-size="32.3" fill="#FEFFFF" transform="matrix(1.00, 0.00, -0.00, -1.00, 255.3, 379.0)">s</text><text xml:space="preserve" font-family="Helvetica-Light" font-size="32.3" fill="#FEFFFF" transform="matrix(1.00, 0.00, -0.00, -1.00, 271.4, 379.0)"> </text><text xml:space="preserve" font-family="Helvetica-Light" font-size="32.3" fill="#FEFFFF" transform="matrix(1.00, 0.00, -0.00, -1.00, 280.4, 379.0)">a</text><text xml:space="preserve" font-family="Helvetica-Light" font-size="32.3" fill="#FEFFFF" transform="matrix(1.00, 0.00, -0.00, -1.00, 298.4, 379.0)">r</text><text xml:space="preserve" font-family="Helvetica-Light" font-size="32.3" fill="#FEFFFF" transform="matrix(1.00, 0.00, -0.00, -1.00, 308.5, 379.0)">e</text><text xml:space="preserve" font-family="Helvetica-Light" font-size="32.3" fill="#FEFFFF" transform="matrix(1.00, 0.00, -0.00, -1.00, 326.5, 379.0)"> </text><text xml:space="preserve" font-family="Helvetica-Light" font-size="32.3" fill="#FEFFFF" transform="matrix(1.00, 0.00, -0.00, -1.00, 335.5, 379.0)">l</text><text xml:space="preserve" font-family="Helvetica-Light" font-size="32.3" fill="#FEFFFF" transform="matrix(1.00, 0.00, -0.00, -1.00, 342.6, 379.0)">i</text><text xml:space="preserve" font-family="Helvetica-Light" font-size="32.3" fill="#FEFFFF" transform="matrix(1.00, 0.00, -0.00, -1.00, 349.8, 379.0)">n</text><text xml:space="preserve" font-family="Helvetica-Light" font-size="32.3" fill="#FEFFFF" transform="matrix(1.00, 0.00, -0.00, -1.00, 367.8, 379.0)">g</text><text xml:space="preserve" font-family="Helvetica-Light" font-size="32.3" fill="#FEFFFF" transform="matrix(1.00, 0.00, -0.00, -1.00, 387.5, 379.0)">u</text><text xml:space="preserve" font-family="Helvetica-Light" font-size="32.3" fill="#FEFFFF" transform="matrix(1.00, 0.00, -0.00, -1.00, 405.5, 379.0)">i</text><text xml:space="preserve" font-family="Helvetica-Light" font-size="32.3" fill="#FEFFFF" transform="matrix(1.00, 0.00, -0.00, -1.00, 412.6, 379.0)">s</text><text xml:space="preserve" font-family="Helvetica-Light" font-size="32.3" fill="#FEFFFF" transform="matrix(1.00, 0.00, -0.00, -1.00, 428.8, 379.0)">t</text><text xml:space="preserve" font-family="Helvetica-Light" font-size="32.3" fill="#FEFFFF" transform="matrix(1.00, 0.00, -0.00, -1.00, 437.8, 379.0)">i</text><text xml:space="preserve" font-family="Helvetica-Light" font-size="32.3" fill="#FEFFFF" transform="matrix(1.00, 0.00, -0.00, -1.00, 444.9, 379.0)">c</text><text xml:space="preserve" font-family="Helvetica-Light" font-size="32.3" fill="#FEFFFF" transform="matrix(1.00, 0.00, -0.00, -1.00, 462.9, 379.0)"> </text><text xml:space="preserve" font-family="Helvetica-Light" font-size="32.3" fill="#FEFFFF" transform="matrix(1.00, 0.00, -0.00, -1.00, 471.9, 379.0)">f</text><text xml:space="preserve" font-family="Helvetica-Light" font-size="32.3" fill="#FEFFFF" transform="matrix(1.00, 0.00, -0.00, -1.00, 480.9, 379.0)">e</text><text xml:space="preserve" font-family="Helvetica-Light" font-size="32.3" fill="#FEFFFF" transform="matrix(1.00, 0.00, -0.00, -1.00, 498.8, 379.0)">a</text><text xml:space="preserve" font-family="Helvetica-Light" font-size="32.3" fill="#FEFFFF" transform="matrix(1.00, 0.00, -0.00, -1.00, 516.8, 379.0)">t</text><text xml:space="preserve" font-family="Helvetica-Light" font-size="32.3" fill="#FEFFFF" transform="matrix(1.00, 0.00, -0.00, -1.00, 525.8, 379.0)">u</text><text xml:space="preserve" font-family="Helvetica-Light" font-size="32.3" fill="#FEFFFF" transform="matrix(1.00, 0.00, -0.00, -1.00, 543.7, 379.0)">r</text><text xml:space="preserve" font-family="Helvetica-Light" font-size="32.3" fill="#FEFFFF" transform="matrix(1.00, 0.00, -0.00, -1.00, 553.9, 379.0)">e</text><text xml:space="preserve" font-family="Helvetica-Light" font-size="32.3" fill="#FEFFFF" transform="matrix(1.00, 0.00, -0.00, -1.00, 571.8, 379.0)">s</text><text xml:space="preserve" font-family="Helvetica-Light" font-size="32.3" fill="#FEFFFF" transform="matrix(1.00, 0.00, -0.00, -1.00, 588.0, 379.0)"> </text><text xml:space="preserve" font-family="Helvetica-Light" font-size="24.2" fill="#FEFFFF" transform="matrix(1.00, 0.00, -0.00, -1.00, 114.0, 307.5)">•</text><text xml:space="preserve" font-family="Helvetica-Light" font-size="32.3" fill="#FEFFFF" transform="matrix(1.00, 0.00, -0.00, -1.00, 144.0, 305.0)">M</text><text xml:space="preserve" font-family="Helvetica-Light" font-size="32.3" fill="#FEFFFF" transform="matrix(1.00, 0.00, -0.00, -1.00, 170.9, 305.0)">u</text><text xml:space="preserve" font-family="Helvetica-Light" font-size="32.3" fill="#FEFFFF" transform="matrix(1.00, 0.00, -0.00, -1.00, 188.9, 305.0)">c</text><text xml:space="preserve" font-family="Helvetica-Light" font-size="32.3" fill="#FEFFFF" transform="matrix(1.00, 0.00, -0.00, -1.00, 206.8, 305.0)">h</text><text xml:space="preserve" font-family="Helvetica-Light" font-size="32.3" fill="#FEFFFF" transform="matrix(1.00, 0.00, -0.00, -1.00, 224.8, 305.0)"> </text><text xml:space="preserve" font-family="Helvetica-Light" font-size="32.3" fill="#FEFFFF" transform="matrix(1.00, 0.00, -0.00, -1.00, 233.8, 305.0)">w</text><text xml:space="preserve" font-family="Helvetica-Light" font-size="32.3" fill="#FEFFFF" transform="matrix(1.00, 0.00, -0.00, -1.00, 257.1, 305.0)">i</text><text xml:space="preserve" font-family="Helvetica-Light" font-size="32.3" fill="#FEFFFF" transform="matrix(1.00, 0.00, -0.00, -1.00, 264.3, 305.0)">d</text><text xml:space="preserve" font-family="Helvetica-Light" font-size="32.3" fill="#FEFFFF" transform="matrix(1.00, 0.00, -0.00, -1.00, 284.0, 305.0)">e</text><text xml:space="preserve" font-family="Helvetica-Light" font-size="32.3" fill="#FEFFFF" transform="matrix(1.00, 0.00, -0.00, -1.00, 301.9, 305.0)">r</text><text xml:space="preserve" font-family="Helvetica-Light" font-size="32.3" fill="#FEFFFF" transform="matrix(1.00, 0.00, -0.00, -1.00, 312.7, 305.0)"> </text><text xml:space="preserve" font-family="Helvetica-Light" font-size="32.3" fill="#FEFFFF" transform="matrix(1.00, 0.00, -0.00, -1.00, 321.7, 305.0)">t</text><text xml:space="preserve" font-family="Helvetica-Light" font-size="32.3" fill="#FEFFFF" transform="matrix(1.00, 0.00, -0.00, -1.00, 330.7, 305.0)">h</text><text xml:space="preserve" font-family="Helvetica-Light" font-size="32.3" fill="#FEFFFF" transform="matrix(1.00, 0.00, -0.00, -1.00, 348.6, 305.0)">a</text><text xml:space="preserve" font-family="Helvetica-Light" font-size="32.3" fill="#FEFFFF" transform="matrix(1.00, 0.00, -0.00, -1.00, 366.6, 305.0)">n</text><text xml:space="preserve" font-family="Helvetica-Light" font-size="32.3" fill="#FEFFFF" transform="matrix(1.00, 0.00, -0.00, -1.00, 384.5, 305.0)"> </text><text xml:space="preserve" font-family="Helvetica-Light" font-size="32.3" fill="#FEFFFF" transform="matrix(1.00, 0.00, -0.00, -1.00, 393.5, 305.0)">t</text><text xml:space="preserve" font-family="Helvetica-Light" font-size="32.3" fill="#FEFFFF" transform="matrix(1.00, 0.00, -0.00, -1.00, 402.5, 305.0)">a</text><text xml:space="preserve" font-family="Helvetica-Light" font-size="32.3" fill="#FEFFFF" transform="matrix(1.00, 0.00, -0.00, -1.00, 420.5, 305.0)">l</text><text xml:space="preserve" font-family="Helvetica-Light" font-size="32.3" fill="#FEFFFF" transform="matrix(1.00, 0.00, -0.00, -1.00, 427.6, 305.0)">l</text><text xml:space="preserve" font-family="Helvetica-Light" font-size="32.3" fill="#FEFFFF" transform="matrix(1.00, 0.00, -0.00, -1.00, 434.8, 305.0)"> </text><text xml:space="preserve" font-family="Helvetica-Bold" font-weight="bold" font-size="24.2" fill="#FEFFFF" transform="matrix(1.00, 0.00, -0.00, -1.00, 79.0, 233.8)">•</text><text xml:space="preserve" font-family="Helvetica-Bold" font-weight="bold" font-size="32.3" fill="#FEFFFF" transform="matrix(1.00, 0.00, -0.00, -1.00, 109.0, 232.0)">T</text><text xml:space="preserve" font-family="Helvetica-Bold" font-weight="bold" font-size="32.3" fill="#FEFFFF" transform="matrix(1.00, 0.00, -0.00, -1.00, 126.3, 232.0)">e</text><text xml:space="preserve" font-family="Helvetica-Bold" font-weight="bold" font-size="32.3" fill="#FEFFFF" transform="matrix(1.00, 0.00, -0.00, -1.00, 144.3, 232.0)">r</text><text xml:space="preserve" font-family="Helvetica-Bold" font-weight="bold" font-size="32.3" fill="#FEFFFF" transform="matrix(1.00, 0.00, -0.00, -1.00, 156.9, 232.0)">m</text><text xml:space="preserve" font-family="Helvetica-Bold" font-weight="bold" font-size="32.3" fill="#FEFFFF" transform="matrix(1.00, 0.00, -0.00, -1.00, 185.6, 232.0)"> </text><text xml:space="preserve" font-family="Helvetica-Bold" font-weight="bold" font-size="32.3" fill="#FEFFFF" transform="matrix(1.00, 0.00, -0.00, -1.00, 194.6, 232.0)">C</text><text xml:space="preserve" font-family="Helvetica-Bold" font-weight="bold" font-size="32.3" fill="#FEFFFF" transform="matrix(1.00, 0.00, -0.00, -1.00, 217.9, 232.0)">o</text><text xml:space="preserve" font-family="Helvetica-Bold" font-weight="bold" font-size="32.3" fill="#FEFFFF" transform="matrix(1.00, 0.00, -0.00, -1.00, 237.6, 232.0)">-</text><text xml:space="preserve" font-family="Helvetica-Bold" font-weight="bold" font-size="32.3" fill="#FEFFFF" transform="matrix(1.00, 0.00, -0.00, -1.00, 248.4, 232.0)">O</text><text xml:space="preserve" font-family="Helvetica-Bold" font-weight="bold" font-size="32.3" fill="#FEFFFF" transform="matrix(1.00, 0.00, -0.00, -1.00, 273.5, 232.0)">c</text><text xml:space="preserve" font-family="Helvetica-Bold" font-weight="bold" font-size="32.3" fill="#FEFFFF" transform="matrix(1.00, 0.00, -0.00, -1.00, 291.5, 232.0)">c</text><text xml:space="preserve" font-family="Helvetica-Bold" font-weight="bold" font-size="32.3" fill="#FEFFFF" transform="matrix(1.00, 0.00, -0.00, -1.00, 309.5, 232.0)">u</text><text xml:space="preserve" font-family="Helvetica-Bold" font-weight="bold" font-size="32.3" fill="#FEFFFF" transform="matrix(1.00, 0.00, -0.00, -1.00, 329.2, 232.0)">r</text><text xml:space="preserve" font-family="Helvetica-Bold" font-weight="bold" font-size="32.3" fill="#FEFFFF" transform="matrix(1.00, 0.00, -0.00, -1.00, 341.8, 232.0)">e</text><text xml:space="preserve" font-family="Helvetica-Bold" font-weight="bold" font-size="32.3" fill="#FEFFFF" transform="matrix(1.00, 0.00, -0.00, -1.00, 359.7, 232.0)">n</text><text xml:space="preserve" font-family="Helvetica-Bold" font-weight="bold" font-size="32.3" fill="#FEFFFF" transform="matrix(1.00, 0.00, -0.00, -1.00, 379.4, 232.0)">c</text><text xml:space="preserve" font-family="Helvetica-Bold" font-weight="bold" font-size="32.3" fill="#FEFFFF" transform="matrix(1.00, 0.00, -0.00, -1.00, 397.4, 232.0)">e</text><text xml:space="preserve" font-family="Helvetica-Bold" font-weight="bold" font-size="32.3" fill="#FEFFFF" transform="matrix(1.00, 0.00, -0.00, -1.00, 415.4, 232.0)"> </text><text xml:space="preserve" font-family="Helvetica-Bold" font-weight="bold" font-size="32.3" fill="#FEFFFF" transform="matrix(1.00, 0.00, -0.00, -1.00, 424.4, 232.0)">M</text><text xml:space="preserve" font-family="Helvetica-Bold" font-weight="bold" font-size="32.3" fill="#FEFFFF" transform="matrix(1.00, 0.00, -0.00, -1.00, 451.3, 232.0)">a</text><text xml:space="preserve" font-family="Helvetica-Bold" font-weight="bold" font-size="32.3" fill="#FEFFFF" transform="matrix(1.00, 0.00, -0.00, -1.00, 469.2, 232.0)">t</text><text xml:space="preserve" font-family="Helvetica-Bold" font-weight="bold" font-size="32.3" fill="#FEFFFF" transform="matrix(1.00, 0.00, -0.00, -1.00, 480.0, 232.0)">r</text><text xml:space="preserve" font-family="Helvetica-Bold" font-weight="bold" font-size="32.3" fill="#FEFFFF" transform="matrix(1.00, 0.00, -0.00, -1.00, 492.6, 232.0)">i</text><text xml:space="preserve" font-family="Helvetica-Bold" font-weight="bold" font-size="32.3" fill="#FEFFFF" transform="matrix(1.00, 0.00, -0.00, -1.00, 501.5, 232.0)">x</text><text xml:space="preserve" font-family="Helvetica-Bold" font-weight="bold" font-size="32.3" fill="#FEFFFF" transform="matrix(1.00, 0.00, -0.00, -1.00, 519.5, 232.0)"> </text><text xml:space="preserve" font-family="Helvetica-Bold" font-weight="bold" font-size="32.3" fill="#FEFFFF" transform="matrix(1.00, 0.00, -0.00, -1.00, 528.5, 232.0)">(</text><text xml:space="preserve" font-family="Helvetica-Bold" font-weight="bold" font-size="32.3" fill="#FEFFFF" transform="matrix(1.00, 0.00, -0.00, -1.00, 539.2, 232.0)">T</text><text xml:space="preserve" font-family="Helvetica-Bold" font-weight="bold" font-size="32.3" fill="#FEFFFF" transform="matrix(1.00, 0.00, -0.00, -1.00, 558.9, 232.0)">C</text><text xml:space="preserve" font-family="Helvetica-Bold" font-weight="bold" font-size="32.3" fill="#FEFFFF" transform="matrix(1.00, 0.00, -0.00, -1.00, 582.3, 232.0)">M</text><text xml:space="preserve" font-family="Helvetica-Bold" font-weight="bold" font-size="32.3" fill="#FEFFFF" transform="matrix(1.00, 0.00, -0.00, -1.00, 609.2, 232.0)">)</text><text xml:space="preserve" font-family="Helvetica-Light" font-size="24.2" fill="#FEFFFF" transform="matrix(1.00, 0.00, -0.00, -1.00, 114.0, 160.1)">•</text><text xml:space="preserve" font-family="Helvetica-Light" font-size="32.3" fill="#FEFFFF" transform="matrix(1.00, 0.00, -0.00, -1.00, 144.0, 158.0)">R</text><text xml:space="preserve" font-family="Helvetica-Light" font-size="32.3" fill="#FEFFFF" transform="matrix(1.00, 0.00, -0.00, -1.00, 165.5, 158.0)">o</text><text xml:space="preserve" font-family="Helvetica-Light" font-size="32.3" fill="#FEFFFF" transform="matrix(1.00, 0.00, -0.00, -1.00, 183.5, 158.0)">w</text><text xml:space="preserve" font-family="Helvetica-Light" font-size="32.3" fill="#FEFFFF" transform="matrix(1.00, 0.00, -0.00, -1.00, 206.8, 158.0)">s</text><text xml:space="preserve" font-family="Helvetica-Light" font-size="32.3" fill="#FEFFFF" transform="matrix(1.00, 0.00, -0.00, -1.00, 223.0, 158.0)"> </text><text xml:space="preserve" font-family="Helvetica-Light" font-size="32.3" fill="#FEFFFF" transform="matrix(1.00, 0.00, -0.00, -1.00, 232.0, 158.0)">a</text><text xml:space="preserve" font-family="Helvetica-Light" font-size="32.3" fill="#FEFFFF" transform="matrix(1.00, 0.00, -0.00, -1.00, 249.9, 158.0)">n</text><text xml:space="preserve" font-family="Helvetica-Light" font-size="32.3" fill="#FEFFFF" transform="matrix(1.00, 0.00, -0.00, -1.00, 267.9, 158.0)">d</text><text xml:space="preserve" font-family="Helvetica-Light" font-size="32.3" fill="#FEFFFF" transform="matrix(1.00, 0.00, -0.00, -1.00, 287.6, 158.0)"> </text><text xml:space="preserve" font-family="Helvetica-Light" font-size="32.3" fill="#FEFFFF" transform="matrix(1.00, 0.00, -0.00, -1.00, 296.6, 158.0)">c</text><text xml:space="preserve" font-family="Helvetica-Light" font-size="32.3" fill="#FEFFFF" transform="matrix(1.00, 0.00, -0.00, -1.00, 314.5, 158.0)">o</text><text xml:space="preserve" font-family="Helvetica-Light" font-size="32.3" fill="#FEFFFF" transform="matrix(1.00, 0.00, -0.00, -1.00, 332.5, 158.0)">l</text><text xml:space="preserve" font-family="Helvetica-Light" font-size="32.3" fill="#FEFFFF" transform="matrix(1.00, 0.00, -0.00, -1.00, 339.7, 158.0)">u</text><text xml:space="preserve" font-family="Helvetica-Light" font-size="32.3" fill="#FEFFFF" transform="matrix(1.00, 0.00, -0.00, -1.00, 357.6, 158.0)">m</text><text xml:space="preserve" font-family="Helvetica-Light" font-size="32.3" fill="#FEFFFF" transform="matrix(1.00, 0.00, -0.00, -1.00, 384.5, 158.0)">n</text><text xml:space="preserve" font-family="Helvetica-Light" font-size="32.3" fill="#FEFFFF" transform="matrix(1.00, 0.00, -0.00, -1.00, 402.5, 158.0)">s</text><text xml:space="preserve" font-family="Helvetica-Light" font-size="32.3" fill="#FEFFFF" transform="matrix(1.00, 0.00, -0.00, -1.00, 418.6, 158.0)"> </text><text xml:space="preserve" font-family="Helvetica-Light" font-size="32.3" fill="#FEFFFF" transform="matrix(1.00, 0.00, -0.00, -1.00, 427.6, 158.0)">a</text><text xml:space="preserve" font-family="Helvetica-Light" font-size="32.3" fill="#FEFFFF" transform="matrix(1.00, 0.00, -0.00, -1.00, 445.6, 158.0)">r</text><text xml:space="preserve" font-family="Helvetica-Light" font-size="32.3" fill="#FEFFFF" transform="matrix(1.00, 0.00, -0.00, -1.00, 455.8, 158.0)">e</text><text xml:space="preserve" font-family="Helvetica-Light" font-size="32.3" fill="#FEFFFF" transform="matrix(1.00, 0.00, -0.00, -1.00, 473.7, 158.0)"> </text><text xml:space="preserve" font-family="Helvetica-Light" font-size="32.3" fill="#FEFFFF" transform="matrix(1.00, 0.00, -0.00, -1.00, 482.7, 158.0)">l</text><text xml:space="preserve" font-family="Helvetica-Light" font-size="32.3" fill="#FEFFFF" transform="matrix(1.00, 0.00, -0.00, -1.00, 489.9, 158.0)">i</text><text xml:space="preserve" font-family="Helvetica-Light" font-size="32.3" fill="#FEFFFF" transform="matrix(1.00, 0.00, -0.00, -1.00, 497.0, 158.0)">n</text><text xml:space="preserve" font-family="Helvetica-Light" font-size="32.3" fill="#FEFFFF" transform="matrix(1.00, 0.00, -0.00, -1.00, 515.0, 158.0)">g</text><text xml:space="preserve" font-family="Helvetica-Light" font-size="32.3" fill="#FEFFFF" transform="matrix(1.00, 0.00, -0.00, -1.00, 534.7, 158.0)">u</text><text xml:space="preserve" font-family="Helvetica-Light" font-size="32.3" fill="#FEFFFF" transform="matrix(1.00, 0.00, -0.00, -1.00, 552.7, 158.0)">i</text><text xml:space="preserve" font-family="Helvetica-Light" font-size="32.3" fill="#FEFFFF" transform="matrix(1.00, 0.00, -0.00, -1.00, 559.9, 158.0)">s</text><text xml:space="preserve" font-family="Helvetica-Light" font-size="32.3" fill="#FEFFFF" transform="matrix(1.00, 0.00, -0.00, -1.00, 576.0, 158.0)">t</text><text xml:space="preserve" font-family="Helvetica-Light" font-size="32.3" fill="#FEFFFF" transform="matrix(1.00, 0.00, -0.00, -1.00, 585.0, 158.0)">i</text><text xml:space="preserve" font-family="Helvetica-Light" font-size="32.3" fill="#FEFFFF" transform="matrix(1.00, 0.00, -0.00, -1.00, 592.2, 158.0)">c</text><text xml:space="preserve" font-family="Helvetica-Light" font-size="32.3" fill="#FEFFFF" transform="matrix(1.00, 0.00, -0.00, -1.00, 610.1, 158.0)"> </text><text xml:space="preserve" font-family="Helvetica-Light" font-size="32.3" fill="#FEFFFF" transform="matrix(1.00, 0.00, -0.00, -1.00, 619.1, 158.0)">f</text><text xml:space="preserve" font-family="Helvetica-Light" font-size="32.3" fill="#FEFFFF" transform="matrix(1.00, 0.00, -0.00, -1.00, 628.1, 158.0)">e</text><text xml:space="preserve" font-family="Helvetica-Light" font-size="32.3" fill="#FEFFFF" transform="matrix(1.00, 0.00, -0.00, -1.00, 646.0, 158.0)">a</text><text xml:space="preserve" font-family="Helvetica-Light" font-size="32.3" fill="#FEFFFF" transform="matrix(1.00, 0.00, -0.00, -1.00, 664.0, 158.0)">t</text><text xml:space="preserve" font-family="Helvetica-Light" font-size="32.3" fill="#FEFFFF" transform="matrix(1.00, 0.00, -0.00, -1.00, 673.0, 158.0)">u</text><text xml:space="preserve" font-family="Helvetica-Light" font-size="32.3" fill="#FEFFFF" transform="matrix(1.00, 0.00, -0.00, -1.00, 690.9, 158.0)">r</text><text xml:space="preserve" font-family="Helvetica-Light" font-size="32.3" fill="#FEFFFF" transform="matrix(1.00, 0.00, -0.00, -1.00, 701.1, 158.0)">e</text><text xml:space="preserve" font-family="Helvetica-Light" font-size="32.3" fill="#FEFFFF" transform="matrix(1.00, 0.00, -0.00, -1.00, 719.1, 158.0)">s</text><text xml:space="preserve" font-family="Helvetica-Light" font-size="32.3" fill="#FEFFFF" transform="matrix(1.00, 0.00, -0.00, -1.00, 735.2, 158.0)"> </text><text xml:space="preserve" font-family="Helvetica-Light" font-size="24.2" fill="#FEFFFF" transform="matrix(1.00, 0.00, -0.00, -1.00, 114.0, 86.4)">•</text><text xml:space="preserve" font-family="Helvetica-Light" font-size="32.3" fill="#FEFFFF" transform="matrix(1.00, 0.00, -0.00, -1.00, 144.0, 84.0)">S</text><text xml:space="preserve" font-family="Helvetica-Light" font-size="32.3" fill="#FEFFFF" transform="matrix(1.00, 0.00, -0.00, -1.00, 163.7, 84.0)">q</text><text xml:space="preserve" font-family="Helvetica-Light" font-size="32.3" fill="#FEFFFF" transform="matrix(1.00, 0.00, -0.00, -1.00, 183.5, 84.0)">u</text><text xml:space="preserve" font-family="Helvetica-Light" font-size="32.3" fill="#FEFFFF" transform="matrix(1.00, 0.00, -0.00, -1.00, 201.4, 84.0)">a</text><text xml:space="preserve" font-family="Helvetica-Light" font-size="32.3" fill="#FEFFFF" transform="matrix(1.00, 0.00, -0.00, -1.00, 219.4, 84.0)">r</text><text xml:space="preserve" font-family="Helvetica-Light" font-size="32.3" fill="#FEFFFF" transform="matrix(1.00, 0.00, -0.00, -1.00, 229.6, 84.0)">e</text><text xml:space="preserve" font-family="Helvetica-Light" font-size="32.3" fill="#FEFFFF" transform="matrix(1.00, 0.00, -0.00, -1.00, 247.5, 84.0)">,</text><text xml:space="preserve" font-family="Helvetica-Light" font-size="32.3" fill="#FEFFFF" transform="matrix(1.00, 0.00, -0.00, -1.00, 256.5, 84.0)"> </text><text xml:space="preserve" font-family="Helvetica-Light" font-size="32.3" fill="#FEFFFF" transform="matrix(1.00, 0.00, -0.00, -1.00, 265.5, 84.0)">n</text><text xml:space="preserve" font-family="Helvetica-Light" font-size="32.3" fill="#FEFFFF" transform="matrix(1.00, 0.00, -0.00, -1.00, 283.4, 84.0)">o</text><text xml:space="preserve" font-family="Helvetica-Light" font-size="32.3" fill="#FEFFFF" transform="matrix(1.00, 0.00, -0.00, -1.00, 301.4, 84.0)">t</text><text xml:space="preserve" font-family="Helvetica-Light" font-size="32.3" fill="#FEFFFF" transform="matrix(1.00, 0.00, -0.00, -1.00, 310.4, 84.0)"> </text><text xml:space="preserve" font-family="Helvetica-Light" font-size="32.3" fill="#FEFFFF" transform="matrix(1.00, 0.00, -0.00, -1.00, 319.4, 84.0)">n</text><text xml:space="preserve" font-family="Helvetica-Light" font-size="32.3" fill="#FEFFFF" transform="matrix(1.00, 0.00, -0.00, -1.00, 337.3, 84.0)">e</text><text xml:space="preserve" font-family="Helvetica-Light" font-size="32.3" fill="#FEFFFF" transform="matrix(1.00, 0.00, -0.00, -1.00, 355.3, 84.0)">c</text><text xml:space="preserve" font-family="Helvetica-Light" font-size="32.3" fill="#FEFFFF" transform="matrix(1.00, 0.00, -0.00, -1.00, 373.2, 84.0)">e</text><text xml:space="preserve" font-family="Helvetica-Light" font-size="32.3" fill="#FEFFFF" transform="matrix(1.00, 0.00, -0.00, -1.00, 391.2, 84.0)">s</text><text xml:space="preserve" font-family="Helvetica-Light" font-size="32.3" fill="#FEFFFF" transform="matrix(1.00, 0.00, -0.00, -1.00, 407.3, 84.0)">s</text><text xml:space="preserve" font-family="Helvetica-Light" font-size="32.3" fill="#FEFFFF" transform="matrix(1.00, 0.00, -0.00, -1.00, 423.5, 84.0)">a</text><text xml:space="preserve" font-family="Helvetica-Light" font-size="32.3" fill="#FEFFFF" transform="matrix(1.00, 0.00, -0.00, -1.00, 441.5, 84.0)">r</text><text xml:space="preserve" font-family="Helvetica-Light" font-size="32.3" fill="#FEFFFF" transform="matrix(1.00, 0.00, -0.00, -1.00, 452.2, 84.0)">i</text><text xml:space="preserve" font-family="Helvetica-Light" font-size="32.3" fill="#FEFFFF" transform="matrix(1.00, 0.00, -0.00, -1.00, 459.4, 84.0)">l</text><text xml:space="preserve" font-family="Helvetica-Light" font-size="32.3" fill="#FEFFFF" transform="matrix(1.00, 0.00, -0.00, -1.00, 466.5, 84.0)">y</text><text xml:space="preserve" font-family="Helvetica-Light" font-size="32.3" fill="#FEFFFF" transform="matrix(1.00, 0.00, -0.00, -1.00, 482.7, 84.0)"> </text><text xml:space="preserve" font-family="Helvetica-Light" font-size="32.3" fill="#FEFFFF" transform="matrix(1.00, 0.00, -0.00, -1.00, 491.7, 84.0)">s</text><text xml:space="preserve" font-family="Helvetica-Light" font-size="32.3" fill="#FEFFFF" transform="matrix(1.00, 0.00, -0.00, -1.00, 507.8, 84.0)">y</text><text xml:space="preserve" font-family="Helvetica-Light" font-size="32.3" fill="#FEFFFF" transform="matrix(1.00, 0.00, -0.00, -1.00, 524.0, 84.0)">m</text><text xml:space="preserve" font-family="Helvetica-Light" font-size="32.3" fill="#FEFFFF" transform="matrix(1.00, 0.00, -0.00, -1.00, 550.9, 84.0)">m</text><text xml:space="preserve" font-family="Helvetica-Light" font-size="32.3" fill="#FEFFFF" transform="matrix(1.00, 0.00, -0.00, -1.00, 577.8, 84.0)">e</text><text xml:space="preserve" font-family="Helvetica-Light" font-size="32.3" fill="#FEFFFF" transform="matrix(1.00, 0.00, -0.00, -1.00, 595.7, 84.0)">t</text><text xml:space="preserve" font-family="Helvetica-Light" font-size="32.3" fill="#FEFFFF" transform="matrix(1.00, 0.00, -0.00, -1.00, 604.7, 84.0)">r</text><text xml:space="preserve" font-family="Helvetica-Light" font-size="32.3" fill="#FEFFFF" transform="matrix(1.00, 0.00, -0.00, -1.00, 615.5, 84.0)">i</text><text xml:space="preserve" font-family="Helvetica-Light" font-size="32.3" fill="#FEFFFF" transform="matrix(1.00, 0.00, -0.00, -1.00, 622.7, 84.0)">c</text></g></svg>