<?xml version="1.0" encoding="UTF-8" standalone="no"?><svg xmlns="http://www.w3.org/2000/svg" xmlns:xlink="http://www.w3.org/1999/xlink" clip-rule="evenodd" stroke-miterlimit="4.00" viewBox="0 0 1024 768"><desc>SVG generated by Keynote</desc><defs></defs><g transform="matrix(1.00, 0.00, -0.00, -1.00, 0.0, 768.0)"><path d="M 0.0 768.0 L 1024.0 768.0 L 1024.0 0.0 L 0.0 0.0 Z M 0.0 768.0 " fill="#000000"></path><text xml:space="preserve" font-family="Helvetica-Light" font-size="80.0" fill="#FEFFFF" transform="matrix(1.00, 0.00, -0.00, -1.00, 116.0, 633.0)">t</text><text xml:space="preserve" font-family="Helvetica-Light" font-size="80.0" fill="#FEFFFF" transform="matrix(1.00, 0.00, -0.00, -1.00, 138.2, 633.0)">e</text><text xml:space="preserve" font-family="Helvetica-Light" font-size="80.0" fill="#FEFFFF" transform="matrix(1.00, 0.00, -0.00, -1.00, 182.7, 633.0)">x</text><text xml:space="preserve" font-family="Helvetica-Light" font-size="80.0" fill="#FEFFFF" transform="matrix(1.00, 0.00, -0.00, -1.00, 222.7, 633.0)">t</text><text xml:space="preserve" font-family="Helvetica-Light" font-size="80.0" fill="#FEFFFF" transform="matrix(1.00, 0.00, -0.00, -1.00, 245.0, 633.0)">m</text><text xml:space="preserve" font-family="Helvetica-Light" font-size="80.0" fill="#FEFFFF" transform="matrix(1.00, 0.00, -0.00, -1.00, 311.6, 633.0)">i</text><text xml:space="preserve" font-family="Helvetica-Light" font-size="80.0" fill="#FEFFFF" transform="matrix(1.00, 0.00, -0.00, -1.00, 329.4, 633.0)">n</text><text xml:space="preserve" font-family="Helvetica-Light" font-size="80.0" fill="#FEFFFF" transform="matrix(1.00, 0.00, -0.00, -1.00, 373.8, 633.0)">e</text><text xml:space="preserve" font-family="Helvetica-Light" font-size="80.0" fill="#FEFFFF" transform="matrix(1.00, 0.00, -0.00, -1.00, 418.3, 633.0)">R</text><text xml:space="preserve" font-family="Helvetica-Light" font-size="80.0" fill="#FEFFFF" transform="matrix(1.00, 0.00, -0.00, -1.00, 471.7, 633.0)"> </text><text xml:space="preserve" font-family="Helvetica-Light" font-size="80.0" fill="#FEFFFF" transform="matrix(1.00, 0.00, -0.00, -1.00, 493.9, 633.0)">i</text><text xml:space="preserve" font-family="Helvetica-Light" font-size="80.0" fill="#FEFFFF" transform="matrix(1.00, 0.00, -0.00, -1.00, 511.7, 633.0)">s</text><text xml:space="preserve" font-family="Helvetica-Light" font-size="80.0" fill="#FEFFFF" transform="matrix(1.00, 0.00, -0.00, -1.00, 551.7, 633.0)"> </text><text xml:space="preserve" font-family="Helvetica-Light" font-size="80.0" fill="#FEFFFF" transform="matrix(1.00, 0.00, -0.00, -1.00, 573.9, 633.0)">o</text><text xml:space="preserve" font-family="Helvetica-Light" font-size="80.0" fill="#FEFFFF" transform="matrix(1.00, 0.00, -0.00, -1.00, 618.4, 633.0)">n</text><text xml:space="preserve" font-family="Helvetica-Light" font-size="80.0" fill="#FEFFFF" transform="matrix(1.00, 0.00, -0.00, -1.00, 662.9, 633.0)"> </text><text xml:space="preserve" font-family="Helvetica-Light" font-size="80.0" fill="#FEFFFF" transform="matrix(1.00, 0.00, -0.00, -1.00, 685.1, 633.0)">C</text><text xml:space="preserve" font-family="Helvetica-Light" font-size="80.0" fill="#FEFFFF" transform="matrix(1.00, 0.00, -0.00, -1.00, 742.9, 633.0)">R</text><text xml:space="preserve" font-family="Helvetica-Light" font-size="80.0" fill="#FEFFFF" transform="matrix(1.00, 0.00, -0.00, -1.00, 796.2, 633.0)">A</text><text xml:space="preserve" font-family="Helvetica-Light" font-size="80.0" fill="#FEFFFF" transform="matrix(1.00, 0.00, -0.00, -1.00, 849.6, 633.0)">N</text><text xml:space="preserve" font-family="Helvetica-Light" font-size="27.6" fill="#FEFFFF" transform="matrix(1.00, 0.00, -0.00, -1.00, 79.0, 519.9)">•</text><text xml:space="preserve" font-family="Helvetica-Light" font-size="36.9" fill="#FEFFFF" transform="matrix(1.00, 0.00, -0.00, -1.00, 113.0, 516.0)">L</text><text xml:space="preserve" font-family="Helvetica-Light" font-size="36.9" fill="#FEFFFF" transform="matrix(1.00, 0.00, -0.00, -1.00, 133.5, 516.0)">a</text><text xml:space="preserve" font-family="Helvetica-Light" font-size="36.9" fill="#FEFFFF" transform="matrix(1.00, 0.00, -0.00, -1.00, 154.0, 516.0)">t</text><text xml:space="preserve" font-family="Helvetica-Light" font-size="36.9" fill="#FEFFFF" transform="matrix(1.00, 0.00, -0.00, -1.00, 164.2, 516.0)">e</text><text xml:space="preserve" font-family="Helvetica-Light" font-size="36.9" fill="#FEFFFF" transform="matrix(1.00, 0.00, -0.00, -1.00, 184.7, 516.0)">s</text><text xml:space="preserve" font-family="Helvetica-Light" font-size="36.9" fill="#FEFFFF" transform="matrix(1.00, 0.00, -0.00, -1.00, 203.2, 516.0)">t</text><text xml:space="preserve" font-family="Helvetica-Light" font-size="36.9" fill="#FEFFFF" transform="matrix(1.00, 0.00, -0.00, -1.00, 213.4, 516.0)"> </text><text xml:space="preserve" font-family="Helvetica-Light" font-size="36.9" fill="#FEFFFF" transform="matrix(1.00, 0.00, -0.00, -1.00, 223.7, 516.0)">s</text><text xml:space="preserve" font-family="Helvetica-Light" font-size="36.9" fill="#FEFFFF" transform="matrix(1.00, 0.00, -0.00, -1.00, 242.1, 516.0)">t</text><text xml:space="preserve" font-family="Helvetica-Light" font-size="36.9" fill="#FEFFFF" transform="matrix(1.00, 0.00, -0.00, -1.00, 252.3, 516.0)">a</text><text xml:space="preserve" font-family="Helvetica-Light" font-size="36.9" fill="#FEFFFF" transform="matrix(1.00, 0.00, -0.00, -1.00, 272.8, 516.0)">b</text><text xml:space="preserve" font-family="Helvetica-Light" font-size="36.9" fill="#FEFFFF" transform="matrix(1.00, 0.00, -0.00, -1.00, 295.3, 516.0)">l</text><text xml:space="preserve" font-family="Helvetica-Light" font-size="36.9" fill="#FEFFFF" transform="matrix(1.00, 0.00, -0.00, -1.00, 303.5, 516.0)">e</text><text xml:space="preserve" font-family="Helvetica-Light" font-size="36.9" fill="#FEFFFF" transform="matrix(1.00, 0.00, -0.00, -1.00, 324.0, 516.0)"> </text><text xml:space="preserve" font-family="Helvetica-Light" font-size="36.9" fill="#FEFFFF" transform="matrix(1.00, 0.00, -0.00, -1.00, 334.3, 516.0)">v</text><text xml:space="preserve" font-family="Helvetica-Light" font-size="36.9" fill="#FEFFFF" transform="matrix(1.00, 0.00, -0.00, -1.00, 352.7, 516.0)">e</text><text xml:space="preserve" font-family="Helvetica-Light" font-size="36.9" fill="#FEFFFF" transform="matrix(1.00, 0.00, -0.00, -1.00, 373.2, 516.0)">r</text><text xml:space="preserve" font-family="Helvetica-Light" font-size="36.9" fill="#FEFFFF" transform="matrix(1.00, 0.00, -0.00, -1.00, 385.5, 516.0)">s</text><text xml:space="preserve" font-family="Helvetica-Light" font-size="36.9" fill="#FEFFFF" transform="matrix(1.00, 0.00, -0.00, -1.00, 403.9, 516.0)">i</text><text xml:space="preserve" font-family="Helvetica-Light" font-size="36.9" fill="#FEFFFF" transform="matrix(1.00, 0.00, -0.00, -1.00, 412.1, 516.0)">o</text><text xml:space="preserve" font-family="Helvetica-Light" font-size="36.9" fill="#FEFFFF" transform="matrix(1.00, 0.00, -0.00, -1.00, 432.6, 516.0)">n</text><text xml:space="preserve" font-family="Helvetica-Light" font-size="36.9" fill="#FEFFFF" transform="matrix(1.00, 0.00, -0.00, -1.00, 453.1, 516.0)"> </text><text xml:space="preserve" font-family="Helvetica-Light" font-size="36.9" fill="#FEFFFF" transform="matrix(1.00, 0.00, -0.00, -1.00, 463.3, 516.0)">i</text><text xml:space="preserve" font-family="Helvetica-Light" font-size="36.9" fill="#FEFFFF" transform="matrix(1.00, 0.00, -0.00, -1.00, 471.5, 516.0)">s</text><text xml:space="preserve" font-family="Helvetica-Light" font-size="36.9" fill="#FEFFFF" transform="matrix(1.00, 0.00, -0.00, -1.00, 489.9, 516.0)"> </text><text xml:space="preserve" font-family="Helvetica-Light" font-size="36.9" fill="#FEFFFF" transform="matrix(1.00, 0.00, -0.00, -1.00, 500.2, 516.0)">2</text><text xml:space="preserve" font-family="Helvetica-Light" font-size="36.9" fill="#FEFFFF" transform="matrix(1.00, 0.00, -0.00, -1.00, 520.7, 516.0)">.</text><text xml:space="preserve" font-family="Helvetica-Light" font-size="36.9" fill="#FEFFFF" transform="matrix(1.00, 0.00, -0.00, -1.00, 530.9, 516.0)">0</text><text xml:space="preserve" font-family="Helvetica-Light" font-size="36.9" fill="#FEFFFF" transform="matrix(1.00, 0.00, -0.00, -1.00, 551.4, 516.0)">.</text><text xml:space="preserve" font-family="Helvetica-Light" font-size="36.9" fill="#FEFFFF" transform="matrix(1.00, 0.00, -0.00, -1.00, 561.7, 516.0)">1</text><text xml:space="preserve" font-family="Helvetica-Light" font-size="36.9" fill="#FEFFFF" transform="matrix(1.00, 0.00, -0.00, -1.00, 582.2, 516.0)"> </text><text xml:space="preserve" font-family="LucidaGrande" font-size="36.9" fill="#FEFFFF" transform="matrix(1.00, 0.00, -0.00, -1.00, 592.4, 516.0)"> </text><text xml:space="preserve" font-family="Helvetica-Light" font-size="36.9" fill="#FEFFFF" transform="matrix(1.00, 0.00, -0.00, -1.00, 113.0, 473.0)">(</text><text xml:space="preserve" font-family="Helvetica-Light" font-size="36.9" fill="#FEFFFF" transform="matrix(1.00, 0.00, -0.00, -1.00, 125.3, 473.0)">u</text><text xml:space="preserve" font-family="Helvetica-Light" font-size="36.9" fill="#FEFFFF" transform="matrix(1.00, 0.00, -0.00, -1.00, 145.8, 473.0)">p</text><text xml:space="preserve" font-family="Helvetica-Light" font-size="36.9" fill="#FEFFFF" transform="matrix(1.00, 0.00, -0.00, -1.00, 168.3, 473.0)">d</text><text xml:space="preserve" font-family="Helvetica-Light" font-size="36.9" fill="#FEFFFF" transform="matrix(1.00, 0.00, -0.00, -1.00, 190.8, 473.0)">a</text><text xml:space="preserve" font-family="Helvetica-Light" font-size="36.9" fill="#FEFFFF" transform="matrix(1.00, 0.00, -0.00, -1.00, 211.3, 473.0)">t</text><text xml:space="preserve" font-family="Helvetica-Light" font-size="36.9" fill="#FEFFFF" transform="matrix(1.00, 0.00, -0.00, -1.00, 221.6, 473.0)">e</text><text xml:space="preserve" font-family="Helvetica-Light" font-size="36.9" fill="#FEFFFF" transform="matrix(1.00, 0.00, -0.00, -1.00, 242.0, 473.0)">d</text><text xml:space="preserve" font-family="Helvetica-Light" font-size="36.9" fill="#FEFFFF" transform="matrix(1.00, 0.00, -0.00, -1.00, 264.6, 473.0)"> </text><text xml:space="preserve" font-family="Helvetica-Light" font-size="36.9" fill="#FEFFFF" transform="matrix(1.00, 0.00, -0.00, -1.00, 274.8, 473.0)">t</text><text xml:space="preserve" font-family="Helvetica-Light" font-size="36.9" fill="#FEFFFF" transform="matrix(1.00, 0.00, -0.00, -1.00, 285.1, 473.0)">h</text><text xml:space="preserve" font-family="Helvetica-Light" font-size="36.9" fill="#FEFFFF" transform="matrix(1.00, 0.00, -0.00, -1.00, 305.6, 473.0)">i</text><text xml:space="preserve" font-family="Helvetica-Light" font-size="36.9" fill="#FEFFFF" transform="matrix(1.00, 0.00, -0.00, -1.00, 313.7, 473.0)">s</text><text xml:space="preserve" font-family="Helvetica-Light" font-size="36.9" fill="#FEFFFF" transform="matrix(1.00, 0.00, -0.00, -1.00, 332.2, 473.0)"> </text><text xml:space="preserve" font-family="Helvetica-Light" font-size="36.9" fill="#FEFFFF" transform="matrix(1.00, 0.00, -0.00, -1.00, 342.4, 473.0)">w</text><text xml:space="preserve" font-family="Helvetica-Light" font-size="36.9" fill="#FEFFFF" transform="matrix(1.00, 0.00, -0.00, -1.00, 369.0, 473.0)">e</text><text xml:space="preserve" font-family="Helvetica-Light" font-size="36.9" fill="#FEFFFF" transform="matrix(1.00, 0.00, -0.00, -1.00, 389.5, 473.0)">e</text><text xml:space="preserve" font-family="Helvetica-Light" font-size="36.9" fill="#FEFFFF" transform="matrix(1.00, 0.00, -0.00, -1.00, 410.0, 473.0)">k</text><text xml:space="preserve" font-family="Helvetica-Light" font-size="36.9" fill="#FEFFFF" transform="matrix(1.00, 0.00, -0.00, -1.00, 428.4, 473.0)">)</text><text xml:space="preserve" font-family="Helvetica-Light" font-size="36.9" fill="#FEFFFF" transform="matrix(1.00, 0.00, -0.00, -1.00, 440.7, 473.0)"> </text><text xml:space="preserve" font-family="Helvetica-Light" font-size="27.6" fill="#FEFFFF" transform="matrix(1.00, 0.00, -0.00, -1.00, 79.0, 393.1)">•</text><text xml:space="preserve" font-family="Helvetica-Light" font-size="36.9" fill="#FEFFFF" transform="matrix(1.00, 0.00, -0.00, -1.00, 113.0, 390.0)">D</text><text xml:space="preserve" font-family="Helvetica-Light" font-size="36.9" fill="#FEFFFF" transform="matrix(1.00, 0.00, -0.00, -1.00, 139.6, 390.0)">e</text><text xml:space="preserve" font-family="Helvetica-Light" font-size="36.9" fill="#FEFFFF" transform="matrix(1.00, 0.00, -0.00, -1.00, 160.1, 390.0)">v</text><text xml:space="preserve" font-family="Helvetica-Light" font-size="36.9" fill="#FEFFFF" transform="matrix(1.00, 0.00, -0.00, -1.00, 178.5, 390.0)">e</text><text xml:space="preserve" font-family="Helvetica-Light" font-size="36.9" fill="#FEFFFF" transform="matrix(1.00, 0.00, -0.00, -1.00, 199.0, 390.0)">l</text><text xml:space="preserve" font-family="Helvetica-Light" font-size="36.9" fill="#FEFFFF" transform="matrix(1.00, 0.00, -0.00, -1.00, 207.2, 390.0)">o</text><text xml:space="preserve" font-family="Helvetica-Light" font-size="36.9" fill="#FEFFFF" transform="matrix(1.00, 0.00, -0.00, -1.00, 227.7, 390.0)">p</text><text xml:space="preserve" font-family="Helvetica-Light" font-size="36.9" fill="#FEFFFF" transform="matrix(1.00, 0.00, -0.00, -1.00, 250.2, 390.0)">m</text><text xml:space="preserve" font-family="Helvetica-Light" font-size="36.9" fill="#FEFFFF" transform="matrix(1.00, 0.00, -0.00, -1.00, 280.9, 390.0)">e</text><text xml:space="preserve" font-family="Helvetica-Light" font-size="36.9" fill="#FEFFFF" transform="matrix(1.00, 0.00, -0.00, -1.00, 301.4, 390.0)">n</text><text xml:space="preserve" font-family="Helvetica-Light" font-size="36.9" fill="#FEFFFF" transform="matrix(1.00, 0.00, -0.00, -1.00, 321.9, 390.0)">t</text><text xml:space="preserve" font-family="Helvetica-Light" font-size="36.9" fill="#FEFFFF" transform="matrix(1.00, 0.00, -0.00, -1.00, 332.2, 390.0)"> </text><text xml:space="preserve" font-family="Helvetica-Light" font-size="36.9" fill="#FEFFFF" transform="matrix(1.00, 0.00, -0.00, -1.00, 342.4, 390.0)">v</text><text xml:space="preserve" font-family="Helvetica-Light" font-size="36.9" fill="#FEFFFF" transform="matrix(1.00, 0.00, -0.00, -1.00, 360.8, 390.0)">e</text><text xml:space="preserve" font-family="Helvetica-Light" font-size="36.9" fill="#FEFFFF" transform="matrix(1.00, 0.00, -0.00, -1.00, 381.3, 390.0)">r</text><text xml:space="preserve" font-family="Helvetica-Light" font-size="36.9" fill="#FEFFFF" transform="matrix(1.00, 0.00, -0.00, -1.00, 393.6, 390.0)">s</text><text xml:space="preserve" font-family="Helvetica-Light" font-size="36.9" fill="#FEFFFF" transform="matrix(1.00, 0.00, -0.00, -1.00, 412.0, 390.0)">i</text><text xml:space="preserve" font-family="Helvetica-Light" font-size="36.9" fill="#FEFFFF" transform="matrix(1.00, 0.00, -0.00, -1.00, 420.2, 390.0)">o</text><text xml:space="preserve" font-family="Helvetica-Light" font-size="36.9" fill="#FEFFFF" transform="matrix(1.00, 0.00, -0.00, -1.00, 440.7, 390.0)">n</text><text xml:space="preserve" font-family="Helvetica-Light" font-size="36.9" fill="#FEFFFF" transform="matrix(1.00, 0.00, -0.00, -1.00, 461.2, 390.0)"> </text><text xml:space="preserve" font-family="Helvetica-Light" font-size="36.9" fill="#FEFFFF" transform="matrix(1.00, 0.00, -0.00, -1.00, 471.5, 390.0)">i</text><text xml:space="preserve" font-family="Helvetica-Light" font-size="36.9" fill="#FEFFFF" transform="matrix(1.00, 0.00, -0.00, -1.00, 479.6, 390.0)">s</text><text xml:space="preserve" font-family="Helvetica-Light" font-size="36.9" fill="#FEFFFF" transform="matrix(1.00, 0.00, -0.00, -1.00, 498.1, 390.0)"> </text><text xml:space="preserve" font-family="Helvetica-Light" font-size="36.9" fill="#FEFFFF" transform="matrix(1.00, 0.00, -0.00, -1.00, 508.3, 390.0)">o</text><text xml:space="preserve" font-family="Helvetica-Light" font-size="36.9" fill="#FEFFFF" transform="matrix(1.00, 0.00, -0.00, -1.00, 528.8, 390.0)">n</text><text xml:space="preserve" font-family="Helvetica-Light" font-size="36.9" fill="#FEFFFF" transform="matrix(1.00, 0.00, -0.00, -1.00, 549.3, 390.0)"> </text><text xml:space="preserve" font-family="Helvetica-Light" font-size="36.9" fill="#FEFFFF" transform="matrix(1.00, 0.00, -0.00, -1.00, 559.6, 390.0)">G</text><text xml:space="preserve" font-family="Helvetica-Light" font-size="36.9" fill="#FEFFFF" transform="matrix(1.00, 0.00, -0.00, -1.00, 588.2, 390.0)">i</text><text xml:space="preserve" font-family="Helvetica-Light" font-size="36.9" fill="#FEFFFF" transform="matrix(1.00, 0.00, -0.00, -1.00, 596.4, 390.0)">t</text><text xml:space="preserve" font-family="Helvetica-Light" font-size="36.9" fill="#FEFFFF" transform="matrix(1.00, 0.00, -0.00, -1.00, 606.7, 390.0)">H</text><text xml:space="preserve" font-family="Helvetica-Light" font-size="36.9" fill="#FEFFFF" transform="matrix(1.00, 0.00, -0.00, -1.00, 633.3, 390.0)">u</text><text xml:space="preserve" font-family="Helvetica-Light" font-size="36.9" fill="#FEFFFF" transform="matrix(1.00, 0.00, -0.00, -1.00, 653.8, 390.0)">b</text><text xml:space="preserve" font-family="Helvetica-Light" font-size="36.9" fill="#FEFFFF" transform="matrix(1.00, 0.00, -0.00, -1.00, 676.3, 390.0)"> </text><text xml:space="preserve" font-family="Helvetica-Light" font-size="36.9" fill="#FEFFFF" transform="matrix(1.00, 0.00, -0.00, -1.00, 686.5, 390.0)">i</text><text xml:space="preserve" font-family="Helvetica-Light" font-size="36.9" fill="#FEFFFF" transform="matrix(1.00, 0.00, -0.00, -1.00, 694.7, 390.0)">n</text><text xml:space="preserve" font-family="Helvetica-Light" font-size="36.9" fill="#FEFFFF" transform="matrix(1.00, 0.00, -0.00, -1.00, 715.2, 390.0)"> </text><text xml:space="preserve" font-family="Helvetica-Light" font-size="36.9" fill="#FEFFFF" transform="matrix(1.00, 0.00, -0.00, -1.00, 725.5, 390.0)">t</text><text xml:space="preserve" font-family="Helvetica-Light" font-size="36.9" fill="#FEFFFF" transform="matrix(1.00, 0.00, -0.00, -1.00, 735.7, 390.0)">h</text><text xml:space="preserve" font-family="Helvetica-Light" font-size="36.9" fill="#FEFFFF" transform="matrix(1.00, 0.00, -0.00, -1.00, 756.2, 390.0)">e</text><text xml:space="preserve" font-family="Helvetica-Light" font-size="36.9" fill="#FEFFFF" transform="matrix(1.00, 0.00, -0.00, -1.00, 776.7, 390.0)"> </text><text xml:space="preserve" font-family="Helvetica-Light" font-size="36.9" fill="#FEFFFF" transform="matrix(1.00, 0.00, -0.00, -1.00, 786.9, 390.0)">0</text><text xml:space="preserve" font-family="Helvetica-Light" font-size="36.9" fill="#FEFFFF" transform="matrix(1.00, 0.00, -0.00, -1.00, 807.4, 390.0)">.</text><text xml:space="preserve" font-family="Helvetica-Light" font-size="36.9" fill="#FEFFFF" transform="matrix(1.00, 0.00, -0.00, -1.00, 817.7, 390.0)">2</text><text xml:space="preserve" font-family="Helvetica-Light" font-size="36.9" fill="#FEFFFF" transform="matrix(1.00, 0.00, -0.00, -1.00, 838.2, 390.0)"> </text><text xml:space="preserve" font-family="Helvetica-Light" font-size="36.9" fill="#FEFFFF" transform="matrix(1.00, 0.00, -0.00, -1.00, 113.0, 347.0)">b</text><text xml:space="preserve" font-family="Helvetica-Light" font-size="36.9" fill="#FEFFFF" transform="matrix(1.00, 0.00, -0.00, -1.00, 135.5, 347.0)">r</text><text xml:space="preserve" font-family="Helvetica-Light" font-size="36.9" fill="#FEFFFF" transform="matrix(1.00, 0.00, -0.00, -1.00, 147.8, 347.0)">a</text><text xml:space="preserve" font-family="Helvetica-Light" font-size="36.9" fill="#FEFFFF" transform="matrix(1.00, 0.00, -0.00, -1.00, 168.3, 347.0)">n</text><text xml:space="preserve" font-family="Helvetica-Light" font-size="36.9" fill="#FEFFFF" transform="matrix(1.00, 0.00, -0.00, -1.00, 188.8, 347.0)">c</text><text xml:space="preserve" font-family="Helvetica-Light" font-size="36.9" fill="#FEFFFF" transform="matrix(1.00, 0.00, -0.00, -1.00, 209.3, 347.0)">h</text><text xml:space="preserve" font-family="Helvetica-Light" font-size="36.9" fill="#FEFFFF" transform="matrix(1.00, 0.00, -0.00, -1.00, 229.8, 347.0)">.</text><text xml:space="preserve" font-family="Helvetica-Light" font-size="36.9" fill="#FEFFFF" transform="matrix(1.00, 0.00, -0.00, -1.00, 240.0, 347.0)"> </text><text xml:space="preserve" font-family="Helvetica-Light" font-size="27.6" fill="#FEFFFF" transform="matrix(1.00, 0.00, -0.00, -1.00, 79.0, 266.4)">•</text><text xml:space="preserve" font-family="Helvetica-Light" font-size="36.9" fill="#FEFFFF" transform="matrix(1.00, 0.00, -0.00, -1.00, 113.0, 263.0)">P</text><text xml:space="preserve" font-family="Helvetica-Light" font-size="36.9" fill="#FEFFFF" transform="matrix(1.00, 0.00, -0.00, -1.00, 135.5, 263.0)">r</text><text xml:space="preserve" font-family="Helvetica-Light" font-size="36.9" fill="#FEFFFF" transform="matrix(1.00, 0.00, -0.00, -1.00, 147.1, 263.0)">e</text><text xml:space="preserve" font-family="Helvetica-Light" font-size="36.9" fill="#FEFFFF" transform="matrix(1.00, 0.00, -0.00, -1.00, 167.6, 263.0)">v</text><text xml:space="preserve" font-family="Helvetica-Light" font-size="36.9" fill="#FEFFFF" transform="matrix(1.00, 0.00, -0.00, -1.00, 186.1, 263.0)">i</text><text xml:space="preserve" font-family="Helvetica-Light" font-size="36.9" fill="#FEFFFF" transform="matrix(1.00, 0.00, -0.00, -1.00, 194.2, 263.0)">o</text><text xml:space="preserve" font-family="Helvetica-Light" font-size="36.9" fill="#FEFFFF" transform="matrix(1.00, 0.00, -0.00, -1.00, 214.7, 263.0)">u</text><text xml:space="preserve" font-family="Helvetica-Light" font-size="36.9" fill="#FEFFFF" transform="matrix(1.00, 0.00, -0.00, -1.00, 235.2, 263.0)">s</text><text xml:space="preserve" font-family="Helvetica-Light" font-size="36.9" fill="#FEFFFF" transform="matrix(1.00, 0.00, -0.00, -1.00, 253.7, 263.0)"> </text><text xml:space="preserve" font-family="Helvetica-Light" font-size="36.9" fill="#FEFFFF" transform="matrix(1.00, 0.00, -0.00, -1.00, 263.9, 263.0)">m</text><text xml:space="preserve" font-family="Helvetica-Light" font-size="36.9" fill="#FEFFFF" transform="matrix(1.00, 0.00, -0.00, -1.00, 294.6, 263.0)">a</text><text xml:space="preserve" font-family="Helvetica-Light" font-size="36.9" fill="#FEFFFF" transform="matrix(1.00, 0.00, -0.00, -1.00, 315.1, 263.0)">j</text><text xml:space="preserve" font-family="Helvetica-Light" font-size="36.9" fill="#FEFFFF" transform="matrix(1.00, 0.00, -0.00, -1.00, 323.3, 263.0)">o</text><text xml:space="preserve" font-family="Helvetica-Light" font-size="36.9" fill="#FEFFFF" transform="matrix(1.00, 0.00, -0.00, -1.00, 343.8, 263.0)">r</text><text xml:space="preserve" font-family="Helvetica-Light" font-size="36.9" fill="#FEFFFF" transform="matrix(1.00, 0.00, -0.00, -1.00, 356.1, 263.0)"> </text><text xml:space="preserve" font-family="Helvetica-Light" font-size="36.9" fill="#FEFFFF" transform="matrix(1.00, 0.00, -0.00, -1.00, 366.3, 263.0)">v</text><text xml:space="preserve" font-family="Helvetica-Light" font-size="36.9" fill="#FEFFFF" transform="matrix(1.00, 0.00, -0.00, -1.00, 384.7, 263.0)">e</text><text xml:space="preserve" font-family="Helvetica-Light" font-size="36.9" fill="#FEFFFF" transform="matrix(1.00, 0.00, -0.00, -1.00, 405.2, 263.0)">r</text><text xml:space="preserve" font-family="Helvetica-Light" font-size="36.9" fill="#FEFFFF" transform="matrix(1.00, 0.00, -0.00, -1.00, 417.5, 263.0)">s</text><text xml:space="preserve" font-family="Helvetica-Light" font-size="36.9" fill="#FEFFFF" transform="matrix(1.00, 0.00, -0.00, -1.00, 435.9, 263.0)">i</text><text xml:space="preserve" font-family="Helvetica-Light" font-size="36.9" fill="#FEFFFF" transform="matrix(1.00, 0.00, -0.00, -1.00, 444.1, 263.0)">o</text><text xml:space="preserve" font-family="Helvetica-Light" font-size="36.9" fill="#FEFFFF" transform="matrix(1.00, 0.00, -0.00, -1.00, 464.6, 263.0)">n</text><text xml:space="preserve" font-family="Helvetica-Light" font-size="36.9" fill="#FEFFFF" transform="matrix(1.00, 0.00, -0.00, -1.00, 485.1, 263.0)">,</text><text xml:space="preserve" font-family="Helvetica-Light" font-size="36.9" fill="#FEFFFF" transform="matrix(1.00, 0.00, -0.00, -1.00, 495.3, 263.0)"> </text><text xml:space="preserve" font-family="Helvetica-Light" font-size="36.9" fill="#FEFFFF" transform="matrix(1.00, 0.00, -0.00, -1.00, 505.6, 263.0)">b</text><text xml:space="preserve" font-family="Helvetica-Light" font-size="36.9" fill="#FEFFFF" transform="matrix(1.00, 0.00, -0.00, -1.00, 528.1, 263.0)">a</text><text xml:space="preserve" font-family="Helvetica-Light" font-size="36.9" fill="#FEFFFF" transform="matrix(1.00, 0.00, -0.00, -1.00, 548.6, 263.0)">s</text><text xml:space="preserve" font-family="Helvetica-Light" font-size="36.9" fill="#FEFFFF" transform="matrix(1.00, 0.00, -0.00, -1.00, 567.0, 263.0)">e</text><text xml:space="preserve" font-family="Helvetica-Light" font-size="36.9" fill="#FEFFFF" transform="matrix(1.00, 0.00, -0.00, -1.00, 587.5, 263.0)">d</text><text xml:space="preserve" font-family="Helvetica-Light" font-size="36.9" fill="#FEFFFF" transform="matrix(1.00, 0.00, -0.00, -1.00, 610.1, 263.0)"> </text><text xml:space="preserve" font-family="Helvetica-Light" font-size="36.9" fill="#FEFFFF" transform="matrix(1.00, 0.00, -0.00, -1.00, 620.3, 263.0)">o</text><text xml:space="preserve" font-family="Helvetica-Light" font-size="36.9" fill="#FEFFFF" transform="matrix(1.00, 0.00, -0.00, -1.00, 640.8, 263.0)">n</text><text xml:space="preserve" font-family="Helvetica-Light" font-size="36.9" fill="#FEFFFF" transform="matrix(1.00, 0.00, -0.00, -1.00, 661.3, 263.0)"> </text><text xml:space="preserve" font-family="Helvetica-Light" font-size="36.9" fill="#FEFFFF" transform="matrix(1.00, 0.00, -0.00, -1.00, 671.5, 263.0)">t</text><text xml:space="preserve" font-family="Helvetica-Light" font-size="36.9" fill="#FEFFFF" transform="matrix(1.00, 0.00, -0.00, -1.00, 681.8, 263.0)">m</text><text xml:space="preserve" font-family="Helvetica-Light" font-size="36.9" fill="#FEFFFF" transform="matrix(1.00, 0.00, -0.00, -1.00, 712.5, 263.0)"> </text><text xml:space="preserve" font-family="Helvetica-Light" font-size="36.9" fill="#FEFFFF" transform="matrix(1.00, 0.00, -0.00, -1.00, 722.7, 263.0)">i</text><text xml:space="preserve" font-family="Helvetica-Light" font-size="36.9" fill="#FEFFFF" transform="matrix(1.00, 0.00, -0.00, -1.00, 730.9, 263.0)">s</text><text xml:space="preserve" font-family="Helvetica-Light" font-size="36.9" fill="#FEFFFF" transform="matrix(1.00, 0.00, -0.00, -1.00, 749.4, 263.0)"> </text><text xml:space="preserve" font-family="Helvetica-Light" font-size="36.9" fill="#FEFFFF" transform="matrix(1.00, 0.00, -0.00, -1.00, 759.6, 263.0)">1</text><text xml:space="preserve" font-family="Helvetica-Light" font-size="36.9" fill="#FEFFFF" transform="matrix(1.00, 0.00, -0.00, -1.00, 780.1, 263.0)">.</text><text xml:space="preserve" font-family="Helvetica-Light" font-size="36.9" fill="#FEFFFF" transform="matrix(1.00, 0.00, -0.00, -1.00, 790.3, 263.0)">7</text><text xml:space="preserve" font-family="Helvetica-Light" font-size="36.9" fill="#FEFFFF" transform="matrix(1.00, 0.00, -0.00, -1.00, 810.8, 263.0)">.</text><text xml:space="preserve" font-family="Helvetica-Light" font-size="36.9" fill="#FEFFFF" transform="matrix(1.00, 0.00, -0.00, -1.00, 821.1, 263.0)">0</text><text xml:space="preserve" font-family="LucidaGrande" font-size="36.9" fill="#FEFFFF" transform="matrix(1.00, 0.00, -0.00, -1.00, 841.6, 263.0)"> </text><text xml:space="preserve" font-family="Helvetica-Light" font-size="36.9" fill="#FEFFFF" transform="matrix(1.00, 0.00, -0.00, -1.00, 113.0, 220.0)">h</text><text xml:space="preserve" font-family="Helvetica-Light" font-size="36.9" fill="#FEFFFF" transform="matrix(1.00, 0.00, -0.00, -1.00, 133.5, 220.0)">t</text><text xml:space="preserve" font-family="Helvetica-Light" font-size="36.9" fill="#FEFFFF" transform="matrix(1.00, 0.00, -0.00, -1.00, 143.7, 220.0)">t</text><text xml:space="preserve" font-family="Helvetica-Light" font-size="36.9" fill="#FEFFFF" transform="matrix(1.00, 0.00, -0.00, -1.00, 154.0, 220.0)">p</text><text xml:space="preserve" font-family="Helvetica-Light" font-size="36.9" fill="#FEFFFF" transform="matrix(1.00, 0.00, -0.00, -1.00, 176.5, 220.0)">s</text><text xml:space="preserve" font-family="Helvetica-Light" font-size="36.9" fill="#FEFFFF" transform="matrix(1.00, 0.00, -0.00, -1.00, 194.9, 220.0)">:</text><text xml:space="preserve" font-family="Helvetica-Light" font-size="36.9" fill="#FEFFFF" transform="matrix(1.00, 0.00, -0.00, -1.00, 205.2, 220.0)">/</text><text xml:space="preserve" font-family="Helvetica-Light" font-size="36.9" fill="#FEFFFF" transform="matrix(1.00, 0.00, -0.00, -1.00, 215.4, 220.0)">/</text><text xml:space="preserve" font-family="Helvetica-Light" font-size="36.9" fill="#FEFFFF" transform="matrix(1.00, 0.00, -0.00, -1.00, 225.7, 220.0)">g</text><text xml:space="preserve" font-family="Helvetica-Light" font-size="36.9" fill="#FEFFFF" transform="matrix(1.00, 0.00, -0.00, -1.00, 248.2, 220.0)">i</text><text xml:space="preserve" font-family="Helvetica-Light" font-size="36.9" fill="#FEFFFF" transform="matrix(1.00, 0.00, -0.00, -1.00, 256.4, 220.0)">t</text><text xml:space="preserve" font-family="Helvetica-Light" font-size="36.9" fill="#FEFFFF" transform="matrix(1.00, 0.00, -0.00, -1.00, 266.6, 220.0)">h</text><text xml:space="preserve" font-family="Helvetica-Light" font-size="36.9" fill="#FEFFFF" transform="matrix(1.00, 0.00, -0.00, -1.00, 287.1, 220.0)">u</text><text xml:space="preserve" font-family="Helvetica-Light" font-size="36.9" fill="#FEFFFF" transform="matrix(1.00, 0.00, -0.00, -1.00, 307.6, 220.0)">b</text><text xml:space="preserve" font-family="Helvetica-Light" font-size="36.9" fill="#FEFFFF" transform="matrix(1.00, 0.00, -0.00, -1.00, 330.1, 220.0)">.</text><text xml:space="preserve" font-family="Helvetica-Light" font-size="36.9" fill="#FEFFFF" transform="matrix(1.00, 0.00, -0.00, -1.00, 340.4, 220.0)">c</text><text xml:space="preserve" font-family="Helvetica-Light" font-size="36.9" fill="#FEFFFF" transform="matrix(1.00, 0.00, -0.00, -1.00, 360.9, 220.0)">o</text><text xml:space="preserve" font-family="Helvetica-Light" font-size="36.9" fill="#FEFFFF" transform="matrix(1.00, 0.00, -0.00, -1.00, 381.4, 220.0)">m</text><text xml:space="preserve" font-family="Helvetica-Light" font-size="36.9" fill="#FEFFFF" transform="matrix(1.00, 0.00, -0.00, -1.00, 412.1, 220.0)">/</text><text xml:space="preserve" font-family="Helvetica-Light" font-size="36.9" fill="#FEFFFF" transform="matrix(1.00, 0.00, -0.00, -1.00, 422.3, 220.0)">T</text><text xml:space="preserve" font-family="Helvetica-Light" font-size="36.9" fill="#FEFFFF" transform="matrix(1.00, 0.00, -0.00, -1.00, 438.7, 220.0)">o</text><text xml:space="preserve" font-family="Helvetica-Light" font-size="36.9" fill="#FEFFFF" transform="matrix(1.00, 0.00, -0.00, -1.00, 459.2, 220.0)">m</text><text xml:space="preserve" font-family="Helvetica-Light" font-size="36.9" fill="#FEFFFF" transform="matrix(1.00, 0.00, -0.00, -1.00, 489.9, 220.0)">m</text><text xml:space="preserve" font-family="Helvetica-Light" font-size="36.9" fill="#FEFFFF" transform="matrix(1.00, 0.00, -0.00, -1.00, 520.6, 220.0)">y</text><text xml:space="preserve" font-family="Helvetica-Light" font-size="36.9" fill="#FEFFFF" transform="matrix(1.00, 0.00, -0.00, -1.00, 539.1, 220.0)">J</text><text xml:space="preserve" font-family="Helvetica-Light" font-size="36.9" fill="#FEFFFF" transform="matrix(1.00, 0.00, -0.00, -1.00, 557.5, 220.0)">o</text><text xml:space="preserve" font-family="Helvetica-Light" font-size="36.9" fill="#FEFFFF" transform="matrix(1.00, 0.00, -0.00, -1.00, 578.0, 220.0)">n</text><text xml:space="preserve" font-family="Helvetica-Light" font-size="36.9" fill="#FEFFFF" transform="matrix(1.00, 0.00, -0.00, -1.00, 598.5, 220.0)">e</text><text xml:space="preserve" font-family="Helvetica-Light" font-size="36.9" fill="#FEFFFF" transform="matrix(1.00, 0.00, -0.00, -1.00, 619.0, 220.0)">s</text><text xml:space="preserve" font-family="Helvetica-Light" font-size="36.9" fill="#FEFFFF" transform="matrix(1.00, 0.00, -0.00, -1.00, 637.4, 220.0)">/</text><text xml:space="preserve" font-family="Helvetica-Light" font-size="36.9" fill="#FEFFFF" transform="matrix(1.00, 0.00, -0.00, -1.00, 647.7, 220.0)">t</text><text xml:space="preserve" font-family="Helvetica-Light" font-size="36.9" fill="#FEFFFF" transform="matrix(1.00, 0.00, -0.00, -1.00, 657.9, 220.0)">e</text><text xml:space="preserve" font-family="Helvetica-Light" font-size="36.9" fill="#FEFFFF" transform="matrix(1.00, 0.00, -0.00, -1.00, 678.4, 220.0)">x</text><text xml:space="preserve" font-family="Helvetica-Light" font-size="36.9" fill="#FEFFFF" transform="matrix(1.00, 0.00, -0.00, -1.00, 696.8, 220.0)">t</text><text xml:space="preserve" font-family="Helvetica-Light" font-size="36.9" fill="#FEFFFF" transform="matrix(1.00, 0.00, -0.00, -1.00, 707.1, 220.0)">m</text><text xml:space="preserve" font-family="Helvetica-Light" font-size="36.9" fill="#FEFFFF" transform="matrix(1.00, 0.00, -0.00, -1.00, 737.8, 220.0)">i</text><text xml:space="preserve" font-family="Helvetica-Light" font-size="36.9" fill="#FEFFFF" transform="matrix(1.00, 0.00, -0.00, -1.00, 746.0, 220.0)">n</text><text xml:space="preserve" font-family="Helvetica-Light" font-size="36.9" fill="#FEFFFF" transform="matrix(1.00, 0.00, -0.00, -1.00, 766.5, 220.0)">e</text><text xml:space="preserve" font-family="Helvetica-Light" font-size="36.9" fill="#FEFFFF" transform="matrix(1.00, 0.00, -0.00, -1.00, 786.9, 220.0)">R</text><text xml:space="preserve" font-family="Helvetica-Light" font-size="36.9" fill="#FEFFFF" transform="matrix(1.00, 0.00, -0.00, -1.00, 811.5, 220.0)">/</text><g><clipPath id="clip-80"><path d="M 112.0 215.3 L 821.7 215.3 L 821.7 219.2 L 112.0 219.2 Z M 112.0 215.3 "></path></clipPath><g clip-path="url(#clip-80)"><path d="M 38.0 346.8 L 746.7 346.8 " fill="none" stroke="#FEFFFF" stroke-width="1.84" stroke-miterlimit="0.00" transform="matrix(1.00, 0.00, 0.00, -1.00, 75.0, 564.0)"></path></g></g><text xml:space="preserve" font-family="Helvetica-Light" font-size="36.9" fill="#FEFFFF" transform="matrix(1.00, 0.00, -0.00, -1.00, 113.0, 177.0)">r</text><text xml:space="preserve" font-family="Helvetica-Light" font-size="36.9" fill="#FEFFFF" transform="matrix(1.00, 0.00, -0.00, -1.00, 124.6, 177.0)">e</text><text xml:space="preserve" font-family="Helvetica-Light" font-size="36.9" fill="#FEFFFF" transform="matrix(1.00, 0.00, -0.00, -1.00, 145.1, 177.0)">l</text><text xml:space="preserve" font-family="Helvetica-Light" font-size="36.9" fill="#FEFFFF" transform="matrix(1.00, 0.00, -0.00, -1.00, 153.3, 177.0)">e</text><text xml:space="preserve" font-family="Helvetica-Light" font-size="36.9" fill="#FEFFFF" transform="matrix(1.00, 0.00, -0.00, -1.00, 173.8, 177.0)">a</text><text xml:space="preserve" font-family="Helvetica-Light" font-size="36.9" fill="#FEFFFF" transform="matrix(1.00, 0.00, -0.00, -1.00, 194.3, 177.0)">s</text><text xml:space="preserve" font-family="Helvetica-Light" font-size="36.9" fill="#FEFFFF" transform="matrix(1.00, 0.00, -0.00, -1.00, 212.7, 177.0)">e</text><text xml:space="preserve" font-family="Helvetica-Light" font-size="36.9" fill="#FEFFFF" transform="matrix(1.00, 0.00, -0.00, -1.00, 233.2, 177.0)">s</text><text xml:space="preserve" font-family="Helvetica-Light" font-size="36.9" fill="#FEFFFF" transform="matrix(1.00, 0.00, -0.00, -1.00, 251.6, 177.0)">/</text><text xml:space="preserve" font-family="Helvetica-Light" font-size="36.9" fill="#FEFFFF" transform="matrix(1.00, 0.00, -0.00, -1.00, 261.9, 177.0)">t</text><text xml:space="preserve" font-family="Helvetica-Light" font-size="36.9" fill="#FEFFFF" transform="matrix(1.00, 0.00, -0.00, -1.00, 272.1, 177.0)">a</text><text xml:space="preserve" font-family="Helvetica-Light" font-size="36.9" fill="#FEFFFF" transform="matrix(1.00, 0.00, -0.00, -1.00, 292.6, 177.0)">g</text><text xml:space="preserve" font-family="Helvetica-Light" font-size="36.9" fill="#FEFFFF" transform="matrix(1.00, 0.00, -0.00, -1.00, 315.1, 177.0)">/</text><text xml:space="preserve" font-family="Helvetica-Light" font-size="36.9" fill="#FEFFFF" transform="matrix(1.00, 0.00, -0.00, -1.00, 325.4, 177.0)">v</text><text xml:space="preserve" font-family="Helvetica-Light" font-size="36.9" fill="#FEFFFF" transform="matrix(1.00, 0.00, -0.00, -1.00, 343.8, 177.0)">1</text><text xml:space="preserve" font-family="Helvetica-Light" font-size="36.9" fill="#FEFFFF" transform="matrix(1.00, 0.00, -0.00, -1.00, 364.3, 177.0)">.</text><text xml:space="preserve" font-family="Helvetica-Light" font-size="36.9" fill="#FEFFFF" transform="matrix(1.00, 0.00, -0.00, -1.00, 374.6, 177.0)">7</text><text xml:space="preserve" font-family="Helvetica-Light" font-size="36.9" fill="#FEFFFF" transform="matrix(1.00, 0.00, -0.00, -1.00, 395.1, 177.0)">.</text><text xml:space="preserve" font-family="Helvetica-Light" font-size="36.9" fill="#FEFFFF" transform="matrix(1.00, 0.00, -0.00, -1.00, 405.3, 177.0)">0</text><text xml:space="preserve" font-family="LucidaGrande" font-size="36.9" fill="#FEFFFF" transform="matrix(1.00, 0.00, -0.00, -1.00, 425.8, 177.0)"> </text><g><clipPath id="clip-81"><path d="M 112.0 172.3 L 425.7 172.3 L 425.7 176.2 L 112.0 176.2 Z M 112.0 172.3 "></path></clipPath><g clip-path="url(#clip-81)"><path d="M 38.0 389.8 L 350.7 389.8 " fill="none" stroke="#FEFFFF" stroke-width="1.84" stroke-miterlimit="0.00" transform="matrix(1.00, 0.00, 0.00, -1.00, 75.0, 564.0)"></path></g></g><text xml:space="preserve" font-family="Helvetica-Light" font-size="36.9" fill="#FEFFFF" transform="matrix(1.00, 0.00, -0.00, -1.00, 113.0, 134.0)">W</text><text xml:space="preserve" font-family="Helvetica-Light" font-size="36.9" fill="#FEFFFF" transform="matrix(1.00, 0.00, -0.00, -1.00, 144.4, 134.0)">a</text><text xml:space="preserve" font-family="Helvetica-Light" font-size="36.9" fill="#FEFFFF" transform="matrix(1.00, 0.00, -0.00, -1.00, 164.9, 134.0)">r</text><text xml:space="preserve" font-family="Helvetica-Light" font-size="36.9" fill="#FEFFFF" transform="matrix(1.00, 0.00, -0.00, -1.00, 177.8, 134.0)">n</text><text xml:space="preserve" font-family="Helvetica-Light" font-size="36.9" fill="#FEFFFF" transform="matrix(1.00, 0.00, -0.00, -1.00, 198.3, 134.0)">i</text><text xml:space="preserve" font-family="Helvetica-Light" font-size="36.9" fill="#FEFFFF" transform="matrix(1.00, 0.00, -0.00, -1.00, 206.5, 134.0)">n</text><text xml:space="preserve" font-family="Helvetica-Light" font-size="36.9" fill="#FEFFFF" transform="matrix(1.00, 0.00, -0.00, -1.00, 227.0, 134.0)">g</text><text xml:space="preserve" font-family="Helvetica-Light" font-size="36.9" fill="#FEFFFF" transform="matrix(1.00, 0.00, -0.00, -1.00, 249.5, 134.0)">:</text><text xml:space="preserve" font-family="Helvetica-Light" font-size="36.9" fill="#FEFFFF" transform="matrix(1.00, 0.00, -0.00, -1.00, 259.8, 134.0)"> </text><text xml:space="preserve" font-family="Helvetica-Light" font-size="36.9" fill="#FEFFFF" transform="matrix(1.00, 0.00, -0.00, -1.00, 270.0, 134.0)">v</text><text xml:space="preserve" font-family="Helvetica-Light" font-size="36.9" fill="#FEFFFF" transform="matrix(1.00, 0.00, -0.00, -1.00, 288.5, 134.0)">2</text><text xml:space="preserve" font-family="Helvetica-Light" font-size="36.9" fill="#FEFFFF" transform="matrix(1.00, 0.00, -0.00, -1.00, 308.9, 134.0)">.</text><text xml:space="preserve" font-family="Helvetica-Light" font-size="36.9" fill="#FEFFFF" transform="matrix(1.00, 0.00, -0.00, -1.00, 319.2, 134.0)">0</text><text xml:space="preserve" font-family="Helvetica-Light" font-size="36.9" fill="#FEFFFF" transform="matrix(1.00, 0.00, -0.00, -1.00, 339.7, 134.0)">.</text><text xml:space="preserve" font-family="Helvetica-Light" font-size="36.9" fill="#FEFFFF" transform="matrix(1.00, 0.00, -0.00, -1.00, 349.9, 134.0)">x</text><text xml:space="preserve" font-family="Helvetica-Light" font-size="36.9" fill="#FEFFFF" transform="matrix(1.00, 0.00, -0.00, -1.00, 368.4, 134.0)"> </text><text xml:space="preserve" font-family="Helvetica-Light" font-size="36.9" fill="#FEFFFF" transform="matrix(1.00, 0.00, -0.00, -1.00, 378.6, 134.0)">h</text><text xml:space="preserve" font-family="Helvetica-Light" font-size="36.9" fill="#FEFFFF" transform="matrix(1.00, 0.00, -0.00, -1.00, 399.1, 134.0)">a</text><text xml:space="preserve" font-family="Helvetica-Light" font-size="36.9" fill="#FEFFFF" transform="matrix(1.00, 0.00, -0.00, -1.00, 419.6, 134.0)">s</text><text xml:space="preserve" font-family="Helvetica-Light" font-size="36.9" fill="#FEFFFF" transform="matrix(1.00, 0.00, -0.00, -1.00, 438.0, 134.0)"> </text><text xml:space="preserve" font-family="Helvetica-Light" font-size="36.9" fill="#FEFFFF" transform="matrix(1.00, 0.00, -0.00, -1.00, 448.3, 134.0)">m</text><text xml:space="preserve" font-family="Helvetica-Light" font-size="36.9" fill="#FEFFFF" transform="matrix(1.00, 0.00, -0.00, -1.00, 479.0, 134.0)">u</text><text xml:space="preserve" font-family="Helvetica-Light" font-size="36.9" fill="#FEFFFF" transform="matrix(1.00, 0.00, -0.00, -1.00, 499.5, 134.0)">c</text><text xml:space="preserve" font-family="Helvetica-Light" font-size="36.9" fill="#FEFFFF" transform="matrix(1.00, 0.00, -0.00, -1.00, 520.0, 134.0)">h</text><text xml:space="preserve" font-family="Helvetica-Light" font-size="36.9" fill="#FEFFFF" transform="matrix(1.00, 0.00, -0.00, -1.00, 540.5, 134.0)"> </text><text xml:space="preserve" font-family="Helvetica-Light" font-size="36.9" fill="#FEFFFF" transform="matrix(1.00, 0.00, -0.00, -1.00, 550.7, 134.0)">m</text><text xml:space="preserve" font-family="Helvetica-Light" font-size="36.9" fill="#FEFFFF" transform="matrix(1.00, 0.00, -0.00, -1.00, 581.4, 134.0)">o</text><text xml:space="preserve" font-family="Helvetica-Light" font-size="36.9" fill="#FEFFFF" transform="matrix(1.00, 0.00, -0.00, -1.00, 601.9, 134.0)">r</text><text xml:space="preserve" font-family="Helvetica-Light" font-size="36.9" fill="#FEFFFF" transform="matrix(1.00, 0.00, -0.00, -1.00, 613.5, 134.0)">e</text><text xml:space="preserve" font-family="Helvetica-Light" font-size="36.9" fill="#FEFFFF" transform="matrix(1.00, 0.00, -0.00, -1.00, 634.0, 134.0)"> </text><text xml:space="preserve" font-family="Helvetica-Light" font-size="36.9" fill="#FEFFFF" transform="matrix(1.00, 0.00, -0.00, -1.00, 644.3, 134.0)">f</text><text xml:space="preserve" font-family="Helvetica-Light" font-size="36.9" fill="#FEFFFF" transform="matrix(1.00, 0.00, -0.00, -1.00, 654.5, 134.0)">u</text><text xml:space="preserve" font-family="Helvetica-Light" font-size="36.9" fill="#FEFFFF" transform="matrix(1.00, 0.00, -0.00, -1.00, 675.0, 134.0)">n</text><text xml:space="preserve" font-family="Helvetica-Light" font-size="36.9" fill="#FEFFFF" transform="matrix(1.00, 0.00, -0.00, -1.00, 695.5, 134.0)">c</text><text xml:space="preserve" font-family="Helvetica-Light" font-size="36.9" fill="#FEFFFF" transform="matrix(1.00, 0.00, -0.00, -1.00, 716.0, 134.0)">t</text><text xml:space="preserve" font-family="Helvetica-Light" font-size="36.9" fill="#FEFFFF" transform="matrix(1.00, 0.00, -0.00, -1.00, 726.2, 134.0)">i</text><text xml:space="preserve" font-family="Helvetica-Light" font-size="36.9" fill="#FEFFFF" transform="matrix(1.00, 0.00, -0.00, -1.00, 734.4, 134.0)">o</text><text xml:space="preserve" font-family="Helvetica-Light" font-size="36.9" fill="#FEFFFF" transform="matrix(1.00, 0.00, -0.00, -1.00, 754.9, 134.0)">n</text><text xml:space="preserve" font-family="Helvetica-Light" font-size="36.9" fill="#FEFFFF" transform="matrix(1.00, 0.00, -0.00, -1.00, 775.4, 134.0)">a</text><text xml:space="preserve" font-family="Helvetica-Light" font-size="36.9" fill="#FEFFFF" transform="matrix(1.00, 0.00, -0.00, -1.00, 795.9, 134.0)">l</text><text xml:space="preserve" font-family="Helvetica-Light" font-size="36.9" fill="#FEFFFF" transform="matrix(1.00, 0.00, -0.00, -1.00, 804.1, 134.0)">i</text><text xml:space="preserve" font-family="Helvetica-Light" font-size="36.9" fill="#FEFFFF" transform="matrix(1.00, 0.00, -0.00, -1.00, 812.3, 134.0)">t</text><text xml:space="preserve" font-family="Helvetica-Light" font-size="36.9" fill="#FEFFFF" transform="matrix(1.00, 0.00, -0.00, -1.00, 822.5, 134.0)">y</text><text xml:space="preserve" font-family="LucidaGrande" font-size="36.9" fill="#FEFFFF" transform="matrix(1.00, 0.00, -0.00, -1.00, 840.9, 134.0)"> </text></g></svg>