<?xml version="1.0" encoding="UTF-8" standalone="no"?><svg xmlns="http://www.w3.org/2000/svg" xmlns:xlink="http://www.w3.org/1999/xlink" clip-rule="evenodd" stroke-miterlimit="4.00" viewBox="0 0 1024 768"><desc>SVG generated by Keynote</desc><defs><linearGradient id="gradSh1.1" x1="1702754.0" y1="-9076.0" x2="1702754.0" y2="1093459.0" gradientUnits="userSpaceOnUse" gradientTransform="matrix(-0.00, 0.00, 0.00, -0.00, 1024.0, 121.4)"><stop offset="0.00000" stop-color="#A75200"></stop><stop offset="0.15176" stop-color="#A75301"></stop><stop offset="0.15249" stop-color="#A85301"></stop><stop offset="0.15323" stop-color="#A85302"></stop><stop offset="0.15616" stop-color="#A95403"></stop><stop offset="0.15762" stop-color="#A95404"></stop><stop offset="0.15836" stop-color="#A95504"></stop><stop offset="0.16569" stop-color="#AB5708"></stop><stop offset="0.16716" stop-color="#AC5708"></stop><stop offset="0.18255" stop-color="#B05C10"></stop><stop offset="0.18328" stop-color="#B05D10"></stop><stop offset="0.21554" stop-color="#B96720"></stop><stop offset="0.21848" stop-color="#BA6821"></stop><stop offset="0.28152" stop-color="#CB7C40"></stop><stop offset="0.28446" stop-color="#CC7D41"></stop><stop offset="0.41422" stop-color="#EFA680"></stop><stop offset="0.41569" stop-color="#F0A680"></stop><stop offset="1.00000" stop-color="#F9B191"></stop></linearGradient></defs><g transform="matrix(1.00, 0.00, -0.00, -1.00, 0.0, 768.0)"><path d="M 0.0 768.0 L 1024.0 768.0 L 1024.0 0.0 L 0.0 0.0 Z M 0.0 768.0 " fill="#000000"></path><g><clipPath id="clip-45"><path d="M 1.0 0.0 L 1024.0 0.0 L 1024.0 768.0 L 1.0 768.0 Z M 1.0 0.0 "></path></clipPath><g clip-path="url(#clip-45)"><path d="M 1.0 768.0 L 1024.0 768.0 L 1024.0 0.0 L 1.0 0.0 Z M 1.0 768.0 " fill="#FEFFFF"></path><path d="M 1.0 768.0 L 1024.0 768.0 L 1024.0 0.0 L 1.0 0.0 Z M 1.0 768.0 " fill="#FEFFFF"></path><path d="M 964.3 101.6 L 411.6 -0.9 L 553.9 -0.9 L 964.3 102.3 " fill="#CACACA" fill-opacity="0.40"></path><path d="M 964.3 102.9 L 551.4 -1.1 L 638.3 -1.6 L 963.4 102.2 " fill="#000000"></path><image xlink:href="../../4B0F931E-B520-44BA-B0AB-82FB4D50C446/assets/674ECAB07AB4E9870FE909DCF36E1241.png" width="180.00" height="58.00" transform="matrix(2.13, 0.00, -0.00, -2.13, 640.4, 123.7)"></image></g></g><g><clipPath id="clip-46"><path d="M 1024.3 120.4 L 643.3 -1.0 L 642.7 1.0 L 1023.7 122.5 L 1024.3 120.4 Z M 1024.3 120.4 "></path></clipPath><g clip-path="url(#clip-46)"><g><clipPath id="clip-47"><path d="M 1.0 0.0 L 1024.0 0.0 L 1024.0 768.0 L 1.0 768.0 Z M 1.0 0.0 "></path></clipPath><g clip-path="url(#clip-47)"><path d="M 1.0 0.0 L 1024.0 0.0 L 1024.0 768.0 L 1.0 768.0 Z M 1.0 0.0 " fill="url(#gradSh1.1)"></path></g></g></g></g><g><clipPath id="clip-48"><path d="M 1.0 62.8 L 205.5 62.8 L 205.5 2.3 L 1.0 2.3 Z M 1.0 62.8 "></path></clipPath><g clip-path="url(#clip-48)"><g><clipPath id="clip-49"><path d="M 1.0 2.3 L 205.5 2.3 L 205.5 62.8 L 1.0 62.8 Z M 1.0 2.3 "></path></clipPath><g clip-path="url(#clip-49)"><image xlink:href="../../4B0F931E-B520-44BA-B0AB-82FB4D50C446/assets/8BD25959BF250F44BBD3F70CC691A670.png" width="440.00" height="130.00" transform="matrix(0.46, 0.00, -0.00, -0.47, 1.0, 62.8)"></image></g></g></g></g><g><clipPath id="clip-50"><path d="M 1.0 0.0 L 1024.0 0.0 L 1024.0 768.0 L 1.0 768.0 Z M 1.0 0.0 "></path></clipPath><g clip-path="url(#clip-50)"><path d="M -11430.0 0.0 L 0.0 -11430.1 L 4876800.0 -11430.1 L 4888230.0 0.0 L 4888230.0 4724400.0 L 4876800.0 4735830.0 L 0.0 4735830.0 L -11430.0 4724400.0 Z M -11430.0 0.0 " fill="none" stroke="#919191" stroke-width="34290.00" stroke-miterlimit="0.00" stroke-linejoin="round" transform="matrix(0.00, 0.00, 0.00, -0.00, 248.2, 708.3)"></path><path d="M 22859.9 22860.2 L 4853940.0 22860.2 L 4853940.0 4701540.0 L 22859.9 4701540.0 Z M 22859.9 22860.2 " fill="none" stroke="#919191" stroke-width="11430.00" stroke-miterlimit="0.00" stroke-linejoin="round" transform="matrix(0.00, 0.00, 0.00, -0.00, 248.2, 708.3)"></path></g></g><g><clipPath id="clip-51"><path d="M 35.1 238.4 L 220.9 238.4 L 220.9 188.3 L 35.1 188.3 Z M 35.1 238.4 "></path></clipPath><g clip-path="url(#clip-51)"><g><clipPath id="clip-52"><path d="M 35.1 188.3 L 220.9 188.3 L 220.9 238.4 L 35.1 238.4 Z M 35.1 188.3 "></path></clipPath><g clip-path="url(#clip-52)"><image xlink:href="../../4B0F931E-B520-44BA-B0AB-82FB4D50C446/assets/1B84FDE93FF5FDA2081BD26541CA0F7A.png" width="760.00" height="182.00" transform="matrix(0.58, 0.00, -0.00, -0.58, 12.7, 272.0)"></image></g></g></g></g><g><clipPath id="clip-53"><path d="M 1.0 0.0 L 1024.0 0.0 L 1024.0 768.0 L 1.0 768.0 Z M 1.0 0.0 "></path></clipPath><g clip-path="url(#clip-53)"><text xml:space="preserve" font-family="LucidaSansUnicode" font-size="18.0" fill="#000000" transform="matrix(1.42, 0.00, -0.00, -1.42, 545.1, 144.0)">A</text><text xml:space="preserve" font-family="LucidaSansUnicode" font-size="18.0" fill="#000000" transform="matrix(1.42, 0.00, -0.00, -1.42, 562.7, 144.0)">U</text><text xml:space="preserve" font-family="LucidaSansUnicode" font-size="18.0" fill="#000000" transform="matrix(1.42, 0.00, -0.00, -1.42, 580.4, 144.0)">T</text><text xml:space="preserve" font-family="LucidaSansUnicode" font-size="18.0" fill="#000000" transform="matrix(1.42, 0.00, -0.00, -1.42, 596.6, 144.0)">O</text><text xml:space="preserve" font-family="LucidaSansUnicode" font-size="18.0" fill="#000000" transform="matrix(1.42, 0.00, -0.00, -1.42, 616.5, 144.0)"> </text><text xml:space="preserve" font-family="LucidaSansUnicode" font-size="18.0" fill="#000000" transform="matrix(1.42, 0.00, -0.00, -1.42, 624.6, 144.0)">A</text><text xml:space="preserve" font-family="LucidaSansUnicode" font-size="18.0" fill="#000000" transform="matrix(1.42, 0.00, -0.00, -1.42, 642.2, 144.0)">L</text><text xml:space="preserve" font-family="LucidaSansUnicode" font-size="18.0" fill="#000000" transform="matrix(1.42, 0.00, -0.00, -1.42, 655.8, 144.0)">L</text><text xml:space="preserve" font-family="LucidaSansUnicode" font-size="18.0" fill="#000000" transform="matrix(1.42, 0.00, -0.00, -1.42, 669.5, 144.0)">I</text><text xml:space="preserve" font-family="LucidaSansUnicode" font-size="18.0" fill="#000000" transform="matrix(1.42, 0.00, -0.00, -1.42, 676.9, 144.0)">A</text><text xml:space="preserve" font-family="LucidaSansUnicode" font-size="18.0" fill="#000000" transform="matrix(1.42, 0.00, -0.00, -1.42, 694.5, 144.0)">N</text><text xml:space="preserve" font-family="LucidaSansUnicode" font-size="18.0" fill="#000000" transform="matrix(1.42, 0.00, -0.00, -1.42, 713.4, 144.0)">C</text><text xml:space="preserve" font-family="LucidaSansUnicode" font-size="18.0" fill="#000000" transform="matrix(1.42, 0.00, -0.00, -1.42, 731.1, 144.0)">E</text><text xml:space="preserve" font-family="LucidaSansUnicode" font-size="18.0" fill="#000000" transform="matrix(1.42, 0.00, -0.00, -1.42, 744.9, 144.0)"> </text><path d="M 545.2 141.2 L 745.5 141.2 L 745.5 139.7 L 545.2 139.7 Z M 545.2 141.2 " fill="#000000"></path></g></g><g><clipPath id="clip-54"><path d="M 77.7 514.2 L 180.0 514.2 L 180.0 411.8 L 77.7 411.8 Z M 77.7 514.2 "></path></clipPath><g clip-path="url(#clip-54)"><g><clipPath id="clip-55"><path d="M 77.7 411.8 L 180.0 411.8 L 180.0 514.2 L 77.7 514.2 Z M 77.7 411.8 "></path></clipPath><g clip-path="url(#clip-55)"><image xlink:href="../../4B0F931E-B520-44BA-B0AB-82FB4D50C446/assets/EF410B938465AB79D91B88D19D5C82F5.png" width="159.00" height="159.00" transform="matrix(0.64, 0.00, -0.00, -0.64, 77.7, 514.2)"></image></g></g></g></g><g><clipPath id="clip-56"><path d="M 857.8 597.3 L 955.8 597.3 L 955.8 499.2 L 857.8 499.2 Z M 857.8 597.3 "></path></clipPath><g clip-path="url(#clip-56)"><g><clipPath id="clip-57"><path d="M 857.8 499.2 L 955.8 499.2 L 955.8 597.3 L 857.8 597.3 Z M 857.8 499.2 "></path></clipPath><g clip-path="url(#clip-57)"><image xlink:href="../../4B0F931E-B520-44BA-B0AB-82FB4D50C446/assets/BDD51D0267E44E14F832880159629E18.jpeg" width="60.00" height="60.00" transform="matrix(1.63, 0.00, -0.00, -1.64, 857.8, 597.3)"></image></g></g></g></g><g><clipPath id="clip-58"><path d="M 69.2 657.1 L 188.6 657.1 L 188.6 565.5 L 69.2 565.5 Z M 69.2 657.1 "></path></clipPath><g clip-path="url(#clip-58)"><g><clipPath id="clip-59"><path d="M 69.2 565.5 L 188.6 565.5 L 188.6 657.1 L 69.2 657.1 Z M 69.2 565.5 "></path></clipPath><g clip-path="url(#clip-59)"><image xlink:href="../../4B0F931E-B520-44BA-B0AB-82FB4D50C446/assets/9949243E3BADF3C19FBF3A5ECC157712.jpeg" width="257.00" height="197.00" transform="matrix(0.46, 0.00, -0.00, -0.46, 69.2, 657.1)"></image></g></g></g></g><g><clipPath id="clip-60"><path d="M 538.1 139.2 L 751.2 139.2 L 751.2 48.7 L 538.1 48.7 Z M 538.1 139.2 "></path></clipPath><g clip-path="url(#clip-60)"><g><clipPath id="clip-61"><path d="M 538.1 48.7 L 751.2 48.7 L 751.2 139.2 L 538.1 139.2 Z M 538.1 48.7 "></path></clipPath><g clip-path="url(#clip-61)"><image xlink:href="../../4B0F931E-B520-44BA-B0AB-82FB4D50C446/assets/1A9C80B3F47F88212B6F7DD4D7F18450.png" width="100.00" height="42.00" transform="matrix(2.13, 0.00, -0.00, -2.15, 538.1, 139.2)"></image></g></g></g></g><g><clipPath id="clip-62"><path d="M 810.9 691.2 L 996.9 691.2 L 996.9 622.9 L 810.9 622.9 Z M 810.9 691.2 "></path></clipPath><g clip-path="url(#clip-62)"><g><clipPath id="clip-63"><path d="M 810.9 622.9 L 996.9 622.9 L 996.9 691.2 L 810.9 691.2 Z M 810.9 622.9 "></path></clipPath><g clip-path="url(#clip-63)"><image xlink:href="../../4B0F931E-B520-44BA-B0AB-82FB4D50C446/assets/11ED4406CF8C3A01771964AF8C0A5A6B.png" width="240.00" height="88.00" transform="matrix(0.77, 0.00, -0.00, -0.78, 810.9, 691.2)"></image></g></g></g></g><g><clipPath id="clip-64"><path d="M 56.4 391.0 L 201.3 391.0 L 201.3 266.3 L 56.4 266.3 Z M 56.4 391.0 "></path></clipPath><g clip-path="url(#clip-64)"><g><clipPath id="clip-65"><path d="M 56.4 266.3 L 201.3 266.3 L 201.3 391.0 L 56.4 391.0 Z M 56.4 266.3 "></path></clipPath><g clip-path="url(#clip-65)"><image xlink:href="../../4B0F931E-B520-44BA-B0AB-82FB4D50C446/assets/558C588AD5C55AB20172E39DF08EF73E.jpeg" width="350.00" height="301.00" transform="matrix(0.41, 0.00, -0.00, -0.41, 56.4, 391.0)"></image></g></g></g></g><g><clipPath id="clip-66"><path d="M 819.4 477.9 L 1000.1 477.9 L 1000.1 388.3 L 819.4 388.3 Z M 819.4 477.9 "></path></clipPath><g clip-path="url(#clip-66)"><g><clipPath id="clip-67"><path d="M 819.4 388.3 L 1000.1 388.3 L 1000.1 477.9 L 819.4 477.9 Z M 819.4 388.3 "></path></clipPath><g clip-path="url(#clip-67)"><image xlink:href="../../4B0F931E-B520-44BA-B0AB-82FB4D50C446/assets/168E72D2CC91096BE3BAB2D7AB65B778.png" width="218.00" height="108.00" transform="matrix(0.83, 0.00, -0.00, -0.83, 819.4, 477.9)"></image></g></g></g></g><g><clipPath id="clip-68"><path d="M 1.0 0.0 L 1024.0 0.0 L 1024.0 768.0 L 1.0 768.0 Z M 1.0 0.0 "></path></clipPath><g clip-path="url(#clip-68)"><path d="M 7.0 93.9 L 220.9 93.9 L 220.9 3.6 L 7.0 3.6 Z M 7.0 93.9 " fill="#FEFFFF"></path><path d="M -11000.0 0.0 L -0.0 -11000.0 L 1910953.0 -11000.0 L 1921953.0 0.0 L 1921953.0 806053.1 L 1910953.0 817053.1 L -0.0 817053.1 L -11000.0 806053.1 Z M -11000.0 0.0 " fill="none" stroke="#FEFFFF" stroke-width="33000.00" stroke-miterlimit="0.00" stroke-linejoin="round" transform="matrix(0.00, 0.00, 0.00, -0.00, 7.0, 93.9)"></path><path d="M 22000.0 22000.0 L 1888953.0 22000.0 L 1888953.0 784053.1 L 22000.0 784053.1 Z M 22000.0 22000.0 " fill="none" stroke="#FEFFFF" stroke-width="11000.00" stroke-miterlimit="0.00" stroke-linejoin="round" transform="matrix(0.00, 0.00, 0.00, -0.00, 7.0, 93.9)"></path></g></g><g><clipPath id="clip-69"><path d="M 282.3 636.1 L 730.8 636.1 L 730.8 503.5 L 282.3 503.5 Z M 282.3 636.1 "></path></clipPath><g clip-path="url(#clip-69)"><g><clipPath id="clip-70"><path d="M 282.3 503.5 L 730.8 503.5 L 730.8 636.1 L 282.3 636.1 Z M 282.3 503.5 "></path></clipPath><g clip-path="url(#clip-70)"><image xlink:href="../../4B0F931E-B520-44BA-B0AB-82FB4D50C446/assets/F89642C4B5CC8E86A172B5A45542DC73.png" width="964.00" height="285.00" transform="matrix(0.47, 0.00, -0.00, -0.47, 282.3, 636.1)"></image></g></g></g></g><g><clipPath id="clip-71"><path d="M 841.3 366.9 L 978.2 366.9 L 978.2 229.9 L 841.3 229.9 Z M 841.3 366.9 "></path></clipPath><g clip-path="url(#clip-71)"><g><clipPath id="clip-72"><path d="M 841.3 229.9 L 978.2 229.9 L 978.2 366.9 L 841.3 366.9 Z M 841.3 229.9 "></path></clipPath><g clip-path="url(#clip-72)"><image xlink:href="../../4B0F931E-B520-44BA-B0AB-82FB4D50C446/assets/BB2AB306FD624748287E6A722CDD4842.jpeg" width="294.00" height="294.00" transform="matrix(0.47, 0.00, -0.00, -0.47, 841.3, 366.9)"></image></g></g></g></g><g><clipPath id="clip-73"><path d="M 827.9 213.3 L 993.5 213.3 L 993.5 119.5 L 827.9 119.5 Z M 827.9 213.3 "></path></clipPath><g clip-path="url(#clip-73)"><g><clipPath id="clip-74"><path d="M 827.9 119.5 L 993.5 119.5 L 993.5 213.3 L 827.9 213.3 Z M 827.9 119.5 "></path></clipPath><g clip-path="url(#clip-74)"><image xlink:href="../../4B0F931E-B520-44BA-B0AB-82FB4D50C446/assets/984D463EBDE7ECD9D5DBA8370B515A90.jpeg" width="1478.00" height="837.00" transform="matrix(0.11, 0.00, -0.00, -0.11, 827.9, 213.3)"></image></g></g></g></g><g><clipPath id="clip-75"><path d="M 307.9 153.7 L 416.1 153.7 L 416.1 32.5 L 307.9 32.5 Z M 307.9 153.7 "></path></clipPath><g clip-path="url(#clip-75)"><g><clipPath id="clip-76"><path d="M 307.9 32.5 L 416.1 32.5 L 416.1 153.7 L 307.9 153.7 Z M 307.9 32.5 "></path></clipPath><g clip-path="url(#clip-76)"><image xlink:href="../../4B0F931E-B520-44BA-B0AB-82FB4D50C446/assets/8E59B007015B816DEC7E4DFF204E0622.jpeg" width="134.00" height="150.00" transform="matrix(0.81, 0.00, -0.00, -0.81, 307.9, 153.7)"></image></g></g></g></g><g><clipPath id="clip-77"><path d="M 77.7 147.9 L 191.7 147.9 L 191.7 48.7 L 77.7 48.7 Z M 77.7 147.9 "></path></clipPath><g clip-path="url(#clip-77)"><g><clipPath id="clip-78"><path d="M 77.7 48.7 L 191.7 48.7 L 191.7 147.9 L 77.7 147.9 Z M 77.7 48.7 "></path></clipPath><g clip-path="url(#clip-78)"><image xlink:href="../../4B0F931E-B520-44BA-B0AB-82FB4D50C446/assets/C834A6C8E6633E90D4EAF450C0DF8F98.jpeg" width="107.00" height="93.00" transform="matrix(1.07, 0.00, -0.00, -1.07, 77.7, 147.9)"></image></g></g></g></g><text xml:space="preserve" font-family="Helvetica-Bold" font-weight="bold" font-size="36.0" fill="#000000" transform="matrix(1.00, 0.00, -0.00, -1.00, 265.0, 371.0)">w</text><text xml:space="preserve" font-family="Helvetica-Bold" font-weight="bold" font-size="36.0" fill="#000000" transform="matrix(1.00, 0.00, -0.00, -1.00, 293.0, 371.0)">w</text><text xml:space="preserve" font-family="Helvetica-Bold" font-weight="bold" font-size="36.0" fill="#000000" transform="matrix(1.00, 0.00, -0.00, -1.00, 321.0, 371.0)">w</text><text xml:space="preserve" font-family="Helvetica-Bold" font-weight="bold" font-size="36.0" fill="#000000" transform="matrix(1.00, 0.00, -0.00, -1.00, 347.7, 371.0)">.</text><text xml:space="preserve" font-family="Helvetica-Bold" font-weight="bold" font-size="36.0" fill="#000000" transform="matrix(1.00, 0.00, -0.00, -1.00, 357.7, 371.0)">i</text><text xml:space="preserve" font-family="Helvetica-Bold" font-weight="bold" font-size="36.0" fill="#000000" transform="matrix(1.00, 0.00, -0.00, -1.00, 367.7, 371.0)">m</text><text xml:space="preserve" font-family="Helvetica-Bold" font-weight="bold" font-size="36.0" fill="#000000" transform="matrix(1.00, 0.00, -0.00, -1.00, 399.7, 371.0)">p</text><text xml:space="preserve" font-family="Helvetica-Bold" font-weight="bold" font-size="36.0" fill="#000000" transform="matrix(1.00, 0.00, -0.00, -1.00, 421.7, 371.0)">a</text><text xml:space="preserve" font-family="Helvetica-Bold" font-weight="bold" font-size="36.0" fill="#000000" transform="matrix(1.00, 0.00, -0.00, -1.00, 441.7, 371.0)">c</text><text xml:space="preserve" font-family="Helvetica-Bold" font-weight="bold" font-size="36.0" fill="#000000" transform="matrix(1.00, 0.00, -0.00, -1.00, 461.7, 371.0)">t</text><text xml:space="preserve" font-family="Helvetica-Bold" font-weight="bold" font-size="36.0" fill="#000000" transform="matrix(1.00, 0.00, -0.00, -1.00, 473.7, 371.0)">r</text><text xml:space="preserve" font-family="Helvetica-Bold" font-weight="bold" font-size="36.0" fill="#000000" transform="matrix(1.00, 0.00, -0.00, -1.00, 487.7, 371.0)">e</text><text xml:space="preserve" font-family="Helvetica-Bold" font-weight="bold" font-size="36.0" fill="#000000" transform="matrix(1.00, 0.00, -0.00, -1.00, 507.7, 371.0)">s</text><text xml:space="preserve" font-family="Helvetica-Bold" font-weight="bold" font-size="36.0" fill="#000000" transform="matrix(1.00, 0.00, -0.00, -1.00, 527.8, 371.0)">e</text><text xml:space="preserve" font-family="Helvetica-Bold" font-weight="bold" font-size="36.0" fill="#000000" transform="matrix(1.00, 0.00, -0.00, -1.00, 547.8, 371.0)">a</text><text xml:space="preserve" font-family="Helvetica-Bold" font-weight="bold" font-size="36.0" fill="#000000" transform="matrix(1.00, 0.00, -0.00, -1.00, 567.8, 371.0)">r</text><text xml:space="preserve" font-family="Helvetica-Bold" font-weight="bold" font-size="36.0" fill="#000000" transform="matrix(1.00, 0.00, -0.00, -1.00, 581.9, 371.0)">c</text><text xml:space="preserve" font-family="Helvetica-Bold" font-weight="bold" font-size="36.0" fill="#000000" transform="matrix(1.00, 0.00, -0.00, -1.00, 601.9, 371.0)">h</text><text xml:space="preserve" font-family="Helvetica-Bold" font-weight="bold" font-size="36.0" fill="#000000" transform="matrix(1.00, 0.00, -0.00, -1.00, 623.9, 371.0)">i</text><text xml:space="preserve" font-family="Helvetica-Bold" font-weight="bold" font-size="36.0" fill="#000000" transform="matrix(1.00, 0.00, -0.00, -1.00, 633.9, 371.0)">n</text><text xml:space="preserve" font-family="Helvetica-Bold" font-weight="bold" font-size="36.0" fill="#000000" transform="matrix(1.00, 0.00, -0.00, -1.00, 655.8, 371.0)">c</text><text xml:space="preserve" font-family="Helvetica-Bold" font-weight="bold" font-size="36.0" fill="#000000" transform="matrix(1.00, 0.00, -0.00, -1.00, 675.9, 371.0)">.</text><text xml:space="preserve" font-family="Helvetica-Bold" font-weight="bold" font-size="36.0" fill="#000000" transform="matrix(1.00, 0.00, -0.00, -1.00, 685.9, 371.0)">c</text><text xml:space="preserve" font-family="Helvetica-Bold" font-weight="bold" font-size="36.0" fill="#000000" transform="matrix(1.00, 0.00, -0.00, -1.00, 705.9, 371.0)">o</text><text xml:space="preserve" font-family="Helvetica-Bold" font-weight="bold" font-size="36.0" fill="#000000" transform="matrix(1.00, 0.00, -0.00, -1.00, 727.9, 371.0)">m</text><g><clipPath id="clip-79"><path d="M 263.6 366.2 L 759.4 366.2 L 759.4 369.9 L 263.6 369.9 Z M 263.6 366.2 "></path></clipPath><g clip-path="url(#clip-79)"><path d="M 4.5 41.4 L 499.4 41.4 " fill="none" stroke="#000000" stroke-width="1.78" stroke-miterlimit="0.00" transform="matrix(1.00, 0.00, 0.00, -1.00, 260.1, 409.5)"></path></g></g></g></svg>