<?xml version="1.0" encoding="UTF-8" standalone="no"?><svg xmlns="http://www.w3.org/2000/svg" xmlns:xlink="http://www.w3.org/1999/xlink" clip-rule="evenodd" stroke-miterlimit="4.00" viewBox="0 0 1024 768"><desc>SVG generated by Keynote</desc><defs></defs><g transform="matrix(1.00, 0.00, -0.00, -1.00, 0.0, 768.0)"><path d="M 0.0 768.0 L 1024.0 768.0 L 1024.0 0.0 L 0.0 0.0 Z M 0.0 768.0 " fill="#000000"></path><text xml:space="preserve" font-family="Helvetica-Light" font-size="69.0" fill="#FEFFFF" transform="matrix(1.00, 0.00, -0.00, -1.00, 141.0, 400.0)">t</text><text xml:space="preserve" font-family="Helvetica-Light" font-size="69.0" fill="#FEFFFF" transform="matrix(1.00, 0.00, -0.00, -1.00, 160.2, 400.0)">e</text><text xml:space="preserve" font-family="Helvetica-Light" font-size="69.0" fill="#FEFFFF" transform="matrix(1.00, 0.00, -0.00, -1.00, 198.5, 400.0)">x</text><text xml:space="preserve" font-family="Helvetica-Light" font-size="69.0" fill="#FEFFFF" transform="matrix(1.00, 0.00, -0.00, -1.00, 233.0, 400.0)">t</text><text xml:space="preserve" font-family="Helvetica-Light" font-size="69.0" fill="#FEFFFF" transform="matrix(1.00, 0.00, -0.00, -1.00, 252.2, 400.0)">m</text><text xml:space="preserve" font-family="Helvetica-Light" font-size="69.0" fill="#FEFFFF" transform="matrix(1.00, 0.00, -0.00, -1.00, 309.7, 400.0)">i</text><text xml:space="preserve" font-family="Helvetica-Light" font-size="69.0" fill="#FEFFFF" transform="matrix(1.00, 0.00, -0.00, -1.00, 325.0, 400.0)">n</text><text xml:space="preserve" font-family="Helvetica-Light" font-size="69.0" fill="#FEFFFF" transform="matrix(1.00, 0.00, -0.00, -1.00, 363.4, 400.0)">e</text><text xml:space="preserve" font-family="Helvetica-Light" font-size="69.0" fill="#FEFFFF" transform="matrix(1.00, 0.00, -0.00, -1.00, 401.8, 400.0)">R</text><text xml:space="preserve" font-family="Helvetica-Light" font-size="69.0" fill="#FEFFFF" transform="matrix(1.00, 0.00, -0.00, -1.00, 447.8, 400.0)">’</text><text xml:space="preserve" font-family="Helvetica-Light" font-size="69.0" fill="#FEFFFF" transform="matrix(1.00, 0.00, -0.00, -1.00, 458.0, 400.0)">s</text><text xml:space="preserve" font-family="Helvetica-Light" font-size="69.0" fill="#FEFFFF" transform="matrix(1.00, 0.00, -0.00, -1.00, 492.5, 400.0)"> </text><text xml:space="preserve" font-family="Helvetica-Light" font-size="69.0" fill="#FEFFFF" transform="matrix(1.00, 0.00, -0.00, -1.00, 511.7, 400.0)">n</text><text xml:space="preserve" font-family="Helvetica-Light" font-size="69.0" fill="#FEFFFF" transform="matrix(1.00, 0.00, -0.00, -1.00, 550.0, 400.0)">u</text><text xml:space="preserve" font-family="Helvetica-Light" font-size="69.0" fill="#FEFFFF" transform="matrix(1.00, 0.00, -0.00, -1.00, 588.4, 400.0)">m</text><text xml:space="preserve" font-family="Helvetica-Light" font-size="69.0" fill="#FEFFFF" transform="matrix(1.00, 0.00, -0.00, -1.00, 645.9, 400.0)">b</text><text xml:space="preserve" font-family="Helvetica-Light" font-size="69.0" fill="#FEFFFF" transform="matrix(1.00, 0.00, -0.00, -1.00, 688.0, 400.0)">e</text><text xml:space="preserve" font-family="Helvetica-Light" font-size="69.0" fill="#FEFFFF" transform="matrix(1.00, 0.00, -0.00, -1.00, 726.4, 400.0)">r</text><text xml:space="preserve" font-family="Helvetica-Light" font-size="69.0" fill="#FEFFFF" transform="matrix(1.00, 0.00, -0.00, -1.00, 749.4, 400.0)"> </text><text xml:space="preserve" font-family="Helvetica-Light" font-size="69.0" fill="#FEFFFF" transform="matrix(1.00, 0.00, -0.00, -1.00, 768.6, 400.0)">o</text><text xml:space="preserve" font-family="Helvetica-Light" font-size="69.0" fill="#FEFFFF" transform="matrix(1.00, 0.00, -0.00, -1.00, 806.9, 400.0)">n</text><text xml:space="preserve" font-family="Helvetica-Light" font-size="69.0" fill="#FEFFFF" transform="matrix(1.00, 0.00, -0.00, -1.00, 845.3, 400.0)">e</text><text xml:space="preserve" font-family="Helvetica-Light" font-size="69.0" fill="#FEFFFF" transform="matrix(1.00, 0.00, -0.00, -1.00, 883.6, 400.0)"> </text><text xml:space="preserve" font-family="Helvetica-Light" font-size="69.0" fill="#FEFFFF" transform="matrix(1.00, 0.00, -0.00, -1.00, 203.0, 317.0)">c</text><text xml:space="preserve" font-family="Helvetica-Light" font-size="69.0" fill="#FEFFFF" transform="matrix(1.00, 0.00, -0.00, -1.00, 241.4, 317.0)">o</text><text xml:space="preserve" font-family="Helvetica-Light" font-size="69.0" fill="#FEFFFF" transform="matrix(1.00, 0.00, -0.00, -1.00, 279.7, 317.0)">n</text><text xml:space="preserve" font-family="Helvetica-Light" font-size="69.0" fill="#FEFFFF" transform="matrix(1.00, 0.00, -0.00, -1.00, 318.1, 317.0)">c</text><text xml:space="preserve" font-family="Helvetica-Light" font-size="69.0" fill="#FEFFFF" transform="matrix(1.00, 0.00, -0.00, -1.00, 356.5, 317.0)">e</text><text xml:space="preserve" font-family="Helvetica-Light" font-size="69.0" fill="#FEFFFF" transform="matrix(1.00, 0.00, -0.00, -1.00, 394.8, 317.0)">r</text><text xml:space="preserve" font-family="Helvetica-Light" font-size="69.0" fill="#FEFFFF" transform="matrix(1.00, 0.00, -0.00, -1.00, 419.0, 317.0)">n</text><text xml:space="preserve" font-family="Helvetica-Light" font-size="69.0" fill="#FEFFFF" transform="matrix(1.00, 0.00, -0.00, -1.00, 457.4, 317.0)"> </text><text xml:space="preserve" font-family="Helvetica-Light" font-size="69.0" fill="#FEFFFF" transform="matrix(1.00, 0.00, -0.00, -1.00, 476.6, 317.0)">i</text><text xml:space="preserve" font-family="Helvetica-Light" font-size="69.0" fill="#FEFFFF" transform="matrix(1.00, 0.00, -0.00, -1.00, 491.9, 317.0)">s</text><text xml:space="preserve" font-family="Helvetica-Light" font-size="69.0" fill="#FEFFFF" transform="matrix(1.00, 0.00, -0.00, -1.00, 526.4, 317.0)"> </text><text xml:space="preserve" font-family="Helvetica-Light" font-size="69.0" fill="#FEFFFF" transform="matrix(1.00, 0.00, -0.00, -1.00, 545.6, 317.0)">u</text><text xml:space="preserve" font-family="Helvetica-Light" font-size="69.0" fill="#FEFFFF" transform="matrix(1.00, 0.00, -0.00, -1.00, 583.9, 317.0)">s</text><text xml:space="preserve" font-family="Helvetica-Light" font-size="69.0" fill="#FEFFFF" transform="matrix(1.00, 0.00, -0.00, -1.00, 618.4, 317.0)">a</text><text xml:space="preserve" font-family="Helvetica-Light" font-size="69.0" fill="#FEFFFF" transform="matrix(1.00, 0.00, -0.00, -1.00, 656.8, 317.0)">b</text><text xml:space="preserve" font-family="Helvetica-Light" font-size="69.0" fill="#FEFFFF" transform="matrix(1.00, 0.00, -0.00, -1.00, 699.0, 317.0)">i</text><text xml:space="preserve" font-family="Helvetica-Light" font-size="69.0" fill="#FEFFFF" transform="matrix(1.00, 0.00, -0.00, -1.00, 714.3, 317.0)">l</text><text xml:space="preserve" font-family="Helvetica-Light" font-size="69.0" fill="#FEFFFF" transform="matrix(1.00, 0.00, -0.00, -1.00, 729.6, 317.0)">i</text><text xml:space="preserve" font-family="Helvetica-Light" font-size="69.0" fill="#FEFFFF" transform="matrix(1.00, 0.00, -0.00, -1.00, 744.9, 317.0)">t</text><text xml:space="preserve" font-family="Helvetica-Light" font-size="69.0" fill="#FEFFFF" transform="matrix(1.00, 0.00, -0.00, -1.00, 764.1, 317.0)">y</text><text xml:space="preserve" font-family="Helvetica-Light" font-size="69.0" fill="#FEFFFF" transform="matrix(1.00, 0.00, -0.00, -1.00, 798.6, 317.0)">!</text></g></svg>