<?xml version="1.0" encoding="UTF-8" standalone="no"?><svg xmlns="http://www.w3.org/2000/svg" xmlns:xlink="http://www.w3.org/1999/xlink" clip-rule="evenodd" stroke-miterlimit="4.00" viewBox="0 0 1024 768"><desc>SVG generated by Keynote</desc><defs></defs><g transform="matrix(1.00, 0.00, -0.00, -1.00, 0.0, 768.0)"><path d="M 0.0 768.0 L 1024.0 768.0 L 1024.0 0.0 L 0.0 0.0 Z M 0.0 768.0 " fill="#000000"></path><text xml:space="preserve" font-family="Helvetica-Light" font-size="67.2" fill="#FEFFFF" transform="matrix(1.00, 0.00, -0.00, -1.00, 114.0, 678.0)">T</text><text xml:space="preserve" font-family="Helvetica-Light" font-size="67.2" fill="#FEFFFF" transform="matrix(1.00, 0.00, -0.00, -1.00, 143.9, 678.0)">e</text><text xml:space="preserve" font-family="Helvetica-Light" font-size="67.2" fill="#FEFFFF" transform="matrix(1.00, 0.00, -0.00, -1.00, 181.3, 678.0)">r</text><text xml:space="preserve" font-family="Helvetica-Light" font-size="67.2" fill="#FEFFFF" transform="matrix(1.00, 0.00, -0.00, -1.00, 204.9, 678.0)">m</text><text xml:space="preserve" font-family="Helvetica-Light" font-size="67.2" fill="#FEFFFF" transform="matrix(1.00, 0.00, -0.00, -1.00, 260.8, 678.0)"> </text><text xml:space="preserve" font-family="Helvetica-Light" font-size="67.2" fill="#FEFFFF" transform="matrix(1.00, 0.00, -0.00, -1.00, 279.5, 678.0)">C</text><text xml:space="preserve" font-family="Helvetica-Light" font-size="67.2" fill="#FEFFFF" transform="matrix(1.00, 0.00, -0.00, -1.00, 328.0, 678.0)">o</text><text xml:space="preserve" font-family="Helvetica-Light" font-size="67.2" fill="#FEFFFF" transform="matrix(1.00, 0.00, -0.00, -1.00, 365.4, 678.0)">-</text><text xml:space="preserve" font-family="Helvetica-Light" font-size="67.2" fill="#FEFFFF" transform="matrix(1.00, 0.00, -0.00, -1.00, 387.8, 678.0)">o</text><text xml:space="preserve" font-family="Helvetica-Light" font-size="67.2" fill="#FEFFFF" transform="matrix(1.00, 0.00, -0.00, -1.00, 425.1, 678.0)">c</text><text xml:space="preserve" font-family="Helvetica-Light" font-size="67.2" fill="#FEFFFF" transform="matrix(1.00, 0.00, -0.00, -1.00, 462.5, 678.0)">c</text><text xml:space="preserve" font-family="Helvetica-Light" font-size="67.2" fill="#FEFFFF" transform="matrix(1.00, 0.00, -0.00, -1.00, 499.9, 678.0)">u</text><text xml:space="preserve" font-family="Helvetica-Light" font-size="67.2" fill="#FEFFFF" transform="matrix(1.00, 0.00, -0.00, -1.00, 537.2, 678.0)">r</text><text xml:space="preserve" font-family="Helvetica-Light" font-size="67.2" fill="#FEFFFF" transform="matrix(1.00, 0.00, -0.00, -1.00, 558.4, 678.0)">e</text><text xml:space="preserve" font-family="Helvetica-Light" font-size="67.2" fill="#FEFFFF" transform="matrix(1.00, 0.00, -0.00, -1.00, 595.8, 678.0)">n</text><text xml:space="preserve" font-family="Helvetica-Light" font-size="67.2" fill="#FEFFFF" transform="matrix(1.00, 0.00, -0.00, -1.00, 633.1, 678.0)">c</text><text xml:space="preserve" font-family="Helvetica-Light" font-size="67.2" fill="#FEFFFF" transform="matrix(1.00, 0.00, -0.00, -1.00, 670.5, 678.0)">e</text><text xml:space="preserve" font-family="Helvetica-Light" font-size="67.2" fill="#FEFFFF" transform="matrix(1.00, 0.00, -0.00, -1.00, 707.8, 678.0)"> </text><text xml:space="preserve" font-family="Helvetica-Light" font-size="67.2" fill="#FEFFFF" transform="matrix(1.00, 0.00, -0.00, -1.00, 726.5, 678.0)">M</text><text xml:space="preserve" font-family="Helvetica-Light" font-size="67.2" fill="#FEFFFF" transform="matrix(1.00, 0.00, -0.00, -1.00, 782.5, 678.0)">a</text><text xml:space="preserve" font-family="Helvetica-Light" font-size="67.2" fill="#FEFFFF" transform="matrix(1.00, 0.00, -0.00, -1.00, 819.9, 678.0)">t</text><text xml:space="preserve" font-family="Helvetica-Light" font-size="67.2" fill="#FEFFFF" transform="matrix(1.00, 0.00, -0.00, -1.00, 838.6, 678.0)">r</text><text xml:space="preserve" font-family="Helvetica-Light" font-size="67.2" fill="#FEFFFF" transform="matrix(1.00, 0.00, -0.00, -1.00, 860.9, 678.0)">i</text><text xml:space="preserve" font-family="Helvetica-Light" font-size="67.2" fill="#FEFFFF" transform="matrix(1.00, 0.00, -0.00, -1.00, 875.8, 678.0)">x</text><text xml:space="preserve" font-family="Helvetica-Light" font-size="67.2" fill="#FEFFFF" transform="matrix(1.00, 0.00, -0.00, -1.00, 909.4, 678.0)"> </text><text xml:space="preserve" font-family="Helvetica-Light" font-size="67.2" fill="#FEFFFF" transform="matrix(1.00, 0.00, -0.00, -1.00, 419.0, 598.0)">(</text><text xml:space="preserve" font-family="Helvetica-Light" font-size="67.2" fill="#FEFFFF" transform="matrix(1.00, 0.00, -0.00, -1.00, 441.4, 598.0)">T</text><text xml:space="preserve" font-family="Helvetica-Light" font-size="67.2" fill="#FEFFFF" transform="matrix(1.00, 0.00, -0.00, -1.00, 478.7, 598.0)">C</text><text xml:space="preserve" font-family="Helvetica-Light" font-size="67.2" fill="#FEFFFF" transform="matrix(1.00, 0.00, -0.00, -1.00, 527.3, 598.0)">M</text><text xml:space="preserve" font-family="Helvetica-Light" font-size="67.2" fill="#FEFFFF" transform="matrix(1.00, 0.00, -0.00, -1.00, 583.2, 598.0)">)</text><g><clipPath id="clip-130"><path d="M 279.0 553.0 L 746.0 553.0 L 746.0 98.0 L 279.0 98.0 Z M 278.5 552.5 "></path></clipPath><g clip-path="url(#clip-130)"><g><clipPath id="clip-131"><path d="M 278.5 97.5 L 745.5 97.5 L 745.5 552.5 L 278.5 552.5 Z M 278.5 97.5 "></path></clipPath><g clip-path="url(#clip-131)"><image xlink:href="../../E76473AD-80C5-4601-8A1A-5F462067EA5E/assets/303C50582EDA3C5CD2CC44F63DFA0E15.png" width="467.00" height="455.00" transform="matrix(1.00, 0.00, -0.00, -1.00, 279.0, 552.0)"></image></g></g></g></g><g><clipPath id="clip-132"><path d="M 280.8 320.7 L 468.0 320.7 L 468.0 368.7 L 280.8 368.7 Z M 280.8 320.7 "></path></clipPath><g clip-path="url(#clip-132)"><text xml:space="preserve" font-family="Helvetica-Light" font-size="28.0" fill="#000000" transform="matrix(1.00, 0.00, -0.00, -1.00, 288.0, 334.0)">r</text><text xml:space="preserve" font-family="Helvetica-Light" font-size="28.0" fill="#000000" transform="matrix(1.00, 0.00, -0.00, -1.00, 296.8, 334.0)">e</text><text xml:space="preserve" font-family="Helvetica-Light" font-size="28.0" fill="#000000" transform="matrix(1.00, 0.00, -0.00, -1.00, 312.4, 334.0)">d</text><text xml:space="preserve" font-family="Helvetica-Light" font-size="28.0" fill="#000000" transform="matrix(1.00, 0.00, -0.00, -1.00, 329.5, 334.0)">u</text><text xml:space="preserve" font-family="Helvetica-Light" font-size="28.0" fill="#000000" transform="matrix(1.00, 0.00, -0.00, -1.00, 345.1, 334.0)">c</text><text xml:space="preserve" font-family="Helvetica-Light" font-size="28.0" fill="#000000" transform="matrix(1.00, 0.00, -0.00, -1.00, 360.6, 334.0)">e</text><text xml:space="preserve" font-family="Helvetica-Light" font-size="28.0" fill="#000000" transform="matrix(1.00, 0.00, -0.00, -1.00, 376.2, 334.0)"> </text><text xml:space="preserve" font-family="Helvetica-Light" font-size="28.0" fill="#000000" transform="matrix(1.00, 0.00, -0.00, -1.00, 384.0, 334.0)">h</text><text xml:space="preserve" font-family="Helvetica-Light" font-size="28.0" fill="#000000" transform="matrix(1.00, 0.00, -0.00, -1.00, 399.6, 334.0)">e</text><text xml:space="preserve" font-family="Helvetica-Light" font-size="28.0" fill="#000000" transform="matrix(1.00, 0.00, -0.00, -1.00, 415.1, 334.0)">a</text><text xml:space="preserve" font-family="Helvetica-Light" font-size="28.0" fill="#000000" transform="matrix(1.00, 0.00, -0.00, -1.00, 430.7, 334.0)">l</text><text xml:space="preserve" font-family="Helvetica-Light" font-size="28.0" fill="#000000" transform="matrix(1.00, 0.00, -0.00, -1.00, 436.9, 334.0)">t</text><text xml:space="preserve" font-family="Helvetica-Light" font-size="28.0" fill="#000000" transform="matrix(1.00, 0.00, -0.00, -1.00, 444.7, 334.0)">h</text></g></g><g><clipPath id="clip-133"><path d="M 329.6 277.3 L 419.3 277.3 L 419.3 325.3 L 329.6 325.3 Z M 329.6 277.3 "></path></clipPath><g clip-path="url(#clip-133)"><text xml:space="preserve" font-family="Helvetica-Light" font-size="28.0" fill="#000000" transform="matrix(1.00, 0.00, -0.00, -1.00, 337.0, 291.0)">p</text><text xml:space="preserve" font-family="Helvetica-Light" font-size="28.0" fill="#000000" transform="matrix(1.00, 0.00, -0.00, -1.00, 354.1, 291.0)">o</text><text xml:space="preserve" font-family="Helvetica-Light" font-size="28.0" fill="#000000" transform="matrix(1.00, 0.00, -0.00, -1.00, 369.7, 291.0)">l</text><text xml:space="preserve" font-family="Helvetica-Light" font-size="28.0" fill="#000000" transform="matrix(1.00, 0.00, -0.00, -1.00, 375.9, 291.0)">i</text><text xml:space="preserve" font-family="Helvetica-Light" font-size="28.0" fill="#000000" transform="matrix(1.00, 0.00, -0.00, -1.00, 382.1, 291.0)">c</text><text xml:space="preserve" font-family="Helvetica-Light" font-size="28.0" fill="#000000" transform="matrix(1.00, 0.00, -0.00, -1.00, 397.7, 291.0)">y</text></g></g><g><clipPath id="clip-134"><path d="M 293.0 231.9 L 455.9 231.9 L 455.9 279.9 L 293.0 279.9 Z M 293.0 231.9 "></path></clipPath><g clip-path="url(#clip-134)"><text xml:space="preserve" font-family="Helvetica-Light" font-size="28.0" fill="#000000" transform="matrix(1.00, 0.00, -0.00, -1.00, 300.0, 245.0)">f</text><text xml:space="preserve" font-family="Helvetica-Light" font-size="28.0" fill="#000000" transform="matrix(1.00, 0.00, -0.00, -1.00, 307.8, 245.0)">o</text><text xml:space="preserve" font-family="Helvetica-Light" font-size="28.0" fill="#000000" transform="matrix(1.00, 0.00, -0.00, -1.00, 323.4, 245.0)">o</text><text xml:space="preserve" font-family="Helvetica-Light" font-size="28.0" fill="#000000" transform="matrix(1.00, 0.00, -0.00, -1.00, 338.9, 245.0)">d</text><text xml:space="preserve" font-family="Helvetica-Light" font-size="28.0" fill="#000000" transform="matrix(1.00, 0.00, -0.00, -1.00, 356.0, 245.0)"> </text><text xml:space="preserve" font-family="Helvetica-Light" font-size="28.0" fill="#000000" transform="matrix(1.00, 0.00, -0.00, -1.00, 363.8, 245.0)">c</text><text xml:space="preserve" font-family="Helvetica-Light" font-size="28.0" fill="#000000" transform="matrix(1.00, 0.00, -0.00, -1.00, 379.4, 245.0)">h</text><text xml:space="preserve" font-family="Helvetica-Light" font-size="28.0" fill="#000000" transform="matrix(1.00, 0.00, -0.00, -1.00, 394.9, 245.0)">o</text><text xml:space="preserve" font-family="Helvetica-Light" font-size="28.0" fill="#000000" transform="matrix(1.00, 0.00, -0.00, -1.00, 410.5, 245.0)">i</text><text xml:space="preserve" font-family="Helvetica-Light" font-size="28.0" fill="#000000" transform="matrix(1.00, 0.00, -0.00, -1.00, 416.7, 245.0)">c</text><text xml:space="preserve" font-family="Helvetica-Light" font-size="28.0" fill="#000000" transform="matrix(1.00, 0.00, -0.00, -1.00, 432.3, 245.0)">e</text></g></g><g><clipPath id="clip-135"><path d="M 282.9 186.5 L 465.9 186.5 L 465.9 234.5 L 282.9 234.5 Z M 282.9 186.5 "></path></clipPath><g clip-path="url(#clip-135)"><text xml:space="preserve" font-family="Helvetica-Light" font-size="28.0" fill="#000000" transform="matrix(1.00, 0.00, -0.00, -1.00, 290.0, 200.0)">s</text><text xml:space="preserve" font-family="Helvetica-Light" font-size="28.0" fill="#000000" transform="matrix(1.00, 0.00, -0.00, -1.00, 304.0, 200.0)">t</text><text xml:space="preserve" font-family="Helvetica-Light" font-size="28.0" fill="#000000" transform="matrix(1.00, 0.00, -0.00, -1.00, 311.8, 200.0)">u</text><text xml:space="preserve" font-family="Helvetica-Light" font-size="28.0" fill="#000000" transform="matrix(1.00, 0.00, -0.00, -1.00, 327.4, 200.0)">d</text><text xml:space="preserve" font-family="Helvetica-Light" font-size="28.0" fill="#000000" transform="matrix(1.00, 0.00, -0.00, -1.00, 344.5, 200.0)">y</text><text xml:space="preserve" font-family="Helvetica-Light" font-size="28.0" fill="#000000" transform="matrix(1.00, 0.00, -0.00, -1.00, 358.5, 200.0)"> </text><text xml:space="preserve" font-family="Helvetica-Light" font-size="28.0" fill="#000000" transform="matrix(1.00, 0.00, -0.00, -1.00, 366.2, 200.0)">s</text><text xml:space="preserve" font-family="Helvetica-Light" font-size="28.0" fill="#000000" transform="matrix(1.00, 0.00, -0.00, -1.00, 380.2, 200.0)">o</text><text xml:space="preserve" font-family="Helvetica-Light" font-size="28.0" fill="#000000" transform="matrix(1.00, 0.00, -0.00, -1.00, 395.8, 200.0)">d</text><text xml:space="preserve" font-family="Helvetica-Light" font-size="28.0" fill="#000000" transform="matrix(1.00, 0.00, -0.00, -1.00, 412.9, 200.0)">i</text><text xml:space="preserve" font-family="Helvetica-Light" font-size="28.0" fill="#000000" transform="matrix(1.00, 0.00, -0.00, -1.00, 419.1, 200.0)">u</text><text xml:space="preserve" font-family="Helvetica-Light" font-size="28.0" fill="#000000" transform="matrix(1.00, 0.00, -0.00, -1.00, 434.7, 200.0)">m</text></g></g><g><clipPath id="clip-136"><path d="M 330.4 141.0 L 418.5 141.0 L 418.5 189.0 L 330.4 189.0 Z M 330.4 141.0 "></path></clipPath><g clip-path="url(#clip-136)"><text xml:space="preserve" font-family="Helvetica-Light" font-size="28.0" fill="#000000" transform="matrix(1.00, 0.00, -0.00, -1.00, 338.0, 154.0)">s</text><text xml:space="preserve" font-family="Helvetica-Light" font-size="28.0" fill="#000000" transform="matrix(1.00, 0.00, -0.00, -1.00, 352.0, 154.0)">o</text><text xml:space="preserve" font-family="Helvetica-Light" font-size="28.0" fill="#000000" transform="matrix(1.00, 0.00, -0.00, -1.00, 367.6, 154.0)">c</text><text xml:space="preserve" font-family="Helvetica-Light" font-size="28.0" fill="#000000" transform="matrix(1.00, 0.00, -0.00, -1.00, 383.1, 154.0)">i</text><text xml:space="preserve" font-family="Helvetica-Light" font-size="28.0" fill="#000000" transform="matrix(1.00, 0.00, -0.00, -1.00, 389.4, 154.0)">a</text><text xml:space="preserve" font-family="Helvetica-Light" font-size="28.0" fill="#000000" transform="matrix(1.00, 0.00, -0.00, -1.00, 404.9, 154.0)">l</text></g></g><g><clipPath id="clip-137"><path d="M 352.9 95.6 L 395.9 95.6 L 395.9 143.6 L 352.9 143.6 Z M 352.9 95.6 "></path></clipPath><g clip-path="url(#clip-137)"><text xml:space="preserve" font-family="Helvetica-Light" font-size="28.0" fill="#000000" transform="matrix(1.00, 0.00, -0.00, -1.00, 360.0, 109.0)">…</text></g></g><g><clipPath id="clip-138"><path d="M 468.5 366.0 L 468.5 553.2 L 516.5 553.2 L 516.5 366.0 Z M 468.5 366.0 "></path></clipPath><g clip-path="url(#clip-138)"><text xml:space="preserve" font-family="Helvetica-Light" font-size="28.0" fill="#000000" transform="matrix(0.00, 1.00, 1.00, -0.00, 503.0, 373.0)">r</text><text xml:space="preserve" font-family="Helvetica-Light" font-size="28.0" fill="#000000" transform="matrix(0.00, 1.00, 1.00, -0.00, 503.0, 381.8)">e</text><text xml:space="preserve" font-family="Helvetica-Light" font-size="28.0" fill="#000000" transform="matrix(0.00, 1.00, 1.00, -0.00, 503.0, 397.4)">d</text><text xml:space="preserve" font-family="Helvetica-Light" font-size="28.0" fill="#000000" transform="matrix(0.00, 1.00, 1.00, -0.00, 503.0, 414.5)">u</text><text xml:space="preserve" font-family="Helvetica-Light" font-size="28.0" fill="#000000" transform="matrix(0.00, 1.00, 1.00, -0.00, 503.0, 430.1)">c</text><text xml:space="preserve" font-family="Helvetica-Light" font-size="28.0" fill="#000000" transform="matrix(0.00, 1.00, 1.00, -0.00, 503.0, 445.6)">e</text><text xml:space="preserve" font-family="Helvetica-Light" font-size="28.0" fill="#000000" transform="matrix(0.00, 1.00, 1.00, -0.00, 503.0, 461.2)"> </text><text xml:space="preserve" font-family="Helvetica-Light" font-size="28.0" fill="#000000" transform="matrix(0.00, 1.00, 1.00, -0.00, 503.0, 469.0)">h</text><text xml:space="preserve" font-family="Helvetica-Light" font-size="28.0" fill="#000000" transform="matrix(0.00, 1.00, 1.00, -0.00, 503.0, 484.6)">e</text><text xml:space="preserve" font-family="Helvetica-Light" font-size="28.0" fill="#000000" transform="matrix(0.00, 1.00, 1.00, -0.00, 503.0, 500.1)">a</text><text xml:space="preserve" font-family="Helvetica-Light" font-size="28.0" fill="#000000" transform="matrix(0.00, 1.00, 1.00, -0.00, 503.0, 515.7)">l</text><text xml:space="preserve" font-family="Helvetica-Light" font-size="28.0" fill="#000000" transform="matrix(0.00, 1.00, 1.00, -0.00, 503.0, 521.9)">t</text><text xml:space="preserve" font-family="Helvetica-Light" font-size="28.0" fill="#000000" transform="matrix(0.00, 1.00, 1.00, -0.00, 503.0, 529.7)">h</text></g></g><g><clipPath id="clip-139"><path d="M 514.9 409.7 L 514.9 499.4 L 562.9 499.4 L 562.9 409.7 Z M 514.9 409.7 "></path></clipPath><g clip-path="url(#clip-139)"><text xml:space="preserve" font-family="Helvetica-Light" font-size="28.0" fill="#000000" transform="matrix(0.00, 1.00, 1.00, -0.00, 549.0, 417.0)">p</text><text xml:space="preserve" font-family="Helvetica-Light" font-size="28.0" fill="#000000" transform="matrix(0.00, 1.00, 1.00, -0.00, 549.0, 434.1)">o</text><text xml:space="preserve" font-family="Helvetica-Light" font-size="28.0" fill="#000000" transform="matrix(0.00, 1.00, 1.00, -0.00, 549.0, 449.7)">l</text><text xml:space="preserve" font-family="Helvetica-Light" font-size="28.0" fill="#000000" transform="matrix(0.00, 1.00, 1.00, -0.00, 549.0, 455.9)">i</text><text xml:space="preserve" font-family="Helvetica-Light" font-size="28.0" fill="#000000" transform="matrix(0.00, 1.00, 1.00, -0.00, 549.0, 462.1)">c</text><text xml:space="preserve" font-family="Helvetica-Light" font-size="28.0" fill="#000000" transform="matrix(0.00, 1.00, 1.00, -0.00, 549.0, 477.7)">y</text></g></g><g><clipPath id="clip-140"><path d="M 561.2 373.1 L 561.2 536.0 L 609.2 536.0 L 609.2 373.1 Z M 561.2 373.1 "></path></clipPath><g clip-path="url(#clip-140)"><text xml:space="preserve" font-family="Helvetica-Light" font-size="28.0" fill="#000000" transform="matrix(0.00, 1.00, 1.00, -0.00, 596.0, 381.0)">f</text><text xml:space="preserve" font-family="Helvetica-Light" font-size="28.0" fill="#000000" transform="matrix(0.00, 1.00, 1.00, -0.00, 596.0, 388.8)">o</text><text xml:space="preserve" font-family="Helvetica-Light" font-size="28.0" fill="#000000" transform="matrix(0.00, 1.00, 1.00, -0.00, 596.0, 404.4)">o</text><text xml:space="preserve" font-family="Helvetica-Light" font-size="28.0" fill="#000000" transform="matrix(0.00, 1.00, 1.00, -0.00, 596.0, 419.9)">d</text><text xml:space="preserve" font-family="Helvetica-Light" font-size="28.0" fill="#000000" transform="matrix(0.00, 1.00, 1.00, -0.00, 596.0, 437.0)"> </text><text xml:space="preserve" font-family="Helvetica-Light" font-size="28.0" fill="#000000" transform="matrix(0.00, 1.00, 1.00, -0.00, 596.0, 444.8)">c</text><text xml:space="preserve" font-family="Helvetica-Light" font-size="28.0" fill="#000000" transform="matrix(0.00, 1.00, 1.00, -0.00, 596.0, 460.4)">h</text><text xml:space="preserve" font-family="Helvetica-Light" font-size="28.0" fill="#000000" transform="matrix(0.00, 1.00, 1.00, -0.00, 596.0, 475.9)">o</text><text xml:space="preserve" font-family="Helvetica-Light" font-size="28.0" fill="#000000" transform="matrix(0.00, 1.00, 1.00, -0.00, 596.0, 491.5)">i</text><text xml:space="preserve" font-family="Helvetica-Light" font-size="28.0" fill="#000000" transform="matrix(0.00, 1.00, 1.00, -0.00, 596.0, 497.7)">c</text><text xml:space="preserve" font-family="Helvetica-Light" font-size="28.0" fill="#000000" transform="matrix(0.00, 1.00, 1.00, -0.00, 596.0, 513.3)">e</text></g></g><g><clipPath id="clip-141"><path d="M 607.6 368.1 L 607.6 551.1 L 655.6 551.1 L 655.6 368.1 Z M 607.6 368.1 "></path></clipPath><g clip-path="url(#clip-141)"><text xml:space="preserve" font-family="Helvetica-Light" font-size="28.0" fill="#000000" transform="matrix(0.00, 1.00, 1.00, -0.00, 642.0, 376.0)">s</text><text xml:space="preserve" font-family="Helvetica-Light" font-size="28.0" fill="#000000" transform="matrix(0.00, 1.00, 1.00, -0.00, 642.0, 390.0)">t</text><text xml:space="preserve" font-family="Helvetica-Light" font-size="28.0" fill="#000000" transform="matrix(0.00, 1.00, 1.00, -0.00, 642.0, 397.8)">u</text><text xml:space="preserve" font-family="Helvetica-Light" font-size="28.0" fill="#000000" transform="matrix(0.00, 1.00, 1.00, -0.00, 642.0, 413.4)">d</text><text xml:space="preserve" font-family="Helvetica-Light" font-size="28.0" fill="#000000" transform="matrix(0.00, 1.00, 1.00, -0.00, 642.0, 430.5)">y</text><text xml:space="preserve" font-family="Helvetica-Light" font-size="28.0" fill="#000000" transform="matrix(0.00, 1.00, 1.00, -0.00, 642.0, 444.5)"> </text><text xml:space="preserve" font-family="Helvetica-Light" font-size="28.0" fill="#000000" transform="matrix(0.00, 1.00, 1.00, -0.00, 642.0, 452.2)">s</text><text xml:space="preserve" font-family="Helvetica-Light" font-size="28.0" fill="#000000" transform="matrix(0.00, 1.00, 1.00, -0.00, 642.0, 466.2)">o</text><text xml:space="preserve" font-family="Helvetica-Light" font-size="28.0" fill="#000000" transform="matrix(0.00, 1.00, 1.00, -0.00, 642.0, 481.8)">d</text><text xml:space="preserve" font-family="Helvetica-Light" font-size="28.0" fill="#000000" transform="matrix(0.00, 1.00, 1.00, -0.00, 642.0, 498.9)">i</text><text xml:space="preserve" font-family="Helvetica-Light" font-size="28.0" fill="#000000" transform="matrix(0.00, 1.00, 1.00, -0.00, 642.0, 505.1)">u</text><text xml:space="preserve" font-family="Helvetica-Light" font-size="28.0" fill="#000000" transform="matrix(0.00, 1.00, 1.00, -0.00, 642.0, 520.7)">m</text></g></g><g><clipPath id="clip-142"><path d="M 654.0 410.5 L 654.0 498.7 L 702.0 498.7 L 702.0 410.5 Z M 654.0 410.5 "></path></clipPath><g clip-path="url(#clip-142)"><text xml:space="preserve" font-family="Helvetica-Light" font-size="28.0" fill="#000000" transform="matrix(0.00, 1.00, 1.00, -0.00, 689.0, 418.0)">s</text><text xml:space="preserve" font-family="Helvetica-Light" font-size="28.0" fill="#000000" transform="matrix(0.00, 1.00, 1.00, -0.00, 689.0, 432.0)">o</text><text xml:space="preserve" font-family="Helvetica-Light" font-size="28.0" fill="#000000" transform="matrix(0.00, 1.00, 1.00, -0.00, 689.0, 447.6)">c</text><text xml:space="preserve" font-family="Helvetica-Light" font-size="28.0" fill="#000000" transform="matrix(0.00, 1.00, 1.00, -0.00, 689.0, 463.1)">i</text><text xml:space="preserve" font-family="Helvetica-Light" font-size="28.0" fill="#000000" transform="matrix(0.00, 1.00, 1.00, -0.00, 689.0, 469.4)">a</text><text xml:space="preserve" font-family="Helvetica-Light" font-size="28.0" fill="#000000" transform="matrix(0.00, 1.00, 1.00, -0.00, 689.0, 484.9)">l</text></g></g><g><clipPath id="clip-143"><path d="M 700.3 433.1 L 700.3 476.1 L 748.3 476.1 L 748.3 433.1 Z M 700.3 433.1 "></path></clipPath><g clip-path="url(#clip-143)"><text xml:space="preserve" font-family="Helvetica-Light" font-size="28.0" fill="#000000" transform="matrix(0.00, 1.00, 1.00, -0.00, 735.0, 441.0)">…</text></g></g><g><clipPath id="clip-144"><path d="M 523.6 320.7 L 554.2 320.7 L 554.2 368.7 L 523.6 368.7 Z M 523.6 320.7 "></path></clipPath><g clip-path="url(#clip-144)"><text xml:space="preserve" font-family="Helvetica-Light" font-size="28.0" fill="#000000" transform="matrix(1.00, 0.00, -0.00, -1.00, 531.0, 334.0)">1</text></g></g><g><clipPath id="clip-145"><path d="M 570.0 320.7 L 600.5 320.7 L 600.5 368.7 L 570.0 368.7 Z M 570.0 320.7 "></path></clipPath><g clip-path="url(#clip-145)"><text xml:space="preserve" font-family="Helvetica-Light" font-size="28.0" fill="#000000" transform="matrix(1.00, 0.00, -0.00, -1.00, 577.0, 334.0)">1</text></g></g><g><clipPath id="clip-146"><path d="M 477.2 277.3 L 507.8 277.3 L 507.8 325.3 L 477.2 325.3 Z M 477.2 277.3 "></path></clipPath><g clip-path="url(#clip-146)"><text xml:space="preserve" font-family="Helvetica-Light" font-size="28.0" fill="#000000" transform="matrix(1.00, 0.00, -0.00, -1.00, 485.0, 291.0)">2</text></g></g><g><clipPath id="clip-147"><path d="M 523.6 186.5 L 554.2 186.5 L 554.2 234.5 L 523.6 234.5 Z M 523.6 186.5 "></path></clipPath><g clip-path="url(#clip-147)"><text xml:space="preserve" font-family="Helvetica-Light" font-size="28.0" fill="#000000" transform="matrix(1.00, 0.00, -0.00, -1.00, 531.0, 200.0)">2</text></g></g><g><clipPath id="clip-148"><path d="M 477.2 141.0 L 507.8 141.0 L 507.8 189.0 L 477.2 189.0 Z M 477.2 141.0 "></path></clipPath><g clip-path="url(#clip-148)"><text xml:space="preserve" font-family="Helvetica-Light" font-size="28.0" fill="#000000" transform="matrix(1.00, 0.00, -0.00, -1.00, 485.0, 154.0)">1</text></g></g><g><clipPath id="clip-149"><path d="M 523.6 232.5 L 554.2 232.5 L 554.2 280.5 L 523.6 280.5 Z M 523.6 232.5 "></path></clipPath><g clip-path="url(#clip-149)"><text xml:space="preserve" font-family="Helvetica-Light" font-size="28.0" fill="#000000" transform="matrix(1.00, 0.00, -0.00, -1.00, 531.0, 246.0)">2</text></g></g><g><clipPath id="clip-150"><path d="M 616.3 231.9 L 646.9 231.9 L 646.9 279.9 L 616.3 279.9 Z M 616.3 231.9 "></path></clipPath><g clip-path="url(#clip-150)"><text xml:space="preserve" font-family="Helvetica-Light" font-size="28.0" fill="#000000" transform="matrix(1.00, 0.00, -0.00, -1.00, 624.0, 245.0)">1</text></g></g><g><clipPath id="clip-151"><path d="M 662.7 186.5 L 693.2 186.5 L 693.2 234.5 L 662.7 234.5 Z M 662.7 186.5 "></path></clipPath><g clip-path="url(#clip-151)"><text xml:space="preserve" font-family="Helvetica-Light" font-size="28.0" fill="#000000" transform="matrix(1.00, 0.00, -0.00, -1.00, 670.0, 200.0)">1</text></g></g><g><clipPath id="clip-152"><path d="M 616.3 141.0 L 646.9 141.0 L 646.9 189.0 L 616.3 189.0 Z M 616.3 141.0 "></path></clipPath><g clip-path="url(#clip-152)"><text xml:space="preserve" font-family="Helvetica-Light" font-size="28.0" fill="#000000" transform="matrix(1.00, 0.00, -0.00, -1.00, 624.0, 154.0)">3</text></g></g><text xml:space="preserve" font-family="Helvetica-Light" font-size="28.0" fill="#000000" transform="matrix(1.00, 0.00, -0.00, -1.00, 667.0, 291.0)">1</text><path d="M 0.0 0.0 L 334.3 0.0 " fill="none" stroke="#000000" stroke-width="2.00" transform="matrix(-0.73, 0.68, 0.68, 0.73, 471.6, 369.2)"></path></g></svg>