<?xml version="1.0" encoding="UTF-8" standalone="no"?><svg xmlns="http://www.w3.org/2000/svg" xmlns:xlink="http://www.w3.org/1999/xlink" clip-rule="evenodd" stroke-miterlimit="4.00" viewBox="0 0 1024 768"><desc>SVG generated by Keynote</desc><defs></defs><g transform="matrix(1.00, 0.00, -0.00, -1.00, 0.0, 768.0)"><path d="M 0.0 768.0 L 1024.0 768.0 L 1024.0 0.0 L 0.0 0.0 Z M 0.0 768.0 " fill="#000000"></path><text xml:space="preserve" font-family="Helvetica-Light" font-size="80.0" fill="#FEFFFF" transform="matrix(1.00, 0.00, -0.00, -1.00, 370.0, 633.0)">A</text><text xml:space="preserve" font-family="Helvetica-Light" font-size="80.0" fill="#FEFFFF" transform="matrix(1.00, 0.00, -0.00, -1.00, 423.4, 633.0)">g</text><text xml:space="preserve" font-family="Helvetica-Light" font-size="80.0" fill="#FEFFFF" transform="matrix(1.00, 0.00, -0.00, -1.00, 472.2, 633.0)">e</text><text xml:space="preserve" font-family="Helvetica-Light" font-size="80.0" fill="#FEFFFF" transform="matrix(1.00, 0.00, -0.00, -1.00, 516.7, 633.0)">n</text><text xml:space="preserve" font-family="Helvetica-Light" font-size="80.0" fill="#FEFFFF" transform="matrix(1.00, 0.00, -0.00, -1.00, 561.2, 633.0)">d</text><text xml:space="preserve" font-family="Helvetica-Light" font-size="80.0" fill="#FEFFFF" transform="matrix(1.00, 0.00, -0.00, -1.00, 610.1, 633.0)">a</text><text xml:space="preserve" font-family="Helvetica-Light" font-size="28.5" fill="#52575F" transform="matrix(1.00, 0.00, -0.00, -1.00, 79.0, 481.1)">•</text><text xml:space="preserve" font-family="Helvetica-Light" font-size="38.0" fill="#52575F" transform="matrix(1.00, 0.00, -0.00, -1.00, 114.0, 478.0)">M</text><text xml:space="preserve" font-family="Helvetica-Light" font-size="38.0" fill="#52575F" transform="matrix(1.00, 0.00, -0.00, -1.00, 145.7, 478.0)">a</text><text xml:space="preserve" font-family="Helvetica-Light" font-size="38.0" fill="#52575F" transform="matrix(1.00, 0.00, -0.00, -1.00, 166.8, 478.0)">t</text><text xml:space="preserve" font-family="Helvetica-Light" font-size="38.0" fill="#52575F" transform="matrix(1.00, 0.00, -0.00, -1.00, 177.3, 478.0)">h</text><text xml:space="preserve" font-family="Helvetica-Light" font-size="38.0" fill="#52575F" transform="matrix(1.00, 0.00, -0.00, -1.00, 198.5, 478.0)">e</text><text xml:space="preserve" font-family="Helvetica-Light" font-size="38.0" fill="#52575F" transform="matrix(1.00, 0.00, -0.00, -1.00, 219.6, 478.0)">m</text><text xml:space="preserve" font-family="Helvetica-Light" font-size="38.0" fill="#52575F" transform="matrix(1.00, 0.00, -0.00, -1.00, 251.3, 478.0)">a</text><text xml:space="preserve" font-family="Helvetica-Light" font-size="38.0" fill="#52575F" transform="matrix(1.00, 0.00, -0.00, -1.00, 272.4, 478.0)">t</text><text xml:space="preserve" font-family="Helvetica-Light" font-size="38.0" fill="#52575F" transform="matrix(1.00, 0.00, -0.00, -1.00, 282.9, 478.0)">i</text><text xml:space="preserve" font-family="Helvetica-Light" font-size="38.0" fill="#52575F" transform="matrix(1.00, 0.00, -0.00, -1.00, 291.4, 478.0)">c</text><text xml:space="preserve" font-family="Helvetica-Light" font-size="38.0" fill="#52575F" transform="matrix(1.00, 0.00, -0.00, -1.00, 312.5, 478.0)">a</text><text xml:space="preserve" font-family="Helvetica-Light" font-size="38.0" fill="#52575F" transform="matrix(1.00, 0.00, -0.00, -1.00, 333.6, 478.0)">l</text><text xml:space="preserve" font-family="Helvetica-Light" font-size="38.0" fill="#52575F" transform="matrix(1.00, 0.00, -0.00, -1.00, 342.1, 478.0)"> </text><text xml:space="preserve" font-family="Helvetica-Light" font-size="38.0" fill="#52575F" transform="matrix(1.00, 0.00, -0.00, -1.00, 352.6, 478.0)">s</text><text xml:space="preserve" font-family="Helvetica-Light" font-size="38.0" fill="#52575F" transform="matrix(1.00, 0.00, -0.00, -1.00, 371.6, 478.0)">t</text><text xml:space="preserve" font-family="Helvetica-Light" font-size="38.0" fill="#52575F" transform="matrix(1.00, 0.00, -0.00, -1.00, 382.2, 478.0)">r</text><text xml:space="preserve" font-family="Helvetica-Light" font-size="38.0" fill="#52575F" transform="matrix(1.00, 0.00, -0.00, -1.00, 394.9, 478.0)">u</text><text xml:space="preserve" font-family="Helvetica-Light" font-size="38.0" fill="#52575F" transform="matrix(1.00, 0.00, -0.00, -1.00, 416.0, 478.0)">c</text><text xml:space="preserve" font-family="Helvetica-Light" font-size="38.0" fill="#52575F" transform="matrix(1.00, 0.00, -0.00, -1.00, 437.1, 478.0)">t</text><text xml:space="preserve" font-family="Helvetica-Light" font-size="38.0" fill="#52575F" transform="matrix(1.00, 0.00, -0.00, -1.00, 447.7, 478.0)">u</text><text xml:space="preserve" font-family="Helvetica-Light" font-size="38.0" fill="#52575F" transform="matrix(1.00, 0.00, -0.00, -1.00, 468.8, 478.0)">r</text><text xml:space="preserve" font-family="Helvetica-Light" font-size="38.0" fill="#52575F" transform="matrix(1.00, 0.00, -0.00, -1.00, 480.8, 478.0)">e</text><text xml:space="preserve" font-family="Helvetica-Light" font-size="38.0" fill="#52575F" transform="matrix(1.00, 0.00, -0.00, -1.00, 501.9, 478.0)">s</text><text xml:space="preserve" font-family="Helvetica-Light" font-size="38.0" fill="#52575F" transform="matrix(1.00, 0.00, -0.00, -1.00, 520.9, 478.0)"> </text><text xml:space="preserve" font-family="Helvetica-Light" font-size="38.0" fill="#52575F" transform="matrix(1.00, 0.00, -0.00, -1.00, 531.5, 478.0)">i</text><text xml:space="preserve" font-family="Helvetica-Light" font-size="38.0" fill="#52575F" transform="matrix(1.00, 0.00, -0.00, -1.00, 539.9, 478.0)">n</text><text xml:space="preserve" font-family="Helvetica-Light" font-size="38.0" fill="#52575F" transform="matrix(1.00, 0.00, -0.00, -1.00, 561.0, 478.0)"> </text><text xml:space="preserve" font-family="Helvetica-Light" font-size="38.0" fill="#52575F" transform="matrix(1.00, 0.00, -0.00, -1.00, 571.6, 478.0)">N</text><text xml:space="preserve" font-family="Helvetica-Light" font-size="38.0" fill="#52575F" transform="matrix(1.00, 0.00, -0.00, -1.00, 599.0, 478.0)">L</text><text xml:space="preserve" font-family="Helvetica-Light" font-size="38.0" fill="#52575F" transform="matrix(1.00, 0.00, -0.00, -1.00, 620.2, 478.0)">P</text><text xml:space="preserve" font-family="Helvetica-Light" font-size="38.0" fill="#52575F" transform="matrix(1.00, 0.00, -0.00, -1.00, 643.4, 478.0)"> </text><text xml:space="preserve" font-family="Helvetica-Light" font-size="28.5" fill="#52575F" transform="matrix(1.00, 0.00, -0.00, -1.00, 79.0, 393.1)">•</text><text xml:space="preserve" font-family="Helvetica-Light" font-size="38.0" fill="#52575F" transform="matrix(1.00, 0.00, -0.00, -1.00, 114.0, 390.0)">N</text><text xml:space="preserve" font-family="Helvetica-Light" font-size="38.0" fill="#52575F" transform="matrix(1.00, 0.00, -0.00, -1.00, 141.4, 390.0)">L</text><text xml:space="preserve" font-family="Helvetica-Light" font-size="38.0" fill="#52575F" transform="matrix(1.00, 0.00, -0.00, -1.00, 162.6, 390.0)">P</text><text xml:space="preserve" font-family="Helvetica-Light" font-size="38.0" fill="#52575F" transform="matrix(1.00, 0.00, -0.00, -1.00, 185.8, 390.0)">’</text><text xml:space="preserve" font-family="Helvetica-Light" font-size="38.0" fill="#52575F" transform="matrix(1.00, 0.00, -0.00, -1.00, 191.4, 390.0)">s</text><text xml:space="preserve" font-family="Helvetica-Light" font-size="38.0" fill="#52575F" transform="matrix(1.00, 0.00, -0.00, -1.00, 210.4, 390.0)"> </text><text xml:space="preserve" font-family="Helvetica-Light" font-size="38.0" fill="#52575F" transform="matrix(1.00, 0.00, -0.00, -1.00, 221.0, 390.0)">s</text><text xml:space="preserve" font-family="Helvetica-Light" font-size="38.0" fill="#52575F" transform="matrix(1.00, 0.00, -0.00, -1.00, 240.0, 390.0)">c</text><text xml:space="preserve" font-family="Helvetica-Light" font-size="38.0" fill="#52575F" transform="matrix(1.00, 0.00, -0.00, -1.00, 261.1, 390.0)">a</text><text xml:space="preserve" font-family="Helvetica-Light" font-size="38.0" fill="#52575F" transform="matrix(1.00, 0.00, -0.00, -1.00, 282.2, 390.0)">l</text><text xml:space="preserve" font-family="Helvetica-Light" font-size="38.0" fill="#52575F" transform="matrix(1.00, 0.00, -0.00, -1.00, 290.7, 390.0)">e</text><text xml:space="preserve" font-family="Helvetica-Light" font-size="38.0" fill="#52575F" transform="matrix(1.00, 0.00, -0.00, -1.00, 311.8, 390.0)">a</text><text xml:space="preserve" font-family="Helvetica-Light" font-size="38.0" fill="#52575F" transform="matrix(1.00, 0.00, -0.00, -1.00, 332.9, 390.0)">b</text><text xml:space="preserve" font-family="Helvetica-Light" font-size="38.0" fill="#52575F" transform="matrix(1.00, 0.00, -0.00, -1.00, 356.1, 390.0)">i</text><text xml:space="preserve" font-family="Helvetica-Light" font-size="38.0" fill="#52575F" transform="matrix(1.00, 0.00, -0.00, -1.00, 364.6, 390.0)">l</text><text xml:space="preserve" font-family="Helvetica-Light" font-size="38.0" fill="#52575F" transform="matrix(1.00, 0.00, -0.00, -1.00, 373.0, 390.0)">i</text><text xml:space="preserve" font-family="Helvetica-Light" font-size="38.0" fill="#52575F" transform="matrix(1.00, 0.00, -0.00, -1.00, 381.4, 390.0)">t</text><text xml:space="preserve" font-family="Helvetica-Light" font-size="38.0" fill="#52575F" transform="matrix(1.00, 0.00, -0.00, -1.00, 392.0, 390.0)">y</text><text xml:space="preserve" font-family="Helvetica-Light" font-size="38.0" fill="#52575F" transform="matrix(1.00, 0.00, -0.00, -1.00, 411.0, 390.0)"> </text><text xml:space="preserve" font-family="Helvetica-Light" font-size="38.0" fill="#52575F" transform="matrix(1.00, 0.00, -0.00, -1.00, 421.6, 390.0)">p</text><text xml:space="preserve" font-family="Helvetica-Light" font-size="38.0" fill="#52575F" transform="matrix(1.00, 0.00, -0.00, -1.00, 444.8, 390.0)">r</text><text xml:space="preserve" font-family="Helvetica-Light" font-size="38.0" fill="#52575F" transform="matrix(1.00, 0.00, -0.00, -1.00, 456.8, 390.0)">o</text><text xml:space="preserve" font-family="Helvetica-Light" font-size="38.0" fill="#52575F" transform="matrix(1.00, 0.00, -0.00, -1.00, 477.9, 390.0)">b</text><text xml:space="preserve" font-family="Helvetica-Light" font-size="38.0" fill="#52575F" transform="matrix(1.00, 0.00, -0.00, -1.00, 501.1, 390.0)">l</text><text xml:space="preserve" font-family="Helvetica-Light" font-size="38.0" fill="#52575F" transform="matrix(1.00, 0.00, -0.00, -1.00, 509.5, 390.0)">e</text><text xml:space="preserve" font-family="Helvetica-Light" font-size="38.0" fill="#52575F" transform="matrix(1.00, 0.00, -0.00, -1.00, 530.7, 390.0)">m</text><text xml:space="preserve" font-family="Helvetica-Light" font-size="38.0" fill="#52575F" transform="matrix(1.00, 0.00, -0.00, -1.00, 562.3, 390.0)"> </text><text xml:space="preserve" font-family="Helvetica-Bold" font-weight="bold" font-size="28.5" fill="#FEFFFF" transform="matrix(1.00, 0.00, -0.00, -1.00, 79.0, 305.1)">•</text><text xml:space="preserve" font-family="Helvetica-Bold" font-weight="bold" font-size="38.0" fill="#FEFFFF" transform="matrix(1.00, 0.00, -0.00, -1.00, 114.0, 302.0)">A</text><text xml:space="preserve" font-family="Helvetica-Bold" font-weight="bold" font-size="38.0" fill="#FEFFFF" transform="matrix(1.00, 0.00, -0.00, -1.00, 141.4, 302.0)">n</text><text xml:space="preserve" font-family="Helvetica-Bold" font-weight="bold" font-size="38.0" fill="#FEFFFF" transform="matrix(1.00, 0.00, -0.00, -1.00, 164.7, 302.0)"> </text><text xml:space="preserve" font-family="Helvetica-Bold" font-weight="bold" font-size="38.0" fill="#FEFFFF" transform="matrix(1.00, 0.00, -0.00, -1.00, 175.2, 302.0)">i</text><text xml:space="preserve" font-family="Helvetica-Bold" font-weight="bold" font-size="38.0" fill="#FEFFFF" transform="matrix(1.00, 0.00, -0.00, -1.00, 185.8, 302.0)">d</text><text xml:space="preserve" font-family="Helvetica-Bold" font-weight="bold" font-size="38.0" fill="#FEFFFF" transform="matrix(1.00, 0.00, -0.00, -1.00, 209.0, 302.0)">e</text><text xml:space="preserve" font-family="Helvetica-Bold" font-weight="bold" font-size="38.0" fill="#FEFFFF" transform="matrix(1.00, 0.00, -0.00, -1.00, 230.1, 302.0)">a</text><text xml:space="preserve" font-family="Helvetica-Bold" font-weight="bold" font-size="38.0" fill="#FEFFFF" transform="matrix(1.00, 0.00, -0.00, -1.00, 251.2, 302.0)">l</text><text xml:space="preserve" font-family="Helvetica-Bold" font-weight="bold" font-size="38.0" fill="#FEFFFF" transform="matrix(1.00, 0.00, -0.00, -1.00, 261.8, 302.0)"> </text><text xml:space="preserve" font-family="Helvetica-Bold" font-weight="bold" font-size="38.0" fill="#FEFFFF" transform="matrix(1.00, 0.00, -0.00, -1.00, 272.3, 302.0)">f</text><text xml:space="preserve" font-family="Helvetica-Bold" font-weight="bold" font-size="38.0" fill="#FEFFFF" transform="matrix(1.00, 0.00, -0.00, -1.00, 285.0, 302.0)">r</text><text xml:space="preserve" font-family="Helvetica-Bold" font-weight="bold" font-size="38.0" fill="#FEFFFF" transform="matrix(1.00, 0.00, -0.00, -1.00, 299.8, 302.0)">a</text><text xml:space="preserve" font-family="Helvetica-Bold" font-weight="bold" font-size="38.0" fill="#FEFFFF" transform="matrix(1.00, 0.00, -0.00, -1.00, 320.9, 302.0)">m</text><text xml:space="preserve" font-family="Helvetica-Bold" font-weight="bold" font-size="38.0" fill="#FEFFFF" transform="matrix(1.00, 0.00, -0.00, -1.00, 354.7, 302.0)">e</text><text xml:space="preserve" font-family="Helvetica-Bold" font-weight="bold" font-size="38.0" fill="#FEFFFF" transform="matrix(1.00, 0.00, -0.00, -1.00, 375.9, 302.0)">w</text><text xml:space="preserve" font-family="Helvetica-Bold" font-weight="bold" font-size="38.0" fill="#FEFFFF" transform="matrix(1.00, 0.00, -0.00, -1.00, 405.4, 302.0)">o</text><text xml:space="preserve" font-family="Helvetica-Bold" font-weight="bold" font-size="38.0" fill="#FEFFFF" transform="matrix(1.00, 0.00, -0.00, -1.00, 428.6, 302.0)">r</text><text xml:space="preserve" font-family="Helvetica-Bold" font-weight="bold" font-size="38.0" fill="#FEFFFF" transform="matrix(1.00, 0.00, -0.00, -1.00, 443.4, 302.0)">k</text><text xml:space="preserve" font-family="Helvetica-Bold" font-weight="bold" font-size="38.0" fill="#FEFFFF" transform="matrix(1.00, 0.00, -0.00, -1.00, 464.6, 302.0)"> </text><text xml:space="preserve" font-family="Helvetica-Bold" font-weight="bold" font-size="38.0" fill="#FEFFFF" transform="matrix(1.00, 0.00, -0.00, -1.00, 475.1, 302.0)">f</text><text xml:space="preserve" font-family="Helvetica-Bold" font-weight="bold" font-size="38.0" fill="#FEFFFF" transform="matrix(1.00, 0.00, -0.00, -1.00, 487.8, 302.0)">o</text><text xml:space="preserve" font-family="Helvetica-Bold" font-weight="bold" font-size="38.0" fill="#FEFFFF" transform="matrix(1.00, 0.00, -0.00, -1.00, 511.0, 302.0)">r</text><text xml:space="preserve" font-family="Helvetica-Bold" font-weight="bold" font-size="38.0" fill="#FEFFFF" transform="matrix(1.00, 0.00, -0.00, -1.00, 525.8, 302.0)"> </text><text xml:space="preserve" font-family="Helvetica-Bold" font-weight="bold" font-size="38.0" fill="#FEFFFF" transform="matrix(1.00, 0.00, -0.00, -1.00, 536.3, 302.0)">N</text><text xml:space="preserve" font-family="Helvetica-Bold" font-weight="bold" font-size="38.0" fill="#FEFFFF" transform="matrix(1.00, 0.00, -0.00, -1.00, 563.8, 302.0)">L</text><text xml:space="preserve" font-family="Helvetica-Bold" font-weight="bold" font-size="38.0" fill="#FEFFFF" transform="matrix(1.00, 0.00, -0.00, -1.00, 587.0, 302.0)">P</text><text xml:space="preserve" font-family="Helvetica-Light" font-size="28.5" fill="#52575F" transform="matrix(1.00, 0.00, -0.00, -1.00, 79.0, 217.1)">•</text><text xml:space="preserve" font-family="Helvetica-Light" font-size="38.0" fill="#52575F" transform="matrix(1.00, 0.00, -0.00, -1.00, 114.0, 214.0)">A</text><text xml:space="preserve" font-family="Helvetica-Light" font-size="38.0" fill="#52575F" transform="matrix(1.00, 0.00, -0.00, -1.00, 139.3, 214.0)">n</text><text xml:space="preserve" font-family="Helvetica-Light" font-size="38.0" fill="#52575F" transform="matrix(1.00, 0.00, -0.00, -1.00, 160.5, 214.0)"> </text><text xml:space="preserve" font-family="Helvetica-Light" font-size="38.0" fill="#52575F" transform="matrix(1.00, 0.00, -0.00, -1.00, 171.0, 214.0)">o</text><text xml:space="preserve" font-family="Helvetica-Light" font-size="38.0" fill="#52575F" transform="matrix(1.00, 0.00, -0.00, -1.00, 192.2, 214.0)">v</text><text xml:space="preserve" font-family="Helvetica-Light" font-size="38.0" fill="#52575F" transform="matrix(1.00, 0.00, -0.00, -1.00, 211.2, 214.0)">e</text><text xml:space="preserve" font-family="Helvetica-Light" font-size="38.0" fill="#52575F" transform="matrix(1.00, 0.00, -0.00, -1.00, 232.3, 214.0)">r</text><text xml:space="preserve" font-family="Helvetica-Light" font-size="38.0" fill="#52575F" transform="matrix(1.00, 0.00, -0.00, -1.00, 244.9, 214.0)">v</text><text xml:space="preserve" font-family="Helvetica-Light" font-size="38.0" fill="#52575F" transform="matrix(1.00, 0.00, -0.00, -1.00, 263.9, 214.0)">i</text><text xml:space="preserve" font-family="Helvetica-Light" font-size="38.0" fill="#52575F" transform="matrix(1.00, 0.00, -0.00, -1.00, 272.4, 214.0)">e</text><text xml:space="preserve" font-family="Helvetica-Light" font-size="38.0" fill="#52575F" transform="matrix(1.00, 0.00, -0.00, -1.00, 293.5, 214.0)">w</text><text xml:space="preserve" font-family="Helvetica-Light" font-size="38.0" fill="#52575F" transform="matrix(1.00, 0.00, -0.00, -1.00, 320.9, 214.0)"> </text><text xml:space="preserve" font-family="Helvetica-Light" font-size="38.0" fill="#52575F" transform="matrix(1.00, 0.00, -0.00, -1.00, 331.5, 214.0)">o</text><text xml:space="preserve" font-family="Helvetica-Light" font-size="38.0" fill="#52575F" transform="matrix(1.00, 0.00, -0.00, -1.00, 352.6, 214.0)">f</text><text xml:space="preserve" font-family="Helvetica-Light" font-size="38.0" fill="#52575F" transform="matrix(1.00, 0.00, -0.00, -1.00, 363.2, 214.0)"> </text><text xml:space="preserve" font-family="Helvetica-Light" font-size="38.0" fill="#52575F" transform="matrix(1.00, 0.00, -0.00, -1.00, 373.8, 214.0)">t</text><text xml:space="preserve" font-family="Helvetica-Light" font-size="38.0" fill="#52575F" transform="matrix(1.00, 0.00, -0.00, -1.00, 384.3, 214.0)">e</text><text xml:space="preserve" font-family="Helvetica-Light" font-size="38.0" fill="#52575F" transform="matrix(1.00, 0.00, -0.00, -1.00, 405.5, 214.0)">x</text><text xml:space="preserve" font-family="Helvetica-Light" font-size="38.0" fill="#52575F" transform="matrix(1.00, 0.00, -0.00, -1.00, 424.5, 214.0)">t</text><text xml:space="preserve" font-family="Helvetica-Light" font-size="38.0" fill="#52575F" transform="matrix(1.00, 0.00, -0.00, -1.00, 435.0, 214.0)">m</text><text xml:space="preserve" font-family="Helvetica-Light" font-size="38.0" fill="#52575F" transform="matrix(1.00, 0.00, -0.00, -1.00, 466.7, 214.0)">i</text><text xml:space="preserve" font-family="Helvetica-Light" font-size="38.0" fill="#52575F" transform="matrix(1.00, 0.00, -0.00, -1.00, 475.1, 214.0)">n</text><text xml:space="preserve" font-family="Helvetica-Light" font-size="38.0" fill="#52575F" transform="matrix(1.00, 0.00, -0.00, -1.00, 496.2, 214.0)">e</text><text xml:space="preserve" font-family="Helvetica-Light" font-size="38.0" fill="#52575F" transform="matrix(1.00, 0.00, -0.00, -1.00, 517.4, 214.0)">R</text><text xml:space="preserve" font-family="Helvetica-Light" font-size="38.0" fill="#52575F" transform="matrix(1.00, 0.00, -0.00, -1.00, 542.7, 214.0)">’</text><text xml:space="preserve" font-family="Helvetica-Light" font-size="38.0" fill="#52575F" transform="matrix(1.00, 0.00, -0.00, -1.00, 548.3, 214.0)">s</text><text xml:space="preserve" font-family="Helvetica-Light" font-size="38.0" fill="#52575F" transform="matrix(1.00, 0.00, -0.00, -1.00, 567.3, 214.0)"> </text><text xml:space="preserve" font-family="Helvetica-Light" font-size="38.0" fill="#52575F" transform="matrix(1.00, 0.00, -0.00, -1.00, 577.9, 214.0)">m</text><text xml:space="preserve" font-family="Helvetica-Light" font-size="38.0" fill="#52575F" transform="matrix(1.00, 0.00, -0.00, -1.00, 609.6, 214.0)">a</text><text xml:space="preserve" font-family="Helvetica-Light" font-size="38.0" fill="#52575F" transform="matrix(1.00, 0.00, -0.00, -1.00, 630.7, 214.0)">i</text><text xml:space="preserve" font-family="Helvetica-Light" font-size="38.0" fill="#52575F" transform="matrix(1.00, 0.00, -0.00, -1.00, 639.1, 214.0)">n</text><text xml:space="preserve" font-family="Helvetica-Light" font-size="38.0" fill="#52575F" transform="matrix(1.00, 0.00, -0.00, -1.00, 660.2, 214.0)"> </text><text xml:space="preserve" font-family="Helvetica-Light" font-size="38.0" fill="#52575F" transform="matrix(1.00, 0.00, -0.00, -1.00, 670.8, 214.0)">f</text><text xml:space="preserve" font-family="Helvetica-Light" font-size="38.0" fill="#52575F" transform="matrix(1.00, 0.00, -0.00, -1.00, 681.4, 214.0)">u</text><text xml:space="preserve" font-family="Helvetica-Light" font-size="38.0" fill="#52575F" transform="matrix(1.00, 0.00, -0.00, -1.00, 702.5, 214.0)">n</text><text xml:space="preserve" font-family="Helvetica-Light" font-size="38.0" fill="#52575F" transform="matrix(1.00, 0.00, -0.00, -1.00, 723.6, 214.0)">c</text><text xml:space="preserve" font-family="Helvetica-Light" font-size="38.0" fill="#52575F" transform="matrix(1.00, 0.00, -0.00, -1.00, 744.8, 214.0)">t</text><text xml:space="preserve" font-family="Helvetica-Light" font-size="38.0" fill="#52575F" transform="matrix(1.00, 0.00, -0.00, -1.00, 755.3, 214.0)">i</text><text xml:space="preserve" font-family="Helvetica-Light" font-size="38.0" fill="#52575F" transform="matrix(1.00, 0.00, -0.00, -1.00, 763.8, 214.0)">o</text><text xml:space="preserve" font-family="Helvetica-Light" font-size="38.0" fill="#52575F" transform="matrix(1.00, 0.00, -0.00, -1.00, 784.9, 214.0)">n</text><text xml:space="preserve" font-family="Helvetica-Light" font-size="38.0" fill="#52575F" transform="matrix(1.00, 0.00, -0.00, -1.00, 806.0, 214.0)">s</text><text xml:space="preserve" font-family="Helvetica-Light" font-size="38.0" fill="#52575F" transform="matrix(1.00, 0.00, -0.00, -1.00, 825.0, 214.0)"> </text><text xml:space="preserve" font-family="Helvetica-Light" font-size="28.5" fill="#52575F" transform="matrix(1.00, 0.00, -0.00, -1.00, 79.0, 129.1)">•</text><text xml:space="preserve" font-family="Helvetica-Light" font-size="38.0" fill="#52575F" transform="matrix(1.00, 0.00, -0.00, -1.00, 114.0, 126.0)">E</text><text xml:space="preserve" font-family="Helvetica-Light" font-size="38.0" fill="#52575F" transform="matrix(1.00, 0.00, -0.00, -1.00, 137.2, 126.0)">x</text><text xml:space="preserve" font-family="Helvetica-Light" font-size="38.0" fill="#52575F" transform="matrix(1.00, 0.00, -0.00, -1.00, 156.2, 126.0)">a</text><text xml:space="preserve" font-family="Helvetica-Light" font-size="38.0" fill="#52575F" transform="matrix(1.00, 0.00, -0.00, -1.00, 177.3, 126.0)">m</text><text xml:space="preserve" font-family="Helvetica-Light" font-size="38.0" fill="#52575F" transform="matrix(1.00, 0.00, -0.00, -1.00, 209.0, 126.0)">p</text><text xml:space="preserve" font-family="Helvetica-Light" font-size="38.0" fill="#52575F" transform="matrix(1.00, 0.00, -0.00, -1.00, 232.2, 126.0)">l</text><text xml:space="preserve" font-family="Helvetica-Light" font-size="38.0" fill="#52575F" transform="matrix(1.00, 0.00, -0.00, -1.00, 240.7, 126.0)">e</text><text xml:space="preserve" font-family="Helvetica-Light" font-size="38.0" fill="#52575F" transform="matrix(1.00, 0.00, -0.00, -1.00, 261.8, 126.0)">:</text><text xml:space="preserve" font-family="Helvetica-Light" font-size="38.0" fill="#52575F" transform="matrix(1.00, 0.00, -0.00, -1.00, 272.3, 126.0)"> </text><text xml:space="preserve" font-family="Helvetica-Light" font-size="38.0" fill="#52575F" transform="matrix(1.00, 0.00, -0.00, -1.00, 282.9, 126.0)">d</text><text xml:space="preserve" font-family="Helvetica-Light" font-size="38.0" fill="#52575F" transform="matrix(1.00, 0.00, -0.00, -1.00, 306.1, 126.0)">o</text><text xml:space="preserve" font-family="Helvetica-Light" font-size="38.0" fill="#52575F" transform="matrix(1.00, 0.00, -0.00, -1.00, 327.3, 126.0)">c</text><text xml:space="preserve" font-family="Helvetica-Light" font-size="38.0" fill="#52575F" transform="matrix(1.00, 0.00, -0.00, -1.00, 348.4, 126.0)">u</text><text xml:space="preserve" font-family="Helvetica-Light" font-size="38.0" fill="#52575F" transform="matrix(1.00, 0.00, -0.00, -1.00, 369.5, 126.0)">m</text><text xml:space="preserve" font-family="Helvetica-Light" font-size="38.0" fill="#52575F" transform="matrix(1.00, 0.00, -0.00, -1.00, 401.2, 126.0)">e</text><text xml:space="preserve" font-family="Helvetica-Light" font-size="38.0" fill="#52575F" transform="matrix(1.00, 0.00, -0.00, -1.00, 422.3, 126.0)">n</text><text xml:space="preserve" font-family="Helvetica-Light" font-size="38.0" fill="#52575F" transform="matrix(1.00, 0.00, -0.00, -1.00, 443.4, 126.0)">t</text><text xml:space="preserve" font-family="Helvetica-Light" font-size="38.0" fill="#52575F" transform="matrix(1.00, 0.00, -0.00, -1.00, 454.0, 126.0)"> </text><text xml:space="preserve" font-family="Helvetica-Light" font-size="38.0" fill="#52575F" transform="matrix(1.00, 0.00, -0.00, -1.00, 464.5, 126.0)">s</text><text xml:space="preserve" font-family="Helvetica-Light" font-size="38.0" fill="#52575F" transform="matrix(1.00, 0.00, -0.00, -1.00, 483.5, 126.0)">u</text><text xml:space="preserve" font-family="Helvetica-Light" font-size="38.0" fill="#52575F" transform="matrix(1.00, 0.00, -0.00, -1.00, 504.7, 126.0)">m</text><text xml:space="preserve" font-family="Helvetica-Light" font-size="38.0" fill="#52575F" transform="matrix(1.00, 0.00, -0.00, -1.00, 536.3, 126.0)">m</text><text xml:space="preserve" font-family="Helvetica-Light" font-size="38.0" fill="#52575F" transform="matrix(1.00, 0.00, -0.00, -1.00, 568.0, 126.0)">a</text><text xml:space="preserve" font-family="Helvetica-Light" font-size="38.0" fill="#52575F" transform="matrix(1.00, 0.00, -0.00, -1.00, 589.1, 126.0)">r</text><text xml:space="preserve" font-family="Helvetica-Light" font-size="38.0" fill="#52575F" transform="matrix(1.00, 0.00, -0.00, -1.00, 601.8, 126.0)">i</text><text xml:space="preserve" font-family="Helvetica-Light" font-size="38.0" fill="#52575F" transform="matrix(1.00, 0.00, -0.00, -1.00, 610.2, 126.0)">z</text><text xml:space="preserve" font-family="Helvetica-Light" font-size="38.0" fill="#52575F" transform="matrix(1.00, 0.00, -0.00, -1.00, 629.2, 126.0)">a</text><text xml:space="preserve" font-family="Helvetica-Light" font-size="38.0" fill="#52575F" transform="matrix(1.00, 0.00, -0.00, -1.00, 650.3, 126.0)">t</text><text xml:space="preserve" font-family="Helvetica-Light" font-size="38.0" fill="#52575F" transform="matrix(1.00, 0.00, -0.00, -1.00, 660.9, 126.0)">i</text><text xml:space="preserve" font-family="Helvetica-Light" font-size="38.0" fill="#52575F" transform="matrix(1.00, 0.00, -0.00, -1.00, 669.3, 126.0)">o</text><text xml:space="preserve" font-family="Helvetica-Light" font-size="38.0" fill="#52575F" transform="matrix(1.00, 0.00, -0.00, -1.00, 690.5, 126.0)">n</text></g></svg>