<?xml version="1.0" encoding="UTF-8" standalone="no"?><svg xmlns="http://www.w3.org/2000/svg" xmlns:xlink="http://www.w3.org/1999/xlink" clip-rule="evenodd" stroke-miterlimit="4.00" viewBox="0 0 1024 768"><desc>SVG generated by Keynote</desc><defs></defs><g transform="matrix(1.00, 0.00, -0.00, -1.00, 0.0, 768.0)"><path d="M 0.0 768.0 L 1024.0 768.0 L 1024.0 0.0 L 0.0 0.0 Z M 0.0 768.0 " fill="#000000"></path><text xml:space="preserve" font-family="Helvetica-Light" font-size="67.2" fill="#FEFFFF" transform="matrix(1.00, 0.00, -0.00, -1.00, 83.0, 638.0)">T</text><text xml:space="preserve" font-family="Helvetica-Light" font-size="67.2" fill="#FEFFFF" transform="matrix(1.00, 0.00, -0.00, -1.00, 112.9, 638.0)">o</text><text xml:space="preserve" font-family="Helvetica-Light" font-size="67.2" fill="#FEFFFF" transform="matrix(1.00, 0.00, -0.00, -1.00, 150.3, 638.0)">p</text><text xml:space="preserve" font-family="Helvetica-Light" font-size="67.2" fill="#FEFFFF" transform="matrix(1.00, 0.00, -0.00, -1.00, 191.3, 638.0)">i</text><text xml:space="preserve" font-family="Helvetica-Light" font-size="67.2" fill="#FEFFFF" transform="matrix(1.00, 0.00, -0.00, -1.00, 206.2, 638.0)">c</text><text xml:space="preserve" font-family="Helvetica-Light" font-size="67.2" fill="#FEFFFF" transform="matrix(1.00, 0.00, -0.00, -1.00, 243.6, 638.0)"> </text><text xml:space="preserve" font-family="Helvetica-Light" font-size="67.2" fill="#FEFFFF" transform="matrix(1.00, 0.00, -0.00, -1.00, 262.3, 638.0)">M</text><text xml:space="preserve" font-family="Helvetica-Light" font-size="67.2" fill="#FEFFFF" transform="matrix(1.00, 0.00, -0.00, -1.00, 318.3, 638.0)">o</text><text xml:space="preserve" font-family="Helvetica-Light" font-size="67.2" fill="#FEFFFF" transform="matrix(1.00, 0.00, -0.00, -1.00, 355.6, 638.0)">d</text><text xml:space="preserve" font-family="Helvetica-Light" font-size="67.2" fill="#FEFFFF" transform="matrix(1.00, 0.00, -0.00, -1.00, 396.7, 638.0)">e</text><text xml:space="preserve" font-family="Helvetica-Light" font-size="67.2" fill="#FEFFFF" transform="matrix(1.00, 0.00, -0.00, -1.00, 434.1, 638.0)">l</text><text xml:space="preserve" font-family="Helvetica-Light" font-size="67.2" fill="#FEFFFF" transform="matrix(1.00, 0.00, -0.00, -1.00, 449.0, 638.0)"> </text><text xml:space="preserve" font-family="Helvetica-Light" font-size="67.2" fill="#FEFFFF" transform="matrix(1.00, 0.00, -0.00, -1.00, 467.7, 638.0)">U</text><text xml:space="preserve" font-family="Helvetica-Light" font-size="67.2" fill="#FEFFFF" transform="matrix(1.00, 0.00, -0.00, -1.00, 516.2, 638.0)">t</text><text xml:space="preserve" font-family="Helvetica-Light" font-size="67.2" fill="#FEFFFF" transform="matrix(1.00, 0.00, -0.00, -1.00, 534.9, 638.0)">i</text><text xml:space="preserve" font-family="Helvetica-Light" font-size="67.2" fill="#FEFFFF" transform="matrix(1.00, 0.00, -0.00, -1.00, 549.8, 638.0)">l</text><text xml:space="preserve" font-family="Helvetica-Light" font-size="67.2" fill="#FEFFFF" transform="matrix(1.00, 0.00, -0.00, -1.00, 564.7, 638.0)">i</text><text xml:space="preserve" font-family="Helvetica-Light" font-size="67.2" fill="#FEFFFF" transform="matrix(1.00, 0.00, -0.00, -1.00, 579.6, 638.0)">t</text><text xml:space="preserve" font-family="Helvetica-Light" font-size="67.2" fill="#FEFFFF" transform="matrix(1.00, 0.00, -0.00, -1.00, 598.3, 638.0)">y</text><text xml:space="preserve" font-family="Helvetica-Light" font-size="67.2" fill="#FEFFFF" transform="matrix(1.00, 0.00, -0.00, -1.00, 631.9, 638.0)"> </text><text xml:space="preserve" font-family="Helvetica-Light" font-size="67.2" fill="#FEFFFF" transform="matrix(1.00, 0.00, -0.00, -1.00, 650.6, 638.0)">F</text><text xml:space="preserve" font-family="Helvetica-Light" font-size="67.2" fill="#FEFFFF" transform="matrix(1.00, 0.00, -0.00, -1.00, 687.9, 638.0)">u</text><text xml:space="preserve" font-family="Helvetica-Light" font-size="67.2" fill="#FEFFFF" transform="matrix(1.00, 0.00, -0.00, -1.00, 725.3, 638.0)">n</text><text xml:space="preserve" font-family="Helvetica-Light" font-size="67.2" fill="#FEFFFF" transform="matrix(1.00, 0.00, -0.00, -1.00, 762.7, 638.0)">c</text><text xml:space="preserve" font-family="Helvetica-Light" font-size="67.2" fill="#FEFFFF" transform="matrix(1.00, 0.00, -0.00, -1.00, 800.0, 638.0)">t</text><text xml:space="preserve" font-family="Helvetica-Light" font-size="67.2" fill="#FEFFFF" transform="matrix(1.00, 0.00, -0.00, -1.00, 818.7, 638.0)">i</text><text xml:space="preserve" font-family="Helvetica-Light" font-size="67.2" fill="#FEFFFF" transform="matrix(1.00, 0.00, -0.00, -1.00, 833.6, 638.0)">o</text><text xml:space="preserve" font-family="Helvetica-Light" font-size="67.2" fill="#FEFFFF" transform="matrix(1.00, 0.00, -0.00, -1.00, 871.0, 638.0)">n</text><text xml:space="preserve" font-family="Helvetica-Light" font-size="67.2" fill="#FEFFFF" transform="matrix(1.00, 0.00, -0.00, -1.00, 908.4, 638.0)">s</text><text xml:space="preserve" font-family="Helvetica-Bold" font-weight="bold" font-size="28.5" fill="#FEFFFF" transform="matrix(1.00, 0.00, -0.00, -1.00, 79.0, 525.1)">•</text><text xml:space="preserve" font-family="Helvetica-Bold" font-weight="bold" font-size="38.0" fill="#FEFFFF" transform="matrix(1.00, 0.00, -0.00, -1.00, 114.0, 522.0)">C</text><text xml:space="preserve" font-family="Helvetica-Bold" font-weight="bold" font-size="38.0" fill="#FEFFFF" transform="matrix(1.00, 0.00, -0.00, -1.00, 141.4, 522.0)">a</text><text xml:space="preserve" font-family="Helvetica-Bold" font-weight="bold" font-size="38.0" fill="#FEFFFF" transform="matrix(1.00, 0.00, -0.00, -1.00, 162.6, 522.0)">l</text><text xml:space="preserve" font-family="Helvetica-Bold" font-weight="bold" font-size="38.0" fill="#FEFFFF" transform="matrix(1.00, 0.00, -0.00, -1.00, 173.1, 522.0)">c</text><text xml:space="preserve" font-family="Helvetica-Bold" font-weight="bold" font-size="38.0" fill="#FEFFFF" transform="matrix(1.00, 0.00, -0.00, -1.00, 194.3, 522.0)">T</text><text xml:space="preserve" font-family="Helvetica-Bold" font-weight="bold" font-size="38.0" fill="#FEFFFF" transform="matrix(1.00, 0.00, -0.00, -1.00, 214.7, 522.0)">o</text><text xml:space="preserve" font-family="Helvetica-Bold" font-weight="bold" font-size="38.0" fill="#FEFFFF" transform="matrix(1.00, 0.00, -0.00, -1.00, 237.9, 522.0)">p</text><text xml:space="preserve" font-family="Helvetica-Bold" font-weight="bold" font-size="38.0" fill="#FEFFFF" transform="matrix(1.00, 0.00, -0.00, -1.00, 261.1, 522.0)">i</text><text xml:space="preserve" font-family="Helvetica-Bold" font-weight="bold" font-size="38.0" fill="#FEFFFF" transform="matrix(1.00, 0.00, -0.00, -1.00, 271.6, 522.0)">c</text><text xml:space="preserve" font-family="Helvetica-Bold" font-weight="bold" font-size="38.0" fill="#FEFFFF" transform="matrix(1.00, 0.00, -0.00, -1.00, 292.8, 522.0)">M</text><text xml:space="preserve" font-family="Helvetica-Bold" font-weight="bold" font-size="38.0" fill="#FEFFFF" transform="matrix(1.00, 0.00, -0.00, -1.00, 324.4, 522.0)">o</text><text xml:space="preserve" font-family="Helvetica-Bold" font-weight="bold" font-size="38.0" fill="#FEFFFF" transform="matrix(1.00, 0.00, -0.00, -1.00, 347.6, 522.0)">d</text><text xml:space="preserve" font-family="Helvetica-Bold" font-weight="bold" font-size="38.0" fill="#FEFFFF" transform="matrix(1.00, 0.00, -0.00, -1.00, 370.8, 522.0)">e</text><text xml:space="preserve" font-family="Helvetica-Bold" font-weight="bold" font-size="38.0" fill="#FEFFFF" transform="matrix(1.00, 0.00, -0.00, -1.00, 392.0, 522.0)">l</text><text xml:space="preserve" font-family="Helvetica-Bold" font-weight="bold" font-size="38.0" fill="#FEFFFF" transform="matrix(1.00, 0.00, -0.00, -1.00, 402.5, 522.0)">R</text><text xml:space="preserve" font-family="Helvetica-Bold" font-weight="bold" font-size="38.0" fill="#FEFFFF" transform="matrix(1.00, 0.00, -0.00, -1.00, 430.0, 522.0)">2</text><text xml:space="preserve" font-family="Helvetica-Light" font-size="28.5" fill="#52575F" transform="matrix(1.00, 0.00, -0.00, -1.00, 79.0, 437.1)">•</text><text xml:space="preserve" font-family="Helvetica-Light" font-size="38.0" fill="#52575F" transform="matrix(1.00, 0.00, -0.00, -1.00, 114.0, 434.0)">C</text><text xml:space="preserve" font-family="Helvetica-Light" font-size="38.0" fill="#52575F" transform="matrix(1.00, 0.00, -0.00, -1.00, 141.4, 434.0)">a</text><text xml:space="preserve" font-family="Helvetica-Light" font-size="38.0" fill="#52575F" transform="matrix(1.00, 0.00, -0.00, -1.00, 162.6, 434.0)">l</text><text xml:space="preserve" font-family="Helvetica-Light" font-size="38.0" fill="#52575F" transform="matrix(1.00, 0.00, -0.00, -1.00, 171.0, 434.0)">c</text><text xml:space="preserve" font-family="Helvetica-Light" font-size="38.0" fill="#52575F" transform="matrix(1.00, 0.00, -0.00, -1.00, 192.1, 434.0)">L</text><text xml:space="preserve" font-family="Helvetica-Light" font-size="38.0" fill="#52575F" transform="matrix(1.00, 0.00, -0.00, -1.00, 213.3, 434.0)">i</text><text xml:space="preserve" font-family="Helvetica-Light" font-size="38.0" fill="#52575F" transform="matrix(1.00, 0.00, -0.00, -1.00, 221.7, 434.0)">k</text><text xml:space="preserve" font-family="Helvetica-Light" font-size="38.0" fill="#52575F" transform="matrix(1.00, 0.00, -0.00, -1.00, 240.7, 434.0)">e</text><text xml:space="preserve" font-family="Helvetica-Light" font-size="38.0" fill="#52575F" transform="matrix(1.00, 0.00, -0.00, -1.00, 261.8, 434.0)">l</text><text xml:space="preserve" font-family="Helvetica-Light" font-size="38.0" fill="#52575F" transform="matrix(1.00, 0.00, -0.00, -1.00, 270.3, 434.0)">i</text><text xml:space="preserve" font-family="Helvetica-Light" font-size="38.0" fill="#52575F" transform="matrix(1.00, 0.00, -0.00, -1.00, 278.7, 434.0)">h</text><text xml:space="preserve" font-family="Helvetica-Light" font-size="38.0" fill="#52575F" transform="matrix(1.00, 0.00, -0.00, -1.00, 299.8, 434.0)">o</text><text xml:space="preserve" font-family="Helvetica-Light" font-size="38.0" fill="#52575F" transform="matrix(1.00, 0.00, -0.00, -1.00, 320.9, 434.0)">o</text><text xml:space="preserve" font-family="Helvetica-Light" font-size="38.0" fill="#52575F" transform="matrix(1.00, 0.00, -0.00, -1.00, 342.1, 434.0)">d</text><text xml:space="preserve" font-family="Helvetica-Light" font-size="38.0" fill="#52575F" transform="matrix(1.00, 0.00, -0.00, -1.00, 365.3, 434.0)"> </text><text xml:space="preserve" font-family="Helvetica-Bold" font-weight="bold" font-size="28.5" fill="#FEFFFF" transform="matrix(1.00, 0.00, -0.00, -1.00, 79.0, 349.1)">•</text><text xml:space="preserve" font-family="Helvetica-Bold" font-weight="bold" font-size="38.0" fill="#FEFFFF" transform="matrix(1.00, 0.00, -0.00, -1.00, 114.0, 346.0)">C</text><text xml:space="preserve" font-family="Helvetica-Bold" font-weight="bold" font-size="38.0" fill="#FEFFFF" transform="matrix(1.00, 0.00, -0.00, -1.00, 141.4, 346.0)">a</text><text xml:space="preserve" font-family="Helvetica-Bold" font-weight="bold" font-size="38.0" fill="#FEFFFF" transform="matrix(1.00, 0.00, -0.00, -1.00, 162.6, 346.0)">l</text><text xml:space="preserve" font-family="Helvetica-Bold" font-weight="bold" font-size="38.0" fill="#FEFFFF" transform="matrix(1.00, 0.00, -0.00, -1.00, 173.1, 346.0)">c</text><text xml:space="preserve" font-family="Helvetica-Bold" font-weight="bold" font-size="38.0" fill="#FEFFFF" transform="matrix(1.00, 0.00, -0.00, -1.00, 194.3, 346.0)">P</text><text xml:space="preserve" font-family="Helvetica-Bold" font-weight="bold" font-size="38.0" fill="#FEFFFF" transform="matrix(1.00, 0.00, -0.00, -1.00, 219.6, 346.0)">r</text><text xml:space="preserve" font-family="Helvetica-Bold" font-weight="bold" font-size="38.0" fill="#FEFFFF" transform="matrix(1.00, 0.00, -0.00, -1.00, 234.4, 346.0)">o</text><text xml:space="preserve" font-family="Helvetica-Bold" font-weight="bold" font-size="38.0" fill="#FEFFFF" transform="matrix(1.00, 0.00, -0.00, -1.00, 257.6, 346.0)">b</text><text xml:space="preserve" font-family="Helvetica-Bold" font-weight="bold" font-size="38.0" fill="#FEFFFF" transform="matrix(1.00, 0.00, -0.00, -1.00, 280.8, 346.0)">C</text><text xml:space="preserve" font-family="Helvetica-Bold" font-weight="bold" font-size="38.0" fill="#FEFFFF" transform="matrix(1.00, 0.00, -0.00, -1.00, 308.3, 346.0)">o</text><text xml:space="preserve" font-family="Helvetica-Bold" font-weight="bold" font-size="38.0" fill="#FEFFFF" transform="matrix(1.00, 0.00, -0.00, -1.00, 331.5, 346.0)">h</text><text xml:space="preserve" font-family="Helvetica-Bold" font-weight="bold" font-size="38.0" fill="#FEFFFF" transform="matrix(1.00, 0.00, -0.00, -1.00, 354.7, 346.0)">e</text><text xml:space="preserve" font-family="Helvetica-Bold" font-weight="bold" font-size="38.0" fill="#FEFFFF" transform="matrix(1.00, 0.00, -0.00, -1.00, 375.8, 346.0)">r</text><text xml:space="preserve" font-family="Helvetica-Bold" font-weight="bold" font-size="38.0" fill="#FEFFFF" transform="matrix(1.00, 0.00, -0.00, -1.00, 390.6, 346.0)">e</text><text xml:space="preserve" font-family="Helvetica-Bold" font-weight="bold" font-size="38.0" fill="#FEFFFF" transform="matrix(1.00, 0.00, -0.00, -1.00, 411.8, 346.0)">n</text><text xml:space="preserve" font-family="Helvetica-Bold" font-weight="bold" font-size="38.0" fill="#FEFFFF" transform="matrix(1.00, 0.00, -0.00, -1.00, 435.0, 346.0)">c</text><text xml:space="preserve" font-family="Helvetica-Bold" font-weight="bold" font-size="38.0" fill="#FEFFFF" transform="matrix(1.00, 0.00, -0.00, -1.00, 456.1, 346.0)">e</text><text xml:space="preserve" font-family="Helvetica-Bold" font-weight="bold" font-size="28.5" fill="#FEFFFF" transform="matrix(1.00, 0.00, -0.00, -1.00, 79.0, 261.1)">•</text><text xml:space="preserve" font-family="Helvetica-Bold" font-weight="bold" font-size="38.0" fill="#FEFFFF" transform="matrix(1.00, 0.00, -0.00, -1.00, 114.0, 258.0)">C</text><text xml:space="preserve" font-family="Helvetica-Bold" font-weight="bold" font-size="38.0" fill="#FEFFFF" transform="matrix(1.00, 0.00, -0.00, -1.00, 141.4, 258.0)">a</text><text xml:space="preserve" font-family="Helvetica-Bold" font-weight="bold" font-size="38.0" fill="#FEFFFF" transform="matrix(1.00, 0.00, -0.00, -1.00, 162.6, 258.0)">l</text><text xml:space="preserve" font-family="Helvetica-Bold" font-weight="bold" font-size="38.0" fill="#FEFFFF" transform="matrix(1.00, 0.00, -0.00, -1.00, 173.1, 258.0)">c</text><text xml:space="preserve" font-family="Helvetica-Bold" font-weight="bold" font-size="38.0" fill="#FEFFFF" transform="matrix(1.00, 0.00, -0.00, -1.00, 194.3, 258.0)">P</text><text xml:space="preserve" font-family="Helvetica-Bold" font-weight="bold" font-size="38.0" fill="#FEFFFF" transform="matrix(1.00, 0.00, -0.00, -1.00, 219.6, 258.0)">h</text><text xml:space="preserve" font-family="Helvetica-Bold" font-weight="bold" font-size="38.0" fill="#FEFFFF" transform="matrix(1.00, 0.00, -0.00, -1.00, 242.8, 258.0)">i</text><text xml:space="preserve" font-family="Helvetica-Bold" font-weight="bold" font-size="38.0" fill="#FEFFFF" transform="matrix(1.00, 0.00, -0.00, -1.00, 253.4, 258.0)">P</text><text xml:space="preserve" font-family="Helvetica-Bold" font-weight="bold" font-size="38.0" fill="#FEFFFF" transform="matrix(1.00, 0.00, -0.00, -1.00, 278.7, 258.0)">r</text><text xml:space="preserve" font-family="Helvetica-Bold" font-weight="bold" font-size="38.0" fill="#FEFFFF" transform="matrix(1.00, 0.00, -0.00, -1.00, 293.5, 258.0)">i</text><text xml:space="preserve" font-family="Helvetica-Bold" font-weight="bold" font-size="38.0" fill="#FEFFFF" transform="matrix(1.00, 0.00, -0.00, -1.00, 304.1, 258.0)">m</text><text xml:space="preserve" font-family="Helvetica-Bold" font-weight="bold" font-size="38.0" fill="#FEFFFF" transform="matrix(1.00, 0.00, -0.00, -1.00, 337.9, 258.0)">e</text><text xml:space="preserve" font-family="Helvetica-Light" font-size="28.5" fill="#52575F" transform="matrix(1.00, 0.00, -0.00, -1.00, 79.0, 173.1)">•</text><text xml:space="preserve" font-family="Helvetica-Light" font-size="38.0" fill="#52575F" transform="matrix(1.00, 0.00, -0.00, -1.00, 114.0, 170.0)">G</text><text xml:space="preserve" font-family="Helvetica-Light" font-size="38.0" fill="#52575F" transform="matrix(1.00, 0.00, -0.00, -1.00, 143.6, 170.0)">e</text><text xml:space="preserve" font-family="Helvetica-Light" font-size="38.0" fill="#52575F" transform="matrix(1.00, 0.00, -0.00, -1.00, 164.7, 170.0)">t</text><text xml:space="preserve" font-family="Helvetica-Light" font-size="38.0" fill="#52575F" transform="matrix(1.00, 0.00, -0.00, -1.00, 175.3, 170.0)">T</text><text xml:space="preserve" font-family="Helvetica-Light" font-size="38.0" fill="#52575F" transform="matrix(1.00, 0.00, -0.00, -1.00, 192.2, 170.0)">o</text><text xml:space="preserve" font-family="Helvetica-Light" font-size="38.0" fill="#52575F" transform="matrix(1.00, 0.00, -0.00, -1.00, 213.3, 170.0)">p</text><text xml:space="preserve" font-family="Helvetica-Light" font-size="38.0" fill="#52575F" transform="matrix(1.00, 0.00, -0.00, -1.00, 236.5, 170.0)">T</text><text xml:space="preserve" font-family="Helvetica-Light" font-size="38.0" fill="#52575F" transform="matrix(1.00, 0.00, -0.00, -1.00, 253.4, 170.0)">e</text><text xml:space="preserve" font-family="Helvetica-Light" font-size="38.0" fill="#52575F" transform="matrix(1.00, 0.00, -0.00, -1.00, 274.6, 170.0)">r</text><text xml:space="preserve" font-family="Helvetica-Light" font-size="38.0" fill="#52575F" transform="matrix(1.00, 0.00, -0.00, -1.00, 287.9, 170.0)">m</text><text xml:space="preserve" font-family="Helvetica-Light" font-size="38.0" fill="#52575F" transform="matrix(1.00, 0.00, -0.00, -1.00, 319.5, 170.0)">s</text><text xml:space="preserve" font-family="Helvetica-Light" font-size="38.0" fill="#52575F" transform="matrix(1.00, 0.00, -0.00, -1.00, 338.5, 170.0)"> </text><text xml:space="preserve" font-family="Helvetica-Light" font-size="28.5" fill="#52575F" transform="matrix(1.00, 0.00, -0.00, -1.00, 79.0, 85.1)">•</text><text xml:space="preserve" font-family="Helvetica-Light" font-size="38.0" fill="#52575F" transform="matrix(1.00, 0.00, -0.00, -1.00, 114.0, 82.0)">L</text><text xml:space="preserve" font-family="Helvetica-Light" font-size="38.0" fill="#52575F" transform="matrix(1.00, 0.00, -0.00, -1.00, 135.1, 82.0)">a</text><text xml:space="preserve" font-family="Helvetica-Light" font-size="38.0" fill="#52575F" transform="matrix(1.00, 0.00, -0.00, -1.00, 156.3, 82.0)">b</text><text xml:space="preserve" font-family="Helvetica-Light" font-size="38.0" fill="#52575F" transform="matrix(1.00, 0.00, -0.00, -1.00, 179.5, 82.0)">e</text><text xml:space="preserve" font-family="Helvetica-Light" font-size="38.0" fill="#52575F" transform="matrix(1.00, 0.00, -0.00, -1.00, 200.6, 82.0)">l</text><text xml:space="preserve" font-family="Helvetica-Light" font-size="38.0" fill="#52575F" transform="matrix(1.00, 0.00, -0.00, -1.00, 209.0, 82.0)">T</text><text xml:space="preserve" font-family="Helvetica-Light" font-size="38.0" fill="#52575F" transform="matrix(1.00, 0.00, -0.00, -1.00, 225.9, 82.0)">o</text><text xml:space="preserve" font-family="Helvetica-Light" font-size="38.0" fill="#52575F" transform="matrix(1.00, 0.00, -0.00, -1.00, 247.1, 82.0)">p</text><text xml:space="preserve" font-family="Helvetica-Light" font-size="38.0" fill="#52575F" transform="matrix(1.00, 0.00, -0.00, -1.00, 270.3, 82.0)">i</text><text xml:space="preserve" font-family="Helvetica-Light" font-size="38.0" fill="#52575F" transform="matrix(1.00, 0.00, -0.00, -1.00, 278.7, 82.0)">c</text><text xml:space="preserve" font-family="Helvetica-Light" font-size="38.0" fill="#52575F" transform="matrix(1.00, 0.00, -0.00, -1.00, 299.9, 82.0)">s</text></g></svg>