<?xml version="1.0" encoding="UTF-8" standalone="no"?><svg xmlns="http://www.w3.org/2000/svg" xmlns:xlink="http://www.w3.org/1999/xlink" clip-rule="evenodd" stroke-miterlimit="4.00" viewBox="0 0 1024 768"><desc>SVG generated by Keynote</desc><defs></defs><g transform="matrix(1.00, 0.00, -0.00, -1.00, 0.0, 768.0)"><path d="M 0.0 768.0 L 1024.0 768.0 L 1024.0 0.0 L 0.0 0.0 Z M 0.0 768.0 " fill="#000000"></path><text xml:space="preserve" font-family="Helvetica-Light" font-size="80.0" fill="#FEFFFF" transform="matrix(1.00, 0.00, -0.00, -1.00, 327.0, 633.0)">T</text><text xml:space="preserve" font-family="Helvetica-Light" font-size="80.0" fill="#FEFFFF" transform="matrix(1.00, 0.00, -0.00, -1.00, 371.5, 633.0)">h</text><text xml:space="preserve" font-family="Helvetica-Light" font-size="80.0" fill="#FEFFFF" transform="matrix(1.00, 0.00, -0.00, -1.00, 416.0, 633.0)">a</text><text xml:space="preserve" font-family="Helvetica-Light" font-size="80.0" fill="#FEFFFF" transform="matrix(1.00, 0.00, -0.00, -1.00, 460.4, 633.0)">n</text><text xml:space="preserve" font-family="Helvetica-Light" font-size="80.0" fill="#FEFFFF" transform="matrix(1.00, 0.00, -0.00, -1.00, 504.9, 633.0)">k</text><text xml:space="preserve" font-family="Helvetica-Light" font-size="80.0" fill="#FEFFFF" transform="matrix(1.00, 0.00, -0.00, -1.00, 544.9, 633.0)"> </text><text xml:space="preserve" font-family="Helvetica-Light" font-size="80.0" fill="#FEFFFF" transform="matrix(1.00, 0.00, -0.00, -1.00, 567.2, 633.0)">Y</text><text xml:space="preserve" font-family="Helvetica-Light" font-size="80.0" fill="#FEFFFF" transform="matrix(1.00, 0.00, -0.00, -1.00, 608.7, 633.0)">o</text><text xml:space="preserve" font-family="Helvetica-Light" font-size="80.0" fill="#FEFFFF" transform="matrix(1.00, 0.00, -0.00, -1.00, 653.2, 633.0)">u</text><text xml:space="preserve" font-family="Helvetica-Light" font-size="31.5" fill="#FEFFFF" transform="matrix(1.00, 0.00, -0.00, -1.00, 168.2, 534.1)">•</text><text xml:space="preserve" font-family="Helvetica-Light" font-size="42.0" fill="#34A4DA" transform="matrix(1.00, 0.00, -0.00, -1.00, 203.0, 530.0)">j</text><text xml:space="preserve" font-family="Helvetica-Light" font-size="42.0" fill="#34A4DA" transform="matrix(1.00, 0.00, -0.00, -1.00, 212.3, 530.0)">o</text><text xml:space="preserve" font-family="Helvetica-Light" font-size="42.0" fill="#34A4DA" transform="matrix(1.00, 0.00, -0.00, -1.00, 235.7, 530.0)">n</text><text xml:space="preserve" font-family="Helvetica-Light" font-size="42.0" fill="#34A4DA" transform="matrix(1.00, 0.00, -0.00, -1.00, 259.0, 530.0)">e</text><text xml:space="preserve" font-family="Helvetica-Light" font-size="42.0" fill="#34A4DA" transform="matrix(1.00, 0.00, -0.00, -1.00, 282.4, 530.0)">s</text><text xml:space="preserve" font-family="Helvetica-Light" font-size="42.0" fill="#34A4DA" transform="matrix(1.00, 0.00, -0.00, -1.00, 303.4, 530.0)">.</text><text xml:space="preserve" font-family="Helvetica-Light" font-size="42.0" fill="#34A4DA" transform="matrix(1.00, 0.00, -0.00, -1.00, 315.1, 530.0)">t</text><text xml:space="preserve" font-family="Helvetica-Light" font-size="42.0" fill="#34A4DA" transform="matrix(1.00, 0.00, -0.00, -1.00, 326.7, 530.0)">h</text><text xml:space="preserve" font-family="Helvetica-Light" font-size="42.0" fill="#34A4DA" transform="matrix(1.00, 0.00, -0.00, -1.00, 350.1, 530.0)">o</text><text xml:space="preserve" font-family="Helvetica-Light" font-size="42.0" fill="#34A4DA" transform="matrix(1.00, 0.00, -0.00, -1.00, 373.4, 530.0)">s</text><text xml:space="preserve" font-family="Helvetica-Light" font-size="42.0" fill="#34A4DA" transform="matrix(1.00, 0.00, -0.00, -1.00, 394.4, 530.0)">.</text><text xml:space="preserve" font-family="Helvetica-Light" font-size="42.0" fill="#34A4DA" transform="matrix(1.00, 0.00, -0.00, -1.00, 406.1, 530.0)">w</text><text xml:space="preserve" font-family="Helvetica-Light" font-size="42.0" fill="#34A4DA" transform="matrix(1.00, 0.00, -0.00, -1.00, 436.4, 530.0)">@</text><text xml:space="preserve" font-family="Helvetica-Light" font-size="42.0" fill="#34A4DA" transform="matrix(1.00, 0.00, -0.00, -1.00, 470.0, 530.0)">g</text><text xml:space="preserve" font-family="Helvetica-Light" font-size="42.0" fill="#34A4DA" transform="matrix(1.00, 0.00, -0.00, -1.00, 495.7, 530.0)">m</text><text xml:space="preserve" font-family="Helvetica-Light" font-size="42.0" fill="#34A4DA" transform="matrix(1.00, 0.00, -0.00, -1.00, 530.7, 530.0)">a</text><text xml:space="preserve" font-family="Helvetica-Light" font-size="42.0" fill="#34A4DA" transform="matrix(1.00, 0.00, -0.00, -1.00, 554.0, 530.0)">i</text><text xml:space="preserve" font-family="Helvetica-Light" font-size="42.0" fill="#34A4DA" transform="matrix(1.00, 0.00, -0.00, -1.00, 563.4, 530.0)">l</text><text xml:space="preserve" font-family="Helvetica-Light" font-size="42.0" fill="#34A4DA" transform="matrix(1.00, 0.00, -0.00, -1.00, 572.7, 530.0)">.</text><text xml:space="preserve" font-family="Helvetica-Light" font-size="42.0" fill="#34A4DA" transform="matrix(1.00, 0.00, -0.00, -1.00, 584.4, 530.0)">c</text><text xml:space="preserve" font-family="Helvetica-Light" font-size="42.0" fill="#34A4DA" transform="matrix(1.00, 0.00, -0.00, -1.00, 607.7, 530.0)">o</text><text xml:space="preserve" font-family="Helvetica-Light" font-size="42.0" fill="#34A4DA" transform="matrix(1.00, 0.00, -0.00, -1.00, 631.1, 530.0)">m</text><text xml:space="preserve" font-family="Helvetica-Light" font-size="42.0" fill="#FEFFFF" transform="matrix(1.00, 0.00, -0.00, -1.00, 666.0, 530.0)"> </text><g><clipPath id="clip-510"><path d="M 202.2 524.8 L 666.3 524.8 L 666.3 528.9 L 202.2 528.9 Z M 202.2 524.8 "></path></clipPath><g clip-path="url(#clip-510)"><path d="M 39.0 62.5 L 502.1 62.5 " fill="none" stroke="#34A4DA" stroke-width="2.10" stroke-miterlimit="0.00" transform="matrix(1.00, 0.00, 0.00, -1.00, 164.2, 589.3)"></path></g></g><text xml:space="preserve" font-family="Helvetica-Light" font-size="31.5" fill="#E7A432" transform="matrix(1.00, 0.00, -0.00, -1.00, 168.2, 442.1)">•</text><text xml:space="preserve" font-family="Helvetica-Light" font-size="42.0" fill="#E7A432" transform="matrix(1.00, 0.00, -0.00, -1.00, 203.0, 438.0)">t</text><text xml:space="preserve" font-family="Helvetica-Light" font-size="42.0" fill="#E7A432" transform="matrix(1.00, 0.00, -0.00, -1.00, 214.7, 438.0)">j</text><text xml:space="preserve" font-family="Helvetica-Light" font-size="42.0" fill="#E7A432" transform="matrix(1.00, 0.00, -0.00, -1.00, 224.0, 438.0)">o</text><text xml:space="preserve" font-family="Helvetica-Light" font-size="42.0" fill="#E7A432" transform="matrix(1.00, 0.00, -0.00, -1.00, 247.4, 438.0)">n</text><text xml:space="preserve" font-family="Helvetica-Light" font-size="42.0" fill="#E7A432" transform="matrix(1.00, 0.00, -0.00, -1.00, 270.7, 438.0)">e</text><text xml:space="preserve" font-family="Helvetica-Light" font-size="42.0" fill="#E7A432" transform="matrix(1.00, 0.00, -0.00, -1.00, 294.1, 438.0)">s</text><text xml:space="preserve" font-family="Helvetica-Light" font-size="42.0" fill="#E7A432" transform="matrix(1.00, 0.00, -0.00, -1.00, 315.1, 438.0)">@</text><text xml:space="preserve" font-family="Helvetica-Light" font-size="42.0" fill="#E7A432" transform="matrix(1.00, 0.00, -0.00, -1.00, 348.7, 438.0)">i</text><text xml:space="preserve" font-family="Helvetica-Light" font-size="42.0" fill="#E7A432" transform="matrix(1.00, 0.00, -0.00, -1.00, 358.0, 438.0)">m</text><text xml:space="preserve" font-family="Helvetica-Light" font-size="42.0" fill="#E7A432" transform="matrix(1.00, 0.00, -0.00, -1.00, 393.0, 438.0)">p</text><text xml:space="preserve" font-family="Helvetica-Light" font-size="42.0" fill="#E7A432" transform="matrix(1.00, 0.00, -0.00, -1.00, 418.6, 438.0)">a</text><text xml:space="preserve" font-family="Helvetica-Light" font-size="42.0" fill="#E7A432" transform="matrix(1.00, 0.00, -0.00, -1.00, 442.0, 438.0)">c</text><text xml:space="preserve" font-family="Helvetica-Light" font-size="42.0" fill="#E7A432" transform="matrix(1.00, 0.00, -0.00, -1.00, 465.3, 438.0)">t</text><text xml:space="preserve" font-family="Helvetica-Light" font-size="42.0" fill="#E7A432" transform="matrix(1.00, 0.00, -0.00, -1.00, 477.0, 438.0)">r</text><text xml:space="preserve" font-family="Helvetica-Light" font-size="42.0" fill="#E7A432" transform="matrix(1.00, 0.00, -0.00, -1.00, 490.2, 438.0)">e</text><text xml:space="preserve" font-family="Helvetica-Light" font-size="42.0" fill="#E7A432" transform="matrix(1.00, 0.00, -0.00, -1.00, 513.6, 438.0)">s</text><text xml:space="preserve" font-family="Helvetica-Light" font-size="42.0" fill="#E7A432" transform="matrix(1.00, 0.00, -0.00, -1.00, 534.6, 438.0)">e</text><text xml:space="preserve" font-family="Helvetica-Light" font-size="42.0" fill="#E7A432" transform="matrix(1.00, 0.00, -0.00, -1.00, 557.9, 438.0)">a</text><text xml:space="preserve" font-family="Helvetica-Light" font-size="42.0" fill="#E7A432" transform="matrix(1.00, 0.00, -0.00, -1.00, 581.3, 438.0)">r</text><text xml:space="preserve" font-family="Helvetica-Light" font-size="42.0" fill="#E7A432" transform="matrix(1.00, 0.00, -0.00, -1.00, 594.5, 438.0)">c</text><text xml:space="preserve" font-family="Helvetica-Light" font-size="42.0" fill="#E7A432" transform="matrix(1.00, 0.00, -0.00, -1.00, 617.9, 438.0)">h</text><text xml:space="preserve" font-family="Helvetica-Light" font-size="42.0" fill="#E7A432" transform="matrix(1.00, 0.00, -0.00, -1.00, 641.2, 438.0)">i</text><text xml:space="preserve" font-family="Helvetica-Light" font-size="42.0" fill="#E7A432" transform="matrix(1.00, 0.00, -0.00, -1.00, 650.6, 438.0)">n</text><text xml:space="preserve" font-family="Helvetica-Light" font-size="42.0" fill="#E7A432" transform="matrix(1.00, 0.00, -0.00, -1.00, 673.9, 438.0)">c</text><text xml:space="preserve" font-family="Helvetica-Light" font-size="42.0" fill="#E7A432" transform="matrix(1.00, 0.00, -0.00, -1.00, 697.3, 438.0)">.</text><text xml:space="preserve" font-family="Helvetica-Light" font-size="42.0" fill="#E7A432" transform="matrix(1.00, 0.00, -0.00, -1.00, 708.9, 438.0)">c</text><text xml:space="preserve" font-family="Helvetica-Light" font-size="42.0" fill="#E7A432" transform="matrix(1.00, 0.00, -0.00, -1.00, 732.3, 438.0)">o</text><text xml:space="preserve" font-family="Helvetica-Light" font-size="42.0" fill="#E7A432" transform="matrix(1.00, 0.00, -0.00, -1.00, 755.6, 438.0)">m</text><text xml:space="preserve" font-family="Helvetica-Light" font-size="42.0" fill="#E7A432" transform="matrix(1.00, 0.00, -0.00, -1.00, 790.6, 438.0)"> </text><g><clipPath id="clip-511"><path d="M 202.2 432.8 L 790.8 432.8 L 790.8 436.9 L 202.2 436.9 Z M 202.2 432.8 "></path></clipPath><g clip-path="url(#clip-511)"><path d="M 39.0 154.5 L 626.6 154.5 " fill="none" stroke="#E7A432" stroke-width="2.10" stroke-miterlimit="0.00" transform="matrix(1.00, 0.00, 0.00, -1.00, 164.2, 589.3)"></path></g></g><text xml:space="preserve" font-family="Helvetica-Light" font-size="31.5" fill="#E7A432" transform="matrix(1.00, 0.00, -0.00, -1.00, 168.2, 350.1)">•</text><text xml:space="preserve" font-family="Helvetica-Light" font-size="42.0" fill="#E7A432" transform="matrix(1.00, 0.00, -0.00, -1.00, 203.0, 346.0)">h</text><text xml:space="preserve" font-family="Helvetica-Light" font-size="42.0" fill="#E7A432" transform="matrix(1.00, 0.00, -0.00, -1.00, 226.4, 346.0)">t</text><text xml:space="preserve" font-family="Helvetica-Light" font-size="42.0" fill="#E7A432" transform="matrix(1.00, 0.00, -0.00, -1.00, 238.0, 346.0)">t</text><text xml:space="preserve" font-family="Helvetica-Light" font-size="42.0" fill="#E7A432" transform="matrix(1.00, 0.00, -0.00, -1.00, 249.7, 346.0)">p</text><text xml:space="preserve" font-family="Helvetica-Light" font-size="42.0" fill="#E7A432" transform="matrix(1.00, 0.00, -0.00, -1.00, 275.4, 346.0)">:</text><text xml:space="preserve" font-family="Helvetica-Light" font-size="42.0" fill="#E7A432" transform="matrix(1.00, 0.00, -0.00, -1.00, 287.0, 346.0)">/</text><text xml:space="preserve" font-family="Helvetica-Light" font-size="42.0" fill="#E7A432" transform="matrix(1.00, 0.00, -0.00, -1.00, 298.7, 346.0)">/</text><text xml:space="preserve" font-family="Helvetica-Light" font-size="42.0" fill="#E7A432" transform="matrix(1.00, 0.00, -0.00, -1.00, 310.4, 346.0)">w</text><text xml:space="preserve" font-family="Helvetica-Light" font-size="42.0" fill="#E7A432" transform="matrix(1.00, 0.00, -0.00, -1.00, 340.7, 346.0)">w</text><text xml:space="preserve" font-family="Helvetica-Light" font-size="42.0" fill="#E7A432" transform="matrix(1.00, 0.00, -0.00, -1.00, 371.0, 346.0)">w</text><text xml:space="preserve" font-family="Helvetica-Light" font-size="42.0" fill="#E7A432" transform="matrix(1.00, 0.00, -0.00, -1.00, 399.1, 346.0)">.</text><text xml:space="preserve" font-family="Helvetica-Light" font-size="42.0" fill="#E7A432" transform="matrix(1.00, 0.00, -0.00, -1.00, 410.7, 346.0)">i</text><text xml:space="preserve" font-family="Helvetica-Light" font-size="42.0" fill="#E7A432" transform="matrix(1.00, 0.00, -0.00, -1.00, 420.1, 346.0)">m</text><text xml:space="preserve" font-family="Helvetica-Light" font-size="42.0" fill="#E7A432" transform="matrix(1.00, 0.00, -0.00, -1.00, 455.0, 346.0)">p</text><text xml:space="preserve" font-family="Helvetica-Light" font-size="42.0" fill="#E7A432" transform="matrix(1.00, 0.00, -0.00, -1.00, 480.7, 346.0)">a</text><text xml:space="preserve" font-family="Helvetica-Light" font-size="42.0" fill="#E7A432" transform="matrix(1.00, 0.00, -0.00, -1.00, 504.1, 346.0)">c</text><text xml:space="preserve" font-family="Helvetica-Light" font-size="42.0" fill="#E7A432" transform="matrix(1.00, 0.00, -0.00, -1.00, 527.4, 346.0)">t</text><text xml:space="preserve" font-family="Helvetica-Light" font-size="42.0" fill="#E7A432" transform="matrix(1.00, 0.00, -0.00, -1.00, 539.1, 346.0)">r</text><text xml:space="preserve" font-family="Helvetica-Light" font-size="42.0" fill="#E7A432" transform="matrix(1.00, 0.00, -0.00, -1.00, 552.3, 346.0)">e</text><text xml:space="preserve" font-family="Helvetica-Light" font-size="42.0" fill="#E7A432" transform="matrix(1.00, 0.00, -0.00, -1.00, 575.7, 346.0)">s</text><text xml:space="preserve" font-family="Helvetica-Light" font-size="42.0" fill="#E7A432" transform="matrix(1.00, 0.00, -0.00, -1.00, 596.7, 346.0)">e</text><text xml:space="preserve" font-family="Helvetica-Light" font-size="42.0" fill="#E7A432" transform="matrix(1.00, 0.00, -0.00, -1.00, 620.0, 346.0)">a</text><text xml:space="preserve" font-family="Helvetica-Light" font-size="42.0" fill="#E7A432" transform="matrix(1.00, 0.00, -0.00, -1.00, 643.4, 346.0)">r</text><text xml:space="preserve" font-family="Helvetica-Light" font-size="42.0" fill="#E7A432" transform="matrix(1.00, 0.00, -0.00, -1.00, 656.6, 346.0)">c</text><text xml:space="preserve" font-family="Helvetica-Light" font-size="42.0" fill="#E7A432" transform="matrix(1.00, 0.00, -0.00, -1.00, 680.0, 346.0)">h</text><text xml:space="preserve" font-family="Helvetica-Light" font-size="42.0" fill="#E7A432" transform="matrix(1.00, 0.00, -0.00, -1.00, 703.3, 346.0)">i</text><text xml:space="preserve" font-family="Helvetica-Light" font-size="42.0" fill="#E7A432" transform="matrix(1.00, 0.00, -0.00, -1.00, 712.6, 346.0)">n</text><text xml:space="preserve" font-family="Helvetica-Light" font-size="42.0" fill="#E7A432" transform="matrix(1.00, 0.00, -0.00, -1.00, 736.0, 346.0)">c</text><text xml:space="preserve" font-family="Helvetica-Light" font-size="42.0" fill="#E7A432" transform="matrix(1.00, 0.00, -0.00, -1.00, 759.3, 346.0)">.</text><text xml:space="preserve" font-family="Helvetica-Light" font-size="42.0" fill="#E7A432" transform="matrix(1.00, 0.00, -0.00, -1.00, 771.0, 346.0)">c</text><text xml:space="preserve" font-family="Helvetica-Light" font-size="42.0" fill="#E7A432" transform="matrix(1.00, 0.00, -0.00, -1.00, 794.4, 346.0)">o</text><text xml:space="preserve" font-family="Helvetica-Light" font-size="42.0" fill="#E7A432" transform="matrix(1.00, 0.00, -0.00, -1.00, 817.7, 346.0)">m</text><text xml:space="preserve" font-family="Helvetica-Light" font-size="42.0" fill="#E7A432" transform="matrix(1.00, 0.00, -0.00, -1.00, 852.7, 346.0)"> </text><text xml:space="preserve" font-family="Helvetica-Light" font-size="42.0" fill="#E7A432" transform="matrix(1.00, 0.00, -0.00, -1.00, 864.4, 346.0)"> </text><text xml:space="preserve" font-family="Helvetica-Light" font-size="42.0" fill="#E7A432" transform="matrix(1.00, 0.00, -0.00, -1.00, 876.1, 346.0)"> </text><g><clipPath id="clip-512"><path d="M 202.2 340.8 L 852.9 340.8 L 852.9 344.9 L 202.2 344.9 Z M 202.2 340.8 "></path></clipPath><g clip-path="url(#clip-512)"><path d="M 39.0 246.5 L 688.7 246.5 " fill="none" stroke="#E7A432" stroke-width="2.10" stroke-miterlimit="0.00" transform="matrix(1.00, 0.00, 0.00, -1.00, 164.2, 589.3)"></path></g></g><text xml:space="preserve" font-family="Helvetica-Light" font-size="31.5" fill="#FEFFFF" transform="matrix(1.00, 0.00, -0.00, -1.00, 168.2, 258.1)">•</text><text xml:space="preserve" font-family="Helvetica-Light" font-size="42.0" fill="#FEFFFF" transform="matrix(1.00, 0.00, -0.00, -1.00, 203.0, 254.0)">t</text><text xml:space="preserve" font-family="Helvetica-Light" font-size="42.0" fill="#FEFFFF" transform="matrix(1.00, 0.00, -0.00, -1.00, 214.7, 254.0)">w</text><text xml:space="preserve" font-family="Helvetica-Light" font-size="42.0" fill="#FEFFFF" transform="matrix(1.00, 0.00, -0.00, -1.00, 245.0, 254.0)">i</text><text xml:space="preserve" font-family="Helvetica-Light" font-size="42.0" fill="#FEFFFF" transform="matrix(1.00, 0.00, -0.00, -1.00, 254.3, 254.0)">t</text><text xml:space="preserve" font-family="Helvetica-Light" font-size="42.0" fill="#FEFFFF" transform="matrix(1.00, 0.00, -0.00, -1.00, 266.0, 254.0)">t</text><text xml:space="preserve" font-family="Helvetica-Light" font-size="42.0" fill="#FEFFFF" transform="matrix(1.00, 0.00, -0.00, -1.00, 277.7, 254.0)">e</text><text xml:space="preserve" font-family="Helvetica-Light" font-size="42.0" fill="#FEFFFF" transform="matrix(1.00, 0.00, -0.00, -1.00, 301.0, 254.0)">r</text><text xml:space="preserve" font-family="Helvetica-Light" font-size="42.0" fill="#FEFFFF" transform="matrix(1.00, 0.00, -0.00, -1.00, 315.0, 254.0)">:</text><text xml:space="preserve" font-family="Helvetica-Light" font-size="42.0" fill="#FEFFFF" transform="matrix(1.00, 0.00, -0.00, -1.00, 326.7, 254.0)"> </text><text xml:space="preserve" font-family="Helvetica-Light" font-size="42.0" fill="#FEFFFF" transform="matrix(1.00, 0.00, -0.00, -1.00, 338.4, 254.0)">@</text><text xml:space="preserve" font-family="Helvetica-Light" font-size="42.0" fill="#FEFFFF" transform="matrix(1.00, 0.00, -0.00, -1.00, 372.0, 254.0)">t</text><text xml:space="preserve" font-family="Helvetica-Light" font-size="42.0" fill="#FEFFFF" transform="matrix(1.00, 0.00, -0.00, -1.00, 383.6, 254.0)">h</text><text xml:space="preserve" font-family="Helvetica-Light" font-size="42.0" fill="#FEFFFF" transform="matrix(1.00, 0.00, -0.00, -1.00, 407.0, 254.0)">o</text><text xml:space="preserve" font-family="Helvetica-Light" font-size="42.0" fill="#FEFFFF" transform="matrix(1.00, 0.00, -0.00, -1.00, 430.3, 254.0)">s</text><text xml:space="preserve" font-family="Helvetica-Light" font-size="42.0" fill="#FEFFFF" transform="matrix(1.00, 0.00, -0.00, -1.00, 451.3, 254.0)">_</text><text xml:space="preserve" font-family="Helvetica-Light" font-size="42.0" fill="#FEFFFF" transform="matrix(1.00, 0.00, -0.00, -1.00, 472.3, 254.0)">j</text><text xml:space="preserve" font-family="Helvetica-Light" font-size="42.0" fill="#FEFFFF" transform="matrix(1.00, 0.00, -0.00, -1.00, 481.7, 254.0)">o</text><text xml:space="preserve" font-family="Helvetica-Light" font-size="42.0" fill="#FEFFFF" transform="matrix(1.00, 0.00, -0.00, -1.00, 505.0, 254.0)">n</text><text xml:space="preserve" font-family="Helvetica-Light" font-size="42.0" fill="#FEFFFF" transform="matrix(1.00, 0.00, -0.00, -1.00, 528.4, 254.0)">e</text><text xml:space="preserve" font-family="Helvetica-Light" font-size="42.0" fill="#FEFFFF" transform="matrix(1.00, 0.00, -0.00, -1.00, 551.7, 254.0)">s</text><text xml:space="preserve" font-family="Helvetica-Light" font-size="42.0" fill="#FEFFFF" transform="matrix(1.00, 0.00, -0.00, -1.00, 572.7, 254.0)"> </text><text xml:space="preserve" font-family="Helvetica-Light" font-size="31.5" fill="#FEFFFF" transform="matrix(1.00, 0.00, -0.00, -1.00, 168.2, 166.1)">•</text><text xml:space="preserve" font-family="Helvetica-Light" font-size="42.0" fill="#34A4DA" transform="matrix(1.00, 0.00, -0.00, -1.00, 203.0, 162.0)">h</text><text xml:space="preserve" font-family="Helvetica-Light" font-size="42.0" fill="#34A4DA" transform="matrix(1.00, 0.00, -0.00, -1.00, 226.4, 162.0)">t</text><text xml:space="preserve" font-family="Helvetica-Light" font-size="42.0" fill="#34A4DA" transform="matrix(1.00, 0.00, -0.00, -1.00, 238.0, 162.0)">t</text><text xml:space="preserve" font-family="Helvetica-Light" font-size="42.0" fill="#34A4DA" transform="matrix(1.00, 0.00, -0.00, -1.00, 249.7, 162.0)">p</text><text xml:space="preserve" font-family="Helvetica-Light" font-size="42.0" fill="#34A4DA" transform="matrix(1.00, 0.00, -0.00, -1.00, 275.4, 162.0)">:</text><text xml:space="preserve" font-family="Helvetica-Light" font-size="42.0" fill="#34A4DA" transform="matrix(1.00, 0.00, -0.00, -1.00, 287.0, 162.0)">/</text><text xml:space="preserve" font-family="Helvetica-Light" font-size="42.0" fill="#34A4DA" transform="matrix(1.00, 0.00, -0.00, -1.00, 298.7, 162.0)">/</text><text xml:space="preserve" font-family="Helvetica-Light" font-size="42.0" fill="#34A4DA" transform="matrix(1.00, 0.00, -0.00, -1.00, 310.4, 162.0)">w</text><text xml:space="preserve" font-family="Helvetica-Light" font-size="42.0" fill="#34A4DA" transform="matrix(1.00, 0.00, -0.00, -1.00, 340.7, 162.0)">w</text><text xml:space="preserve" font-family="Helvetica-Light" font-size="42.0" fill="#34A4DA" transform="matrix(1.00, 0.00, -0.00, -1.00, 371.0, 162.0)">w</text><text xml:space="preserve" font-family="Helvetica-Light" font-size="42.0" fill="#34A4DA" transform="matrix(1.00, 0.00, -0.00, -1.00, 399.1, 162.0)">.</text><text xml:space="preserve" font-family="Helvetica-Light" font-size="42.0" fill="#34A4DA" transform="matrix(1.00, 0.00, -0.00, -1.00, 410.7, 162.0)">b</text><text xml:space="preserve" font-family="Helvetica-Light" font-size="42.0" fill="#34A4DA" transform="matrix(1.00, 0.00, -0.00, -1.00, 436.4, 162.0)">i</text><text xml:space="preserve" font-family="Helvetica-Light" font-size="42.0" fill="#34A4DA" transform="matrix(1.00, 0.00, -0.00, -1.00, 445.7, 162.0)">a</text><text xml:space="preserve" font-family="Helvetica-Light" font-size="42.0" fill="#34A4DA" transform="matrix(1.00, 0.00, -0.00, -1.00, 469.1, 162.0)">s</text><text xml:space="preserve" font-family="Helvetica-Light" font-size="42.0" fill="#34A4DA" transform="matrix(1.00, 0.00, -0.00, -1.00, 490.1, 162.0)">e</text><text xml:space="preserve" font-family="Helvetica-Light" font-size="42.0" fill="#34A4DA" transform="matrix(1.00, 0.00, -0.00, -1.00, 513.4, 162.0)">d</text><text xml:space="preserve" font-family="Helvetica-Light" font-size="42.0" fill="#34A4DA" transform="matrix(1.00, 0.00, -0.00, -1.00, 539.1, 162.0)">e</text><text xml:space="preserve" font-family="Helvetica-Light" font-size="42.0" fill="#34A4DA" transform="matrix(1.00, 0.00, -0.00, -1.00, 562.4, 162.0)">s</text><text xml:space="preserve" font-family="Helvetica-Light" font-size="42.0" fill="#34A4DA" transform="matrix(1.00, 0.00, -0.00, -1.00, 583.4, 162.0)">t</text><text xml:space="preserve" font-family="Helvetica-Light" font-size="42.0" fill="#34A4DA" transform="matrix(1.00, 0.00, -0.00, -1.00, 595.1, 162.0)">i</text><text xml:space="preserve" font-family="Helvetica-Light" font-size="42.0" fill="#34A4DA" transform="matrix(1.00, 0.00, -0.00, -1.00, 604.4, 162.0)">m</text><text xml:space="preserve" font-family="Helvetica-Light" font-size="42.0" fill="#34A4DA" transform="matrix(1.00, 0.00, -0.00, -1.00, 639.4, 162.0)">a</text><text xml:space="preserve" font-family="Helvetica-Light" font-size="42.0" fill="#34A4DA" transform="matrix(1.00, 0.00, -0.00, -1.00, 662.8, 162.0)">t</text><text xml:space="preserve" font-family="Helvetica-Light" font-size="42.0" fill="#34A4DA" transform="matrix(1.00, 0.00, -0.00, -1.00, 674.4, 162.0)">e</text><text xml:space="preserve" font-family="Helvetica-Light" font-size="42.0" fill="#34A4DA" transform="matrix(1.00, 0.00, -0.00, -1.00, 697.8, 162.0)">s</text><text xml:space="preserve" font-family="Helvetica-Light" font-size="42.0" fill="#34A4DA" transform="matrix(1.00, 0.00, -0.00, -1.00, 718.8, 162.0)">.</text><text xml:space="preserve" font-family="Helvetica-Light" font-size="42.0" fill="#34A4DA" transform="matrix(1.00, 0.00, -0.00, -1.00, 730.5, 162.0)">c</text><text xml:space="preserve" font-family="Helvetica-Light" font-size="42.0" fill="#34A4DA" transform="matrix(1.00, 0.00, -0.00, -1.00, 753.8, 162.0)">o</text><text xml:space="preserve" font-family="Helvetica-Light" font-size="42.0" fill="#34A4DA" transform="matrix(1.00, 0.00, -0.00, -1.00, 777.2, 162.0)">m</text><text xml:space="preserve" font-family="Helvetica-Light" font-size="42.0" fill="#FEFFFF" transform="matrix(1.00, 0.00, -0.00, -1.00, 812.2, 162.0)"> </text><g><clipPath id="clip-513"><path d="M 202.2 156.8 L 812.4 156.8 L 812.4 160.9 L 202.2 160.9 Z M 202.2 156.8 "></path></clipPath><g clip-path="url(#clip-513)"><path d="M 39.0 430.5 L 648.2 430.5 " fill="none" stroke="#34A4DA" stroke-width="2.10" stroke-miterlimit="0.00" transform="matrix(1.00, 0.00, 0.00, -1.00, 164.2, 589.3)"></path></g></g><text xml:space="preserve" font-family="Helvetica-Light" font-size="31.5" fill="#FEFFFF" transform="matrix(1.00, 0.00, -0.00, -1.00, 168.2, 74.1)">•</text><text xml:space="preserve" font-family="Helvetica-Light" font-size="42.0" fill="#34A4DA" transform="matrix(1.00, 0.00, -0.00, -1.00, 203.0, 70.0)">h</text><text xml:space="preserve" font-family="Helvetica-Light" font-size="42.0" fill="#34A4DA" transform="matrix(1.00, 0.00, -0.00, -1.00, 226.4, 70.0)">t</text><text xml:space="preserve" font-family="Helvetica-Light" font-size="42.0" fill="#34A4DA" transform="matrix(1.00, 0.00, -0.00, -1.00, 238.0, 70.0)">t</text><text xml:space="preserve" font-family="Helvetica-Light" font-size="42.0" fill="#34A4DA" transform="matrix(1.00, 0.00, -0.00, -1.00, 249.7, 70.0)">p</text><text xml:space="preserve" font-family="Helvetica-Light" font-size="42.0" fill="#34A4DA" transform="matrix(1.00, 0.00, -0.00, -1.00, 275.4, 70.0)">s</text><text xml:space="preserve" font-family="Helvetica-Light" font-size="42.0" fill="#34A4DA" transform="matrix(1.00, 0.00, -0.00, -1.00, 296.4, 70.0)">:</text><text xml:space="preserve" font-family="Helvetica-Light" font-size="42.0" fill="#34A4DA" transform="matrix(1.00, 0.00, -0.00, -1.00, 308.0, 70.0)">/</text><text xml:space="preserve" font-family="Helvetica-Light" font-size="42.0" fill="#34A4DA" transform="matrix(1.00, 0.00, -0.00, -1.00, 319.7, 70.0)">/</text><text xml:space="preserve" font-family="Helvetica-Light" font-size="42.0" fill="#34A4DA" transform="matrix(1.00, 0.00, -0.00, -1.00, 331.4, 70.0)">G</text><text xml:space="preserve" font-family="Helvetica-Light" font-size="42.0" fill="#34A4DA" transform="matrix(1.00, 0.00, -0.00, -1.00, 364.1, 70.0)">i</text><text xml:space="preserve" font-family="Helvetica-Light" font-size="42.0" fill="#34A4DA" transform="matrix(1.00, 0.00, -0.00, -1.00, 373.4, 70.0)">t</text><text xml:space="preserve" font-family="Helvetica-Light" font-size="42.0" fill="#34A4DA" transform="matrix(1.00, 0.00, -0.00, -1.00, 385.1, 70.0)">H</text><text xml:space="preserve" font-family="Helvetica-Light" font-size="42.0" fill="#34A4DA" transform="matrix(1.00, 0.00, -0.00, -1.00, 415.4, 70.0)">u</text><text xml:space="preserve" font-family="Helvetica-Light" font-size="42.0" fill="#34A4DA" transform="matrix(1.00, 0.00, -0.00, -1.00, 438.7, 70.0)">b</text><text xml:space="preserve" font-family="Helvetica-Light" font-size="42.0" fill="#34A4DA" transform="matrix(1.00, 0.00, -0.00, -1.00, 464.4, 70.0)">.</text><text xml:space="preserve" font-family="Helvetica-Light" font-size="42.0" fill="#34A4DA" transform="matrix(1.00, 0.00, -0.00, -1.00, 476.1, 70.0)">c</text><text xml:space="preserve" font-family="Helvetica-Light" font-size="42.0" fill="#34A4DA" transform="matrix(1.00, 0.00, -0.00, -1.00, 499.4, 70.0)">o</text><text xml:space="preserve" font-family="Helvetica-Light" font-size="42.0" fill="#34A4DA" transform="matrix(1.00, 0.00, -0.00, -1.00, 522.8, 70.0)">m</text><text xml:space="preserve" font-family="Helvetica-Light" font-size="42.0" fill="#34A4DA" transform="matrix(1.00, 0.00, -0.00, -1.00, 557.8, 70.0)">/</text><text xml:space="preserve" font-family="Helvetica-Light" font-size="42.0" fill="#34A4DA" transform="matrix(1.00, 0.00, -0.00, -1.00, 569.4, 70.0)">T</text><text xml:space="preserve" font-family="Helvetica-Light" font-size="42.0" fill="#34A4DA" transform="matrix(1.00, 0.00, -0.00, -1.00, 588.1, 70.0)">o</text><text xml:space="preserve" font-family="Helvetica-Light" font-size="42.0" fill="#34A4DA" transform="matrix(1.00, 0.00, -0.00, -1.00, 611.5, 70.0)">m</text><text xml:space="preserve" font-family="Helvetica-Light" font-size="42.0" fill="#34A4DA" transform="matrix(1.00, 0.00, -0.00, -1.00, 646.5, 70.0)">m</text><text xml:space="preserve" font-family="Helvetica-Light" font-size="42.0" fill="#34A4DA" transform="matrix(1.00, 0.00, -0.00, -1.00, 681.5, 70.0)">y</text><text xml:space="preserve" font-family="Helvetica-Light" font-size="42.0" fill="#34A4DA" transform="matrix(1.00, 0.00, -0.00, -1.00, 702.5, 70.0)">J</text><text xml:space="preserve" font-family="Helvetica-Light" font-size="42.0" fill="#34A4DA" transform="matrix(1.00, 0.00, -0.00, -1.00, 723.5, 70.0)">o</text><text xml:space="preserve" font-family="Helvetica-Light" font-size="42.0" fill="#34A4DA" transform="matrix(1.00, 0.00, -0.00, -1.00, 746.8, 70.0)">n</text><text xml:space="preserve" font-family="Helvetica-Light" font-size="42.0" fill="#34A4DA" transform="matrix(1.00, 0.00, -0.00, -1.00, 770.2, 70.0)">e</text><text xml:space="preserve" font-family="Helvetica-Light" font-size="42.0" fill="#34A4DA" transform="matrix(1.00, 0.00, -0.00, -1.00, 793.5, 70.0)">s</text><text xml:space="preserve" font-family="Helvetica-Light" font-size="42.0" fill="#FEFFFF" transform="matrix(1.00, 0.00, -0.00, -1.00, 814.5, 70.0)"> </text><g><clipPath id="clip-514"><path d="M 202.2 64.8 L 814.7 64.8 L 814.7 68.9 L 202.2 68.9 Z M 202.2 64.8 "></path></clipPath><g clip-path="url(#clip-514)"><path d="M 39.0 522.5 L 650.5 522.5 " fill="none" stroke="#34A4DA" stroke-width="2.10" stroke-miterlimit="0.00" transform="matrix(1.00, 0.00, 0.00, -1.00, 164.2, 589.3)"></path></g></g></g></svg>