<?xml version="1.0" encoding="UTF-8" standalone="no"?><svg xmlns="http://www.w3.org/2000/svg" xmlns:xlink="http://www.w3.org/1999/xlink" clip-rule="evenodd" stroke-miterlimit="4.00" viewBox="0 0 1024 768"><desc>SVG generated by Keynote</desc><defs></defs><g transform="matrix(1.00, 0.00, -0.00, -1.00, 0.0, 768.0)"><path d="M 0.0 768.0 L 1024.0 768.0 L 1024.0 0.0 L 0.0 0.0 Z M 0.0 768.0 " fill="#000000"></path><text xml:space="preserve" font-family="Helvetica-Light" font-size="67.2" fill="#FEFFFF" transform="matrix(1.00, 0.00, -0.00, -1.00, 157.0, 678.0)">O</text><text xml:space="preserve" font-family="Helvetica-Light" font-size="67.2" fill="#FEFFFF" transform="matrix(1.00, 0.00, -0.00, -1.00, 209.3, 678.0)">t</text><text xml:space="preserve" font-family="Helvetica-Light" font-size="67.2" fill="#FEFFFF" transform="matrix(1.00, 0.00, -0.00, -1.00, 228.0, 678.0)">h</text><text xml:space="preserve" font-family="Helvetica-Light" font-size="67.2" fill="#FEFFFF" transform="matrix(1.00, 0.00, -0.00, -1.00, 265.3, 678.0)">e</text><text xml:space="preserve" font-family="Helvetica-Light" font-size="67.2" fill="#FEFFFF" transform="matrix(1.00, 0.00, -0.00, -1.00, 302.7, 678.0)">r</text><text xml:space="preserve" font-family="Helvetica-Light" font-size="67.2" fill="#FEFFFF" transform="matrix(1.00, 0.00, -0.00, -1.00, 325.1, 678.0)"> </text><text xml:space="preserve" font-family="Helvetica-Light" font-size="67.2" fill="#FEFFFF" transform="matrix(1.00, 0.00, -0.00, -1.00, 343.7, 678.0)">H</text><text xml:space="preserve" font-family="Helvetica-Light" font-size="67.2" fill="#FEFFFF" transform="matrix(1.00, 0.00, -0.00, -1.00, 392.3, 678.0)">e</text><text xml:space="preserve" font-family="Helvetica-Light" font-size="67.2" fill="#FEFFFF" transform="matrix(1.00, 0.00, -0.00, -1.00, 429.6, 678.0)">l</text><text xml:space="preserve" font-family="Helvetica-Light" font-size="67.2" fill="#FEFFFF" transform="matrix(1.00, 0.00, -0.00, -1.00, 444.5, 678.0)">p</text><text xml:space="preserve" font-family="Helvetica-Light" font-size="67.2" fill="#FEFFFF" transform="matrix(1.00, 0.00, -0.00, -1.00, 485.6, 678.0)">f</text><text xml:space="preserve" font-family="Helvetica-Light" font-size="67.2" fill="#FEFFFF" transform="matrix(1.00, 0.00, -0.00, -1.00, 504.3, 678.0)">u</text><text xml:space="preserve" font-family="Helvetica-Light" font-size="67.2" fill="#FEFFFF" transform="matrix(1.00, 0.00, -0.00, -1.00, 541.7, 678.0)">l</text><text xml:space="preserve" font-family="Helvetica-Light" font-size="67.2" fill="#FEFFFF" transform="matrix(1.00, 0.00, -0.00, -1.00, 556.6, 678.0)"> </text><text xml:space="preserve" font-family="Helvetica-Light" font-size="67.2" fill="#FEFFFF" transform="matrix(1.00, 0.00, -0.00, -1.00, 575.3, 678.0)">F</text><text xml:space="preserve" font-family="Helvetica-Light" font-size="67.2" fill="#FEFFFF" transform="matrix(1.00, 0.00, -0.00, -1.00, 612.6, 678.0)">u</text><text xml:space="preserve" font-family="Helvetica-Light" font-size="67.2" fill="#FEFFFF" transform="matrix(1.00, 0.00, -0.00, -1.00, 650.0, 678.0)">n</text><text xml:space="preserve" font-family="Helvetica-Light" font-size="67.2" fill="#FEFFFF" transform="matrix(1.00, 0.00, -0.00, -1.00, 687.3, 678.0)">c</text><text xml:space="preserve" font-family="Helvetica-Light" font-size="67.2" fill="#FEFFFF" transform="matrix(1.00, 0.00, -0.00, -1.00, 724.7, 678.0)">t</text><text xml:space="preserve" font-family="Helvetica-Light" font-size="67.2" fill="#FEFFFF" transform="matrix(1.00, 0.00, -0.00, -1.00, 743.4, 678.0)">i</text><text xml:space="preserve" font-family="Helvetica-Light" font-size="67.2" fill="#FEFFFF" transform="matrix(1.00, 0.00, -0.00, -1.00, 758.3, 678.0)">o</text><text xml:space="preserve" font-family="Helvetica-Light" font-size="67.2" fill="#FEFFFF" transform="matrix(1.00, 0.00, -0.00, -1.00, 795.7, 678.0)">n</text><text xml:space="preserve" font-family="Helvetica-Light" font-size="67.2" fill="#FEFFFF" transform="matrix(1.00, 0.00, -0.00, -1.00, 833.0, 678.0)">s</text><text xml:space="preserve" font-family="Helvetica-Light" font-size="67.2" fill="#FEFFFF" transform="matrix(1.00, 0.00, -0.00, -1.00, 866.6, 678.0)"> </text><text xml:space="preserve" font-family="Helvetica-Light" font-size="67.2" fill="#FEFFFF" transform="matrix(1.00, 0.00, -0.00, -1.00, 316.0, 598.0)">W</text><text xml:space="preserve" font-family="Helvetica-Light" font-size="67.2" fill="#FEFFFF" transform="matrix(1.00, 0.00, -0.00, -1.00, 374.5, 598.0)">o</text><text xml:space="preserve" font-family="Helvetica-Light" font-size="67.2" fill="#FEFFFF" transform="matrix(1.00, 0.00, -0.00, -1.00, 411.9, 598.0)">r</text><text xml:space="preserve" font-family="Helvetica-Light" font-size="67.2" fill="#FEFFFF" transform="matrix(1.00, 0.00, -0.00, -1.00, 435.5, 598.0)">t</text><text xml:space="preserve" font-family="Helvetica-Light" font-size="67.2" fill="#FEFFFF" transform="matrix(1.00, 0.00, -0.00, -1.00, 454.2, 598.0)">h</text><text xml:space="preserve" font-family="Helvetica-Light" font-size="67.2" fill="#FEFFFF" transform="matrix(1.00, 0.00, -0.00, -1.00, 491.5, 598.0)"> </text><text xml:space="preserve" font-family="Helvetica-Light" font-size="67.2" fill="#FEFFFF" transform="matrix(1.00, 0.00, -0.00, -1.00, 510.2, 598.0)">N</text><text xml:space="preserve" font-family="Helvetica-Light" font-size="67.2" fill="#FEFFFF" transform="matrix(1.00, 0.00, -0.00, -1.00, 558.7, 598.0)">o</text><text xml:space="preserve" font-family="Helvetica-Light" font-size="67.2" fill="#FEFFFF" transform="matrix(1.00, 0.00, -0.00, -1.00, 596.1, 598.0)">t</text><text xml:space="preserve" font-family="Helvetica-Light" font-size="67.2" fill="#FEFFFF" transform="matrix(1.00, 0.00, -0.00, -1.00, 614.8, 598.0)">i</text><text xml:space="preserve" font-family="Helvetica-Light" font-size="67.2" fill="#FEFFFF" transform="matrix(1.00, 0.00, -0.00, -1.00, 629.7, 598.0)">n</text><text xml:space="preserve" font-family="Helvetica-Light" font-size="67.2" fill="#FEFFFF" transform="matrix(1.00, 0.00, -0.00, -1.00, 667.1, 598.0)">g</text><text xml:space="preserve" font-family="Helvetica-Light" font-size="28.5" fill="#52575F" transform="matrix(1.00, 0.00, -0.00, -1.00, 79.0, 481.1)">•</text><text xml:space="preserve" font-family="Helvetica-Light" font-size="38.0" fill="#52575F" transform="matrix(1.00, 0.00, -0.00, -1.00, 114.0, 478.0)">C</text><text xml:space="preserve" font-family="Helvetica-Light" font-size="38.0" fill="#52575F" transform="matrix(1.00, 0.00, -0.00, -1.00, 141.4, 478.0)">a</text><text xml:space="preserve" font-family="Helvetica-Light" font-size="38.0" fill="#52575F" transform="matrix(1.00, 0.00, -0.00, -1.00, 162.6, 478.0)">l</text><text xml:space="preserve" font-family="Helvetica-Light" font-size="38.0" fill="#52575F" transform="matrix(1.00, 0.00, -0.00, -1.00, 171.0, 478.0)">c</text><text xml:space="preserve" font-family="Helvetica-Light" font-size="38.0" fill="#52575F" transform="matrix(1.00, 0.00, -0.00, -1.00, 192.1, 478.0)">H</text><text xml:space="preserve" font-family="Helvetica-Light" font-size="38.0" fill="#52575F" transform="matrix(1.00, 0.00, -0.00, -1.00, 219.6, 478.0)">e</text><text xml:space="preserve" font-family="Helvetica-Light" font-size="38.0" fill="#52575F" transform="matrix(1.00, 0.00, -0.00, -1.00, 240.7, 478.0)">l</text><text xml:space="preserve" font-family="Helvetica-Light" font-size="38.0" fill="#52575F" transform="matrix(1.00, 0.00, -0.00, -1.00, 249.1, 478.0)">l</text><text xml:space="preserve" font-family="Helvetica-Light" font-size="38.0" fill="#52575F" transform="matrix(1.00, 0.00, -0.00, -1.00, 257.6, 478.0)">i</text><text xml:space="preserve" font-family="Helvetica-Light" font-size="38.0" fill="#52575F" transform="matrix(1.00, 0.00, -0.00, -1.00, 266.0, 478.0)">n</text><text xml:space="preserve" font-family="Helvetica-Light" font-size="38.0" fill="#52575F" transform="matrix(1.00, 0.00, -0.00, -1.00, 287.1, 478.0)">g</text><text xml:space="preserve" font-family="Helvetica-Light" font-size="38.0" fill="#52575F" transform="matrix(1.00, 0.00, -0.00, -1.00, 310.3, 478.0)">e</text><text xml:space="preserve" font-family="Helvetica-Light" font-size="38.0" fill="#52575F" transform="matrix(1.00, 0.00, -0.00, -1.00, 331.5, 478.0)">r</text><text xml:space="preserve" font-family="Helvetica-Light" font-size="38.0" fill="#52575F" transform="matrix(1.00, 0.00, -0.00, -1.00, 344.1, 478.0)">D</text><text xml:space="preserve" font-family="Helvetica-Light" font-size="38.0" fill="#52575F" transform="matrix(1.00, 0.00, -0.00, -1.00, 371.6, 478.0)">i</text><text xml:space="preserve" font-family="Helvetica-Light" font-size="38.0" fill="#52575F" transform="matrix(1.00, 0.00, -0.00, -1.00, 380.0, 478.0)">s</text><text xml:space="preserve" font-family="Helvetica-Light" font-size="38.0" fill="#52575F" transform="matrix(1.00, 0.00, -0.00, -1.00, 399.0, 478.0)">t</text><text xml:space="preserve" font-family="Helvetica-Light" font-size="38.0" fill="#52575F" transform="matrix(1.00, 0.00, -0.00, -1.00, 409.6, 478.0)"> </text><text xml:space="preserve" font-family="Helvetica-Light" font-size="28.5" fill="#52575F" transform="matrix(1.00, 0.00, -0.00, -1.00, 79.0, 393.1)">•</text><text xml:space="preserve" font-family="Helvetica-Light" font-size="38.0" fill="#52575F" transform="matrix(1.00, 0.00, -0.00, -1.00, 114.0, 390.0)">C</text><text xml:space="preserve" font-family="Helvetica-Light" font-size="38.0" fill="#52575F" transform="matrix(1.00, 0.00, -0.00, -1.00, 141.4, 390.0)">a</text><text xml:space="preserve" font-family="Helvetica-Light" font-size="38.0" fill="#52575F" transform="matrix(1.00, 0.00, -0.00, -1.00, 162.6, 390.0)">l</text><text xml:space="preserve" font-family="Helvetica-Light" font-size="38.0" fill="#52575F" transform="matrix(1.00, 0.00, -0.00, -1.00, 171.0, 390.0)">c</text><text xml:space="preserve" font-family="Helvetica-Light" font-size="38.0" fill="#52575F" transform="matrix(1.00, 0.00, -0.00, -1.00, 192.1, 390.0)">J</text><text xml:space="preserve" font-family="Helvetica-Light" font-size="38.0" fill="#52575F" transform="matrix(1.00, 0.00, -0.00, -1.00, 211.1, 390.0)">S</text><text xml:space="preserve" font-family="Helvetica-Light" font-size="38.0" fill="#52575F" transform="matrix(1.00, 0.00, -0.00, -1.00, 234.3, 390.0)">D</text><text xml:space="preserve" font-family="Helvetica-Light" font-size="38.0" fill="#52575F" transform="matrix(1.00, 0.00, -0.00, -1.00, 261.8, 390.0)">i</text><text xml:space="preserve" font-family="Helvetica-Light" font-size="38.0" fill="#52575F" transform="matrix(1.00, 0.00, -0.00, -1.00, 270.2, 390.0)">v</text><text xml:space="preserve" font-family="Helvetica-Light" font-size="38.0" fill="#52575F" transform="matrix(1.00, 0.00, -0.00, -1.00, 289.2, 390.0)">e</text><text xml:space="preserve" font-family="Helvetica-Light" font-size="38.0" fill="#52575F" transform="matrix(1.00, 0.00, -0.00, -1.00, 310.3, 390.0)">r</text><text xml:space="preserve" font-family="Helvetica-Light" font-size="38.0" fill="#52575F" transform="matrix(1.00, 0.00, -0.00, -1.00, 323.0, 390.0)">g</text><text xml:space="preserve" font-family="Helvetica-Light" font-size="38.0" fill="#52575F" transform="matrix(1.00, 0.00, -0.00, -1.00, 346.2, 390.0)">e</text><text xml:space="preserve" font-family="Helvetica-Light" font-size="38.0" fill="#52575F" transform="matrix(1.00, 0.00, -0.00, -1.00, 367.3, 390.0)">n</text><text xml:space="preserve" font-family="Helvetica-Light" font-size="38.0" fill="#52575F" transform="matrix(1.00, 0.00, -0.00, -1.00, 388.5, 390.0)">c</text><text xml:space="preserve" font-family="Helvetica-Light" font-size="38.0" fill="#52575F" transform="matrix(1.00, 0.00, -0.00, -1.00, 409.6, 390.0)">e</text><text xml:space="preserve" font-family="Helvetica-Light" font-size="38.0" fill="#52575F" transform="matrix(1.00, 0.00, -0.00, -1.00, 430.7, 390.0)"> </text><text xml:space="preserve" font-family="Helvetica-Bold" font-weight="bold" font-size="28.5" fill="#FEFFFF" transform="matrix(1.00, 0.00, -0.00, -1.00, 79.0, 305.1)">•</text><text xml:space="preserve" font-family="Helvetica-Bold" font-weight="bold" font-size="38.0" fill="#FEFFFF" transform="matrix(1.00, 0.00, -0.00, -1.00, 114.0, 302.0)">D</text><text xml:space="preserve" font-family="Helvetica-Bold" font-weight="bold" font-size="38.0" fill="#FEFFFF" transform="matrix(1.00, 0.00, -0.00, -1.00, 141.4, 302.0)">t</text><text xml:space="preserve" font-family="Helvetica-Bold" font-weight="bold" font-size="38.0" fill="#FEFFFF" transform="matrix(1.00, 0.00, -0.00, -1.00, 154.1, 302.0)">m</text><text xml:space="preserve" font-family="Helvetica-Bold" font-weight="bold" font-size="38.0" fill="#FEFFFF" transform="matrix(1.00, 0.00, -0.00, -1.00, 187.9, 302.0)">2</text><text xml:space="preserve" font-family="Helvetica-Bold" font-weight="bold" font-size="38.0" fill="#FEFFFF" transform="matrix(1.00, 0.00, -0.00, -1.00, 209.0, 302.0)">D</text><text xml:space="preserve" font-family="Helvetica-Bold" font-weight="bold" font-size="38.0" fill="#FEFFFF" transform="matrix(1.00, 0.00, -0.00, -1.00, 236.5, 302.0)">o</text><text xml:space="preserve" font-family="Helvetica-Bold" font-weight="bold" font-size="38.0" fill="#FEFFFF" transform="matrix(1.00, 0.00, -0.00, -1.00, 259.7, 302.0)">c</text><text xml:space="preserve" font-family="Helvetica-Bold" font-weight="bold" font-size="38.0" fill="#FEFFFF" transform="matrix(1.00, 0.00, -0.00, -1.00, 280.8, 302.0)">s</text><text xml:space="preserve" font-family="Helvetica-Bold" font-weight="bold" font-size="28.5" fill="#FEFFFF" transform="matrix(1.00, 0.00, -0.00, -1.00, 79.0, 217.1)">•</text><text xml:space="preserve" font-family="Helvetica-Bold" font-weight="bold" font-size="38.0" fill="#FEFFFF" transform="matrix(1.00, 0.00, -0.00, -1.00, 114.0, 214.0)">T</text><text xml:space="preserve" font-family="Helvetica-Bold" font-weight="bold" font-size="38.0" fill="#FEFFFF" transform="matrix(1.00, 0.00, -0.00, -1.00, 137.2, 214.0)">m</text><text xml:space="preserve" font-family="Helvetica-Bold" font-weight="bold" font-size="38.0" fill="#FEFFFF" transform="matrix(1.00, 0.00, -0.00, -1.00, 171.0, 214.0)">P</text><text xml:space="preserve" font-family="Helvetica-Bold" font-weight="bold" font-size="38.0" fill="#FEFFFF" transform="matrix(1.00, 0.00, -0.00, -1.00, 196.3, 214.0)">a</text><text xml:space="preserve" font-family="Helvetica-Bold" font-weight="bold" font-size="38.0" fill="#FEFFFF" transform="matrix(1.00, 0.00, -0.00, -1.00, 217.5, 214.0)">r</text><text xml:space="preserve" font-family="Helvetica-Bold" font-weight="bold" font-size="38.0" fill="#FEFFFF" transform="matrix(1.00, 0.00, -0.00, -1.00, 232.3, 214.0)">a</text><text xml:space="preserve" font-family="Helvetica-Bold" font-weight="bold" font-size="38.0" fill="#FEFFFF" transform="matrix(1.00, 0.00, -0.00, -1.00, 253.4, 214.0)">l</text><text xml:space="preserve" font-family="Helvetica-Bold" font-weight="bold" font-size="38.0" fill="#FEFFFF" transform="matrix(1.00, 0.00, -0.00, -1.00, 264.0, 214.0)">l</text><text xml:space="preserve" font-family="Helvetica-Bold" font-weight="bold" font-size="38.0" fill="#FEFFFF" transform="matrix(1.00, 0.00, -0.00, -1.00, 274.5, 214.0)">e</text><text xml:space="preserve" font-family="Helvetica-Bold" font-weight="bold" font-size="38.0" fill="#FEFFFF" transform="matrix(1.00, 0.00, -0.00, -1.00, 295.7, 214.0)">l</text><text xml:space="preserve" font-family="Helvetica-Bold" font-weight="bold" font-size="38.0" fill="#FEFFFF" transform="matrix(1.00, 0.00, -0.00, -1.00, 306.2, 214.0)">A</text><text xml:space="preserve" font-family="Helvetica-Bold" font-weight="bold" font-size="38.0" fill="#FEFFFF" transform="matrix(1.00, 0.00, -0.00, -1.00, 333.7, 214.0)">p</text><text xml:space="preserve" font-family="Helvetica-Bold" font-weight="bold" font-size="38.0" fill="#FEFFFF" transform="matrix(1.00, 0.00, -0.00, -1.00, 356.9, 214.0)">p</text><text xml:space="preserve" font-family="Helvetica-Bold" font-weight="bold" font-size="38.0" fill="#FEFFFF" transform="matrix(1.00, 0.00, -0.00, -1.00, 380.1, 214.0)">l</text><text xml:space="preserve" font-family="Helvetica-Bold" font-weight="bold" font-size="38.0" fill="#FEFFFF" transform="matrix(1.00, 0.00, -0.00, -1.00, 390.6, 214.0)">y</text><text xml:space="preserve" font-family="Helvetica-Light" font-size="28.5" fill="#52575F" transform="matrix(1.00, 0.00, -0.00, -1.00, 79.0, 129.1)">•</text><text xml:space="preserve" font-family="Helvetica-Light" font-size="38.0" fill="#52575F" transform="matrix(1.00, 0.00, -0.00, -1.00, 114.0, 126.0)">R</text><text xml:space="preserve" font-family="Helvetica-Light" font-size="38.0" fill="#52575F" transform="matrix(1.00, 0.00, -0.00, -1.00, 139.3, 126.0)">e</text><text xml:space="preserve" font-family="Helvetica-Light" font-size="38.0" fill="#52575F" transform="matrix(1.00, 0.00, -0.00, -1.00, 160.5, 126.0)">c</text><text xml:space="preserve" font-family="Helvetica-Light" font-size="38.0" fill="#52575F" transform="matrix(1.00, 0.00, -0.00, -1.00, 181.6, 126.0)">u</text><text xml:space="preserve" font-family="Helvetica-Light" font-size="38.0" fill="#52575F" transform="matrix(1.00, 0.00, -0.00, -1.00, 202.7, 126.0)">r</text><text xml:space="preserve" font-family="Helvetica-Light" font-size="38.0" fill="#52575F" transform="matrix(1.00, 0.00, -0.00, -1.00, 215.4, 126.0)">s</text><text xml:space="preserve" font-family="Helvetica-Light" font-size="38.0" fill="#52575F" transform="matrix(1.00, 0.00, -0.00, -1.00, 234.4, 126.0)">i</text><text xml:space="preserve" font-family="Helvetica-Light" font-size="38.0" fill="#52575F" transform="matrix(1.00, 0.00, -0.00, -1.00, 242.8, 126.0)">v</text><text xml:space="preserve" font-family="Helvetica-Light" font-size="38.0" fill="#52575F" transform="matrix(1.00, 0.00, -0.00, -1.00, 261.8, 126.0)">e</text><text xml:space="preserve" font-family="Helvetica-Light" font-size="38.0" fill="#52575F" transform="matrix(1.00, 0.00, -0.00, -1.00, 282.9, 126.0)">R</text><text xml:space="preserve" font-family="Helvetica-Light" font-size="38.0" fill="#52575F" transform="matrix(1.00, 0.00, -0.00, -1.00, 308.3, 126.0)">b</text><text xml:space="preserve" font-family="Helvetica-Light" font-size="38.0" fill="#52575F" transform="matrix(1.00, 0.00, -0.00, -1.00, 331.5, 126.0)">i</text><text xml:space="preserve" font-family="Helvetica-Light" font-size="38.0" fill="#52575F" transform="matrix(1.00, 0.00, -0.00, -1.00, 339.9, 126.0)">n</text><text xml:space="preserve" font-family="Helvetica-Light" font-size="38.0" fill="#52575F" transform="matrix(1.00, 0.00, -0.00, -1.00, 361.1, 126.0)">d</text></g></svg>