<?xml version="1.0" encoding="UTF-8" standalone="no"?><svg xmlns="http://www.w3.org/2000/svg" xmlns:xlink="http://www.w3.org/1999/xlink" clip-rule="evenodd" stroke-miterlimit="4.00" viewBox="0 0 1024 768"><desc>SVG generated by Keynote</desc><defs></defs><g transform="matrix(1.00, 0.00, -0.00, -1.00, 0.0, 768.0)"><path d="M 0.0 768.0 L 1024.0 768.0 L 1024.0 0.0 L 0.0 0.0 Z M 0.0 768.0 " fill="#000000"></path><text xml:space="preserve" font-family="Helvetica-Light" font-size="80.0" fill="#FEFFFF" transform="matrix(1.00, 0.00, -0.00, -1.00, 221.0, 633.0)">S</text><text xml:space="preserve" font-family="Helvetica-Light" font-size="80.0" fill="#FEFFFF" transform="matrix(1.00, 0.00, -0.00, -1.00, 269.9, 633.0)">p</text><text xml:space="preserve" font-family="Helvetica-Light" font-size="80.0" fill="#FEFFFF" transform="matrix(1.00, 0.00, -0.00, -1.00, 318.8, 633.0)">a</text><text xml:space="preserve" font-family="Helvetica-Light" font-size="80.0" fill="#FEFFFF" transform="matrix(1.00, 0.00, -0.00, -1.00, 363.2, 633.0)">r</text><text xml:space="preserve" font-family="Helvetica-Light" font-size="80.0" fill="#FEFFFF" transform="matrix(1.00, 0.00, -0.00, -1.00, 389.9, 633.0)">s</text><text xml:space="preserve" font-family="Helvetica-Light" font-size="80.0" fill="#FEFFFF" transform="matrix(1.00, 0.00, -0.00, -1.00, 429.9, 633.0)">e</text><text xml:space="preserve" font-family="Helvetica-Light" font-size="80.0" fill="#FEFFFF" transform="matrix(1.00, 0.00, -0.00, -1.00, 474.4, 633.0)"> </text><text xml:space="preserve" font-family="Helvetica-Light" font-size="80.0" fill="#FEFFFF" transform="matrix(1.00, 0.00, -0.00, -1.00, 496.6, 633.0)">M</text><text xml:space="preserve" font-family="Helvetica-Light" font-size="80.0" fill="#FEFFFF" transform="matrix(1.00, 0.00, -0.00, -1.00, 563.2, 633.0)">a</text><text xml:space="preserve" font-family="Helvetica-Light" font-size="80.0" fill="#FEFFFF" transform="matrix(1.00, 0.00, -0.00, -1.00, 607.7, 633.0)">t</text><text xml:space="preserve" font-family="Helvetica-Light" font-size="80.0" fill="#FEFFFF" transform="matrix(1.00, 0.00, -0.00, -1.00, 630.0, 633.0)">r</text><text xml:space="preserve" font-family="Helvetica-Light" font-size="80.0" fill="#FEFFFF" transform="matrix(1.00, 0.00, -0.00, -1.00, 656.6, 633.0)">i</text><text xml:space="preserve" font-family="Helvetica-Light" font-size="80.0" fill="#FEFFFF" transform="matrix(1.00, 0.00, -0.00, -1.00, 674.4, 633.0)">c</text><text xml:space="preserve" font-family="Helvetica-Light" font-size="80.0" fill="#FEFFFF" transform="matrix(1.00, 0.00, -0.00, -1.00, 718.8, 633.0)">e</text><text xml:space="preserve" font-family="Helvetica-Light" font-size="80.0" fill="#FEFFFF" transform="matrix(1.00, 0.00, -0.00, -1.00, 763.3, 633.0)">s</text><g><clipPath id="clip-267"><path d="M 26.0 553.0 L 493.0 553.0 L 493.0 98.0 L 26.0 98.0 Z M 26.4 552.5 "></path></clipPath><g clip-path="url(#clip-267)"><g><clipPath id="clip-268"><path d="M 26.4 97.5 L 493.4 97.5 L 493.4 552.5 L 26.4 552.5 Z M 26.4 97.5 "></path></clipPath><g clip-path="url(#clip-268)"><image xlink:href="../../E76473AD-80C5-4601-8A1A-5F462067EA5E/assets/303C50582EDA3C5CD2CC44F63DFA0E15.png" width="467.00" height="455.00" transform="matrix(1.00, 0.00, -0.00, -1.00, 26.0, 552.0)"></image></g></g></g></g><g><clipPath id="clip-269"><path d="M 38.6 320.7 L 206.1 320.7 L 206.1 368.7 L 38.6 368.7 Z M 38.6 320.7 "></path></clipPath><g clip-path="url(#clip-269)"><text xml:space="preserve" font-family="Helvetica-Light" font-size="28.0" fill="#000000" transform="matrix(1.00, 0.00, -0.00, -1.00, 46.0, 334.0)">D</text><text xml:space="preserve" font-family="Helvetica-Light" font-size="28.0" fill="#000000" transform="matrix(1.00, 0.00, -0.00, -1.00, 66.2, 334.0)">o</text><text xml:space="preserve" font-family="Helvetica-Light" font-size="28.0" fill="#000000" transform="matrix(1.00, 0.00, -0.00, -1.00, 81.8, 334.0)">c</text><text xml:space="preserve" font-family="Helvetica-Light" font-size="28.0" fill="#000000" transform="matrix(1.00, 0.00, -0.00, -1.00, 97.4, 334.0)">u</text><text xml:space="preserve" font-family="Helvetica-Light" font-size="28.0" fill="#000000" transform="matrix(1.00, 0.00, -0.00, -1.00, 112.9, 334.0)">m</text><text xml:space="preserve" font-family="Helvetica-Light" font-size="28.0" fill="#000000" transform="matrix(1.00, 0.00, -0.00, -1.00, 136.2, 334.0)">e</text><text xml:space="preserve" font-family="Helvetica-Light" font-size="28.0" fill="#000000" transform="matrix(1.00, 0.00, -0.00, -1.00, 151.8, 334.0)">n</text><text xml:space="preserve" font-family="Helvetica-Light" font-size="28.0" fill="#000000" transform="matrix(1.00, 0.00, -0.00, -1.00, 167.4, 334.0)">t</text><text xml:space="preserve" font-family="Helvetica-Light" font-size="28.0" fill="#000000" transform="matrix(1.00, 0.00, -0.00, -1.00, 175.2, 334.0)"> </text><text xml:space="preserve" font-family="Helvetica-Light" font-size="28.0" fill="#000000" transform="matrix(1.00, 0.00, -0.00, -1.00, 182.9, 334.0)">1</text></g></g><g><clipPath id="clip-270"><path d="M 38.6 277.3 L 206.1 277.3 L 206.1 325.3 L 38.6 325.3 Z M 38.6 277.3 "></path></clipPath><g clip-path="url(#clip-270)"><text xml:space="preserve" font-family="Helvetica-Light" font-size="28.0" fill="#000000" transform="matrix(1.00, 0.00, -0.00, -1.00, 46.0, 291.0)">D</text><text xml:space="preserve" font-family="Helvetica-Light" font-size="28.0" fill="#000000" transform="matrix(1.00, 0.00, -0.00, -1.00, 66.2, 291.0)">o</text><text xml:space="preserve" font-family="Helvetica-Light" font-size="28.0" fill="#000000" transform="matrix(1.00, 0.00, -0.00, -1.00, 81.8, 291.0)">c</text><text xml:space="preserve" font-family="Helvetica-Light" font-size="28.0" fill="#000000" transform="matrix(1.00, 0.00, -0.00, -1.00, 97.4, 291.0)">u</text><text xml:space="preserve" font-family="Helvetica-Light" font-size="28.0" fill="#000000" transform="matrix(1.00, 0.00, -0.00, -1.00, 112.9, 291.0)">m</text><text xml:space="preserve" font-family="Helvetica-Light" font-size="28.0" fill="#000000" transform="matrix(1.00, 0.00, -0.00, -1.00, 136.2, 291.0)">e</text><text xml:space="preserve" font-family="Helvetica-Light" font-size="28.0" fill="#000000" transform="matrix(1.00, 0.00, -0.00, -1.00, 151.8, 291.0)">n</text><text xml:space="preserve" font-family="Helvetica-Light" font-size="28.0" fill="#000000" transform="matrix(1.00, 0.00, -0.00, -1.00, 167.4, 291.0)">t</text><text xml:space="preserve" font-family="Helvetica-Light" font-size="28.0" fill="#000000" transform="matrix(1.00, 0.00, -0.00, -1.00, 175.2, 291.0)"> </text><text xml:space="preserve" font-family="Helvetica-Light" font-size="28.0" fill="#000000" transform="matrix(1.00, 0.00, -0.00, -1.00, 182.9, 291.0)">2</text></g></g><g><clipPath id="clip-271"><path d="M 38.6 231.9 L 206.1 231.9 L 206.1 279.9 L 38.6 279.9 Z M 38.6 231.9 "></path></clipPath><g clip-path="url(#clip-271)"><text xml:space="preserve" font-family="Helvetica-Light" font-size="28.0" fill="#000000" transform="matrix(1.00, 0.00, -0.00, -1.00, 46.0, 245.0)">D</text><text xml:space="preserve" font-family="Helvetica-Light" font-size="28.0" fill="#000000" transform="matrix(1.00, 0.00, -0.00, -1.00, 66.2, 245.0)">o</text><text xml:space="preserve" font-family="Helvetica-Light" font-size="28.0" fill="#000000" transform="matrix(1.00, 0.00, -0.00, -1.00, 81.8, 245.0)">c</text><text xml:space="preserve" font-family="Helvetica-Light" font-size="28.0" fill="#000000" transform="matrix(1.00, 0.00, -0.00, -1.00, 97.4, 245.0)">u</text><text xml:space="preserve" font-family="Helvetica-Light" font-size="28.0" fill="#000000" transform="matrix(1.00, 0.00, -0.00, -1.00, 112.9, 245.0)">m</text><text xml:space="preserve" font-family="Helvetica-Light" font-size="28.0" fill="#000000" transform="matrix(1.00, 0.00, -0.00, -1.00, 136.2, 245.0)">e</text><text xml:space="preserve" font-family="Helvetica-Light" font-size="28.0" fill="#000000" transform="matrix(1.00, 0.00, -0.00, -1.00, 151.8, 245.0)">n</text><text xml:space="preserve" font-family="Helvetica-Light" font-size="28.0" fill="#000000" transform="matrix(1.00, 0.00, -0.00, -1.00, 167.4, 245.0)">t</text><text xml:space="preserve" font-family="Helvetica-Light" font-size="28.0" fill="#000000" transform="matrix(1.00, 0.00, -0.00, -1.00, 175.2, 245.0)"> </text><text xml:space="preserve" font-family="Helvetica-Light" font-size="28.0" fill="#000000" transform="matrix(1.00, 0.00, -0.00, -1.00, 182.9, 245.0)">3</text></g></g><g><clipPath id="clip-272"><path d="M 38.6 186.5 L 206.1 186.5 L 206.1 234.5 L 38.6 234.5 Z M 38.6 186.5 "></path></clipPath><g clip-path="url(#clip-272)"><text xml:space="preserve" font-family="Helvetica-Light" font-size="28.0" fill="#000000" transform="matrix(1.00, 0.00, -0.00, -1.00, 46.0, 200.0)">D</text><text xml:space="preserve" font-family="Helvetica-Light" font-size="28.0" fill="#000000" transform="matrix(1.00, 0.00, -0.00, -1.00, 66.2, 200.0)">o</text><text xml:space="preserve" font-family="Helvetica-Light" font-size="28.0" fill="#000000" transform="matrix(1.00, 0.00, -0.00, -1.00, 81.8, 200.0)">c</text><text xml:space="preserve" font-family="Helvetica-Light" font-size="28.0" fill="#000000" transform="matrix(1.00, 0.00, -0.00, -1.00, 97.4, 200.0)">u</text><text xml:space="preserve" font-family="Helvetica-Light" font-size="28.0" fill="#000000" transform="matrix(1.00, 0.00, -0.00, -1.00, 112.9, 200.0)">m</text><text xml:space="preserve" font-family="Helvetica-Light" font-size="28.0" fill="#000000" transform="matrix(1.00, 0.00, -0.00, -1.00, 136.2, 200.0)">e</text><text xml:space="preserve" font-family="Helvetica-Light" font-size="28.0" fill="#000000" transform="matrix(1.00, 0.00, -0.00, -1.00, 151.8, 200.0)">n</text><text xml:space="preserve" font-family="Helvetica-Light" font-size="28.0" fill="#000000" transform="matrix(1.00, 0.00, -0.00, -1.00, 167.4, 200.0)">t</text><text xml:space="preserve" font-family="Helvetica-Light" font-size="28.0" fill="#000000" transform="matrix(1.00, 0.00, -0.00, -1.00, 175.2, 200.0)"> </text><text xml:space="preserve" font-family="Helvetica-Light" font-size="28.0" fill="#000000" transform="matrix(1.00, 0.00, -0.00, -1.00, 182.9, 200.0)">4</text></g></g><g><clipPath id="clip-273"><path d="M 38.6 141.0 L 206.1 141.0 L 206.1 189.0 L 38.6 189.0 Z M 38.6 141.0 "></path></clipPath><g clip-path="url(#clip-273)"><text xml:space="preserve" font-family="Helvetica-Light" font-size="28.0" fill="#000000" transform="matrix(1.00, 0.00, -0.00, -1.00, 46.0, 154.0)">D</text><text xml:space="preserve" font-family="Helvetica-Light" font-size="28.0" fill="#000000" transform="matrix(1.00, 0.00, -0.00, -1.00, 66.2, 154.0)">o</text><text xml:space="preserve" font-family="Helvetica-Light" font-size="28.0" fill="#000000" transform="matrix(1.00, 0.00, -0.00, -1.00, 81.8, 154.0)">c</text><text xml:space="preserve" font-family="Helvetica-Light" font-size="28.0" fill="#000000" transform="matrix(1.00, 0.00, -0.00, -1.00, 97.4, 154.0)">u</text><text xml:space="preserve" font-family="Helvetica-Light" font-size="28.0" fill="#000000" transform="matrix(1.00, 0.00, -0.00, -1.00, 112.9, 154.0)">m</text><text xml:space="preserve" font-family="Helvetica-Light" font-size="28.0" fill="#000000" transform="matrix(1.00, 0.00, -0.00, -1.00, 136.2, 154.0)">e</text><text xml:space="preserve" font-family="Helvetica-Light" font-size="28.0" fill="#000000" transform="matrix(1.00, 0.00, -0.00, -1.00, 151.8, 154.0)">n</text><text xml:space="preserve" font-family="Helvetica-Light" font-size="28.0" fill="#000000" transform="matrix(1.00, 0.00, -0.00, -1.00, 167.4, 154.0)">t</text><text xml:space="preserve" font-family="Helvetica-Light" font-size="28.0" fill="#000000" transform="matrix(1.00, 0.00, -0.00, -1.00, 175.2, 154.0)"> </text><text xml:space="preserve" font-family="Helvetica-Light" font-size="28.0" fill="#000000" transform="matrix(1.00, 0.00, -0.00, -1.00, 182.9, 154.0)">5</text></g></g><g><clipPath id="clip-274"><path d="M 100.9 95.6 L 143.9 95.6 L 143.9 143.6 L 100.9 143.6 Z M 100.9 95.6 "></path></clipPath><g clip-path="url(#clip-274)"><text xml:space="preserve" font-family="Helvetica-Light" font-size="28.0" fill="#000000" transform="matrix(1.00, 0.00, -0.00, -1.00, 108.0, 109.0)">…</text></g></g><g><clipPath id="clip-275"><path d="M 216.5 366.0 L 216.5 553.2 L 264.5 553.2 L 264.5 366.0 Z M 216.5 366.0 "></path></clipPath><g clip-path="url(#clip-275)"><text xml:space="preserve" font-family="Helvetica-Light" font-size="28.0" fill="#000000" transform="matrix(0.00, 1.00, 1.00, -0.00, 251.0, 373.0)">r</text><text xml:space="preserve" font-family="Helvetica-Light" font-size="28.0" fill="#000000" transform="matrix(0.00, 1.00, 1.00, -0.00, 251.0, 381.8)">e</text><text xml:space="preserve" font-family="Helvetica-Light" font-size="28.0" fill="#000000" transform="matrix(0.00, 1.00, 1.00, -0.00, 251.0, 397.4)">d</text><text xml:space="preserve" font-family="Helvetica-Light" font-size="28.0" fill="#000000" transform="matrix(0.00, 1.00, 1.00, -0.00, 251.0, 414.5)">u</text><text xml:space="preserve" font-family="Helvetica-Light" font-size="28.0" fill="#000000" transform="matrix(0.00, 1.00, 1.00, -0.00, 251.0, 430.1)">c</text><text xml:space="preserve" font-family="Helvetica-Light" font-size="28.0" fill="#000000" transform="matrix(0.00, 1.00, 1.00, -0.00, 251.0, 445.6)">e</text><text xml:space="preserve" font-family="Helvetica-Light" font-size="28.0" fill="#000000" transform="matrix(0.00, 1.00, 1.00, -0.00, 251.0, 461.2)"> </text><text xml:space="preserve" font-family="Helvetica-Light" font-size="28.0" fill="#000000" transform="matrix(0.00, 1.00, 1.00, -0.00, 251.0, 469.0)">h</text><text xml:space="preserve" font-family="Helvetica-Light" font-size="28.0" fill="#000000" transform="matrix(0.00, 1.00, 1.00, -0.00, 251.0, 484.6)">e</text><text xml:space="preserve" font-family="Helvetica-Light" font-size="28.0" fill="#000000" transform="matrix(0.00, 1.00, 1.00, -0.00, 251.0, 500.1)">a</text><text xml:space="preserve" font-family="Helvetica-Light" font-size="28.0" fill="#000000" transform="matrix(0.00, 1.00, 1.00, -0.00, 251.0, 515.7)">l</text><text xml:space="preserve" font-family="Helvetica-Light" font-size="28.0" fill="#000000" transform="matrix(0.00, 1.00, 1.00, -0.00, 251.0, 521.9)">t</text><text xml:space="preserve" font-family="Helvetica-Light" font-size="28.0" fill="#000000" transform="matrix(0.00, 1.00, 1.00, -0.00, 251.0, 529.7)">h</text></g></g><g><clipPath id="clip-276"><path d="M 262.8 409.7 L 262.8 499.4 L 310.8 499.4 L 310.8 409.7 Z M 262.8 409.7 "></path></clipPath><g clip-path="url(#clip-276)"><text xml:space="preserve" font-family="Helvetica-Light" font-size="28.0" fill="#000000" transform="matrix(0.00, 1.00, 1.00, -0.00, 297.0, 417.0)">p</text><text xml:space="preserve" font-family="Helvetica-Light" font-size="28.0" fill="#000000" transform="matrix(0.00, 1.00, 1.00, -0.00, 297.0, 434.1)">o</text><text xml:space="preserve" font-family="Helvetica-Light" font-size="28.0" fill="#000000" transform="matrix(0.00, 1.00, 1.00, -0.00, 297.0, 449.7)">l</text><text xml:space="preserve" font-family="Helvetica-Light" font-size="28.0" fill="#000000" transform="matrix(0.00, 1.00, 1.00, -0.00, 297.0, 455.9)">i</text><text xml:space="preserve" font-family="Helvetica-Light" font-size="28.0" fill="#000000" transform="matrix(0.00, 1.00, 1.00, -0.00, 297.0, 462.1)">c</text><text xml:space="preserve" font-family="Helvetica-Light" font-size="28.0" fill="#000000" transform="matrix(0.00, 1.00, 1.00, -0.00, 297.0, 477.7)">y</text></g></g><g><clipPath id="clip-277"><path d="M 309.2 373.1 L 309.2 536.0 L 357.2 536.0 L 357.2 373.1 Z M 309.2 373.1 "></path></clipPath><g clip-path="url(#clip-277)"><text xml:space="preserve" font-family="Helvetica-Light" font-size="28.0" fill="#000000" transform="matrix(0.00, 1.00, 1.00, -0.00, 344.0, 381.0)">f</text><text xml:space="preserve" font-family="Helvetica-Light" font-size="28.0" fill="#000000" transform="matrix(0.00, 1.00, 1.00, -0.00, 344.0, 388.8)">o</text><text xml:space="preserve" font-family="Helvetica-Light" font-size="28.0" fill="#000000" transform="matrix(0.00, 1.00, 1.00, -0.00, 344.0, 404.4)">o</text><text xml:space="preserve" font-family="Helvetica-Light" font-size="28.0" fill="#000000" transform="matrix(0.00, 1.00, 1.00, -0.00, 344.0, 419.9)">d</text><text xml:space="preserve" font-family="Helvetica-Light" font-size="28.0" fill="#000000" transform="matrix(0.00, 1.00, 1.00, -0.00, 344.0, 437.0)"> </text><text xml:space="preserve" font-family="Helvetica-Light" font-size="28.0" fill="#000000" transform="matrix(0.00, 1.00, 1.00, -0.00, 344.0, 444.8)">c</text><text xml:space="preserve" font-family="Helvetica-Light" font-size="28.0" fill="#000000" transform="matrix(0.00, 1.00, 1.00, -0.00, 344.0, 460.4)">h</text><text xml:space="preserve" font-family="Helvetica-Light" font-size="28.0" fill="#000000" transform="matrix(0.00, 1.00, 1.00, -0.00, 344.0, 475.9)">o</text><text xml:space="preserve" font-family="Helvetica-Light" font-size="28.0" fill="#000000" transform="matrix(0.00, 1.00, 1.00, -0.00, 344.0, 491.5)">i</text><text xml:space="preserve" font-family="Helvetica-Light" font-size="28.0" fill="#000000" transform="matrix(0.00, 1.00, 1.00, -0.00, 344.0, 497.7)">c</text><text xml:space="preserve" font-family="Helvetica-Light" font-size="28.0" fill="#000000" transform="matrix(0.00, 1.00, 1.00, -0.00, 344.0, 513.3)">e</text></g></g><g><clipPath id="clip-278"><path d="M 355.6 368.1 L 355.6 551.1 L 403.6 551.1 L 403.6 368.1 Z M 355.6 368.1 "></path></clipPath><g clip-path="url(#clip-278)"><text xml:space="preserve" font-family="Helvetica-Light" font-size="28.0" fill="#000000" transform="matrix(0.00, 1.00, 1.00, -0.00, 390.0, 376.0)">s</text><text xml:space="preserve" font-family="Helvetica-Light" font-size="28.0" fill="#000000" transform="matrix(0.00, 1.00, 1.00, -0.00, 390.0, 390.0)">t</text><text xml:space="preserve" font-family="Helvetica-Light" font-size="28.0" fill="#000000" transform="matrix(0.00, 1.00, 1.00, -0.00, 390.0, 397.8)">u</text><text xml:space="preserve" font-family="Helvetica-Light" font-size="28.0" fill="#000000" transform="matrix(0.00, 1.00, 1.00, -0.00, 390.0, 413.4)">d</text><text xml:space="preserve" font-family="Helvetica-Light" font-size="28.0" fill="#000000" transform="matrix(0.00, 1.00, 1.00, -0.00, 390.0, 430.5)">y</text><text xml:space="preserve" font-family="Helvetica-Light" font-size="28.0" fill="#000000" transform="matrix(0.00, 1.00, 1.00, -0.00, 390.0, 444.5)"> </text><text xml:space="preserve" font-family="Helvetica-Light" font-size="28.0" fill="#000000" transform="matrix(0.00, 1.00, 1.00, -0.00, 390.0, 452.2)">s</text><text xml:space="preserve" font-family="Helvetica-Light" font-size="28.0" fill="#000000" transform="matrix(0.00, 1.00, 1.00, -0.00, 390.0, 466.2)">o</text><text xml:space="preserve" font-family="Helvetica-Light" font-size="28.0" fill="#000000" transform="matrix(0.00, 1.00, 1.00, -0.00, 390.0, 481.8)">d</text><text xml:space="preserve" font-family="Helvetica-Light" font-size="28.0" fill="#000000" transform="matrix(0.00, 1.00, 1.00, -0.00, 390.0, 498.9)">i</text><text xml:space="preserve" font-family="Helvetica-Light" font-size="28.0" fill="#000000" transform="matrix(0.00, 1.00, 1.00, -0.00, 390.0, 505.1)">u</text><text xml:space="preserve" font-family="Helvetica-Light" font-size="28.0" fill="#000000" transform="matrix(0.00, 1.00, 1.00, -0.00, 390.0, 520.7)">m</text></g></g><g><clipPath id="clip-279"><path d="M 401.9 410.5 L 401.9 498.7 L 449.9 498.7 L 449.9 410.5 Z M 401.9 410.5 "></path></clipPath><g clip-path="url(#clip-279)"><text xml:space="preserve" font-family="Helvetica-Light" font-size="28.0" fill="#000000" transform="matrix(0.00, 1.00, 1.00, -0.00, 436.0, 418.0)">s</text><text xml:space="preserve" font-family="Helvetica-Light" font-size="28.0" fill="#000000" transform="matrix(0.00, 1.00, 1.00, -0.00, 436.0, 432.0)">o</text><text xml:space="preserve" font-family="Helvetica-Light" font-size="28.0" fill="#000000" transform="matrix(0.00, 1.00, 1.00, -0.00, 436.0, 447.6)">c</text><text xml:space="preserve" font-family="Helvetica-Light" font-size="28.0" fill="#000000" transform="matrix(0.00, 1.00, 1.00, -0.00, 436.0, 463.1)">i</text><text xml:space="preserve" font-family="Helvetica-Light" font-size="28.0" fill="#000000" transform="matrix(0.00, 1.00, 1.00, -0.00, 436.0, 469.4)">a</text><text xml:space="preserve" font-family="Helvetica-Light" font-size="28.0" fill="#000000" transform="matrix(0.00, 1.00, 1.00, -0.00, 436.0, 484.9)">l</text></g></g><g><clipPath id="clip-280"><path d="M 448.3 433.1 L 448.3 476.1 L 496.3 476.1 L 496.3 433.1 Z M 448.3 433.1 "></path></clipPath><g clip-path="url(#clip-280)"><text xml:space="preserve" font-family="Helvetica-Light" font-size="28.0" fill="#000000" transform="matrix(0.00, 1.00, 1.00, -0.00, 483.0, 441.0)">…</text></g></g><g><clipPath id="clip-281"><path d="M 225.2 320.7 L 255.8 320.7 L 255.8 368.7 L 225.2 368.7 Z M 225.2 320.7 "></path></clipPath><g clip-path="url(#clip-281)"><text xml:space="preserve" font-family="Helvetica-Light" font-size="28.0" fill="#000000" transform="matrix(1.00, 0.00, -0.00, -1.00, 233.0, 334.0)">1</text></g></g><g><clipPath id="clip-282"><path d="M 317.9 320.7 L 348.5 320.7 L 348.5 368.7 L 317.9 368.7 Z M 317.9 320.7 "></path></clipPath><g clip-path="url(#clip-282)"><text xml:space="preserve" font-family="Helvetica-Light" font-size="28.0" fill="#000000" transform="matrix(1.00, 0.00, -0.00, -1.00, 325.0, 334.0)">1</text></g></g><g><clipPath id="clip-283"><path d="M 271.5 277.3 L 302.1 277.3 L 302.1 325.3 L 271.5 325.3 Z M 271.5 277.3 "></path></clipPath><g clip-path="url(#clip-283)"><text xml:space="preserve" font-family="Helvetica-Light" font-size="28.0" fill="#000000" transform="matrix(1.00, 0.00, -0.00, -1.00, 279.0, 291.0)">1</text></g></g><g><clipPath id="clip-284"><path d="M 271.5 186.5 L 302.1 186.5 L 302.1 234.5 L 271.5 234.5 Z M 271.5 186.5 "></path></clipPath><g clip-path="url(#clip-284)"><text xml:space="preserve" font-family="Helvetica-Light" font-size="28.0" fill="#000000" transform="matrix(1.00, 0.00, -0.00, -1.00, 279.0, 200.0)">2</text></g></g><g><clipPath id="clip-285"><path d="M 225.2 141.0 L 255.8 141.0 L 255.8 189.0 L 225.2 189.0 Z M 225.2 141.0 "></path></clipPath><g clip-path="url(#clip-285)"><text xml:space="preserve" font-family="Helvetica-Light" font-size="28.0" fill="#000000" transform="matrix(1.00, 0.00, -0.00, -1.00, 233.0, 154.0)">1</text></g></g><g><clipPath id="clip-286"><path d="M 317.9 231.9 L 348.5 231.9 L 348.5 279.9 L 317.9 279.9 Z M 317.9 231.9 "></path></clipPath><g clip-path="url(#clip-286)"><text xml:space="preserve" font-family="Helvetica-Light" font-size="28.0" fill="#000000" transform="matrix(1.00, 0.00, -0.00, -1.00, 325.0, 245.0)">2</text></g></g><g><clipPath id="clip-287"><path d="M 317.9 141.0 L 348.5 141.0 L 348.5 189.0 L 317.9 189.0 Z M 317.9 141.0 "></path></clipPath><g clip-path="url(#clip-287)"><text xml:space="preserve" font-family="Helvetica-Light" font-size="28.0" fill="#000000" transform="matrix(1.00, 0.00, -0.00, -1.00, 325.0, 154.0)">1</text></g></g><g><clipPath id="clip-288"><path d="M 410.6 186.5 L 441.2 186.5 L 441.2 234.5 L 410.6 234.5 Z M 410.6 186.5 "></path></clipPath><g clip-path="url(#clip-288)"><text xml:space="preserve" font-family="Helvetica-Light" font-size="28.0" fill="#000000" transform="matrix(1.00, 0.00, -0.00, -1.00, 418.0, 200.0)">1</text></g></g><g><clipPath id="clip-289"><path d="M 410.6 141.0 L 441.2 141.0 L 441.2 189.0 L 410.6 189.0 Z M 410.6 141.0 "></path></clipPath><g clip-path="url(#clip-289)"><text xml:space="preserve" font-family="Helvetica-Light" font-size="28.0" fill="#000000" transform="matrix(1.00, 0.00, -0.00, -1.00, 418.0, 154.0)">3</text></g></g><path d="M 0.0 0.0 L 266.0 0.0 " fill="none" stroke="#000000" stroke-width="2.00" transform="matrix(-0.74, 0.68, 0.68, 0.74, 220.2, 367.9)"></path><g><clipPath id="clip-290"><path d="M 565.5 589.5 L 977.7 589.5 L 977.7 5.5 L 565.5 5.5 Z M 565.5 589.5 "></path></clipPath><g clip-path="url(#clip-290)"><path d="M 566.0 589.0 L 707.3 589.0 L 707.3 536.0 L 566.0 536.0 Z M 566.0 589.0 " fill="#1497FC"></path><path d="M 707.3 589.0 L 834.9 589.0 L 834.9 536.0 L 707.3 536.0 Z M 707.3 589.0 " fill="#1497FC"></path><path d="M 834.9 589.0 L 977.2 589.0 L 977.2 536.0 L 834.9 536.0 Z M 834.9 589.0 " fill="#1497FC"></path></g></g><g><clipPath id="clip-291"><path d="M 565.5 589.5 L 977.7 589.5 L 977.7 5.5 L 565.5 5.5 Z M 565.5 589.5 "></path></clipPath><g clip-path="url(#clip-291)"><g><clipPath id="clip-292"><path d="M 566.5 536.5 L 706.8 536.5 L 706.8 588.5 L 566.5 588.5 Z M 566.5 536.5 "></path></clipPath><g clip-path="url(#clip-292)"><text xml:space="preserve" font-family="Helvetica-Bold" font-weight="bold" font-size="42.0" fill="#FEFFFE" transform="matrix(1.00, 0.00, -0.00, -1.00, 631.0, 544.0)">i</text></g></g></g></g><g><clipPath id="clip-293"><path d="M 565.5 589.5 L 977.7 589.5 L 977.7 5.5 L 565.5 5.5 Z M 565.5 589.5 "></path></clipPath><g clip-path="url(#clip-293)"><g><clipPath id="clip-294"><path d="M 707.8 536.5 L 834.4 536.5 L 834.4 588.5 L 707.8 588.5 Z M 707.8 536.5 "></path></clipPath><g clip-path="url(#clip-294)"><text xml:space="preserve" font-family="Helvetica-Bold" font-weight="bold" font-size="42.0" fill="#FEFFFE" transform="matrix(1.00, 0.00, -0.00, -1.00, 765.0, 544.0)">j</text></g></g></g></g><g><clipPath id="clip-295"><path d="M 565.5 589.5 L 977.7 589.5 L 977.7 5.5 L 565.5 5.5 Z M 565.5 589.5 "></path></clipPath><g clip-path="url(#clip-295)"><g><clipPath id="clip-296"><path d="M 835.4 536.5 L 976.7 536.5 L 976.7 588.5 L 835.4 588.5 Z M 835.4 536.5 "></path></clipPath><g clip-path="url(#clip-296)"><text xml:space="preserve" font-family="Helvetica-Bold" font-weight="bold" font-size="42.0" fill="#FEFFFE" transform="matrix(1.00, 0.00, -0.00, -1.00, 894.0, 544.0)">v</text></g></g></g></g><g><clipPath id="clip-297"><path d="M 565.5 589.5 L 977.7 589.5 L 977.7 5.5 L 565.5 5.5 Z M 565.5 589.5 "></path></clipPath><g clip-path="url(#clip-297)"><g><clipPath id="clip-298"><path d="M 566.5 483.5 L 706.8 483.5 L 706.8 535.5 L 566.5 535.5 Z M 566.5 483.5 "></path></clipPath><g clip-path="url(#clip-298)"><text xml:space="preserve" font-family="Helvetica-Light" font-size="42.0" fill="#FEFFFE" transform="matrix(1.00, 0.00, -0.00, -1.00, 625.0, 491.0)">1</text></g></g></g></g><g><clipPath id="clip-299"><path d="M 565.5 589.5 L 977.7 589.5 L 977.7 5.5 L 565.5 5.5 Z M 565.5 589.5 "></path></clipPath><g clip-path="url(#clip-299)"><g><clipPath id="clip-300"><path d="M 707.8 483.5 L 834.4 483.5 L 834.4 535.5 L 707.8 535.5 Z M 707.8 483.5 "></path></clipPath><g clip-path="url(#clip-300)"><text xml:space="preserve" font-family="Helvetica-Light" font-size="42.0" fill="#FEFFFE" transform="matrix(1.00, 0.00, -0.00, -1.00, 759.0, 491.0)">1</text></g></g></g></g><g><clipPath id="clip-301"><path d="M 565.5 589.5 L 977.7 589.5 L 977.7 5.5 L 565.5 5.5 Z M 565.5 589.5 "></path></clipPath><g clip-path="url(#clip-301)"><g><clipPath id="clip-302"><path d="M 835.4 483.5 L 976.7 483.5 L 976.7 535.5 L 835.4 535.5 Z M 835.4 483.5 "></path></clipPath><g clip-path="url(#clip-302)"><text xml:space="preserve" font-family="Helvetica-Light" font-size="42.0" fill="#FEFFFE" transform="matrix(1.00, 0.00, -0.00, -1.00, 894.0, 491.0)">1</text></g></g></g></g><g><clipPath id="clip-303"><path d="M 565.5 589.5 L 977.7 589.5 L 977.7 5.5 L 565.5 5.5 Z M 565.5 589.5 "></path></clipPath><g clip-path="url(#clip-303)"><g><clipPath id="clip-304"><path d="M 566.5 430.5 L 706.8 430.5 L 706.8 482.5 L 566.5 482.5 Z M 566.5 430.5 "></path></clipPath><g clip-path="url(#clip-304)"><text xml:space="preserve" font-family="Helvetica-Light" font-size="42.0" fill="#FEFFFE" transform="matrix(1.00, 0.00, -0.00, -1.00, 625.0, 438.0)">1</text></g></g></g></g><g><clipPath id="clip-305"><path d="M 565.5 589.5 L 977.7 589.5 L 977.7 5.5 L 565.5 5.5 Z M 565.5 589.5 "></path></clipPath><g clip-path="url(#clip-305)"><g><clipPath id="clip-306"><path d="M 707.8 430.5 L 834.4 430.5 L 834.4 482.5 L 707.8 482.5 Z M 707.8 430.5 "></path></clipPath><g clip-path="url(#clip-306)"><text xml:space="preserve" font-family="Helvetica-Light" font-size="42.0" fill="#FEFFFE" transform="matrix(1.00, 0.00, -0.00, -1.00, 759.0, 438.0)">3</text></g></g></g></g><g><clipPath id="clip-307"><path d="M 565.5 589.5 L 977.7 589.5 L 977.7 5.5 L 565.5 5.5 Z M 565.5 589.5 "></path></clipPath><g clip-path="url(#clip-307)"><g><clipPath id="clip-308"><path d="M 835.4 430.5 L 976.7 430.5 L 976.7 482.5 L 835.4 482.5 Z M 835.4 430.5 "></path></clipPath><g clip-path="url(#clip-308)"><text xml:space="preserve" font-family="Helvetica-Light" font-size="42.0" fill="#FEFFFE" transform="matrix(1.00, 0.00, -0.00, -1.00, 894.0, 438.0)">1</text></g></g></g></g><g><clipPath id="clip-309"><path d="M 565.5 589.5 L 977.7 589.5 L 977.7 5.5 L 565.5 5.5 Z M 565.5 589.5 "></path></clipPath><g clip-path="url(#clip-309)"><g><clipPath id="clip-310"><path d="M 566.5 377.5 L 706.8 377.5 L 706.8 429.5 L 566.5 429.5 Z M 566.5 377.5 "></path></clipPath><g clip-path="url(#clip-310)"><text xml:space="preserve" font-family="Helvetica-Light" font-size="42.0" fill="#FEFFFE" transform="matrix(1.00, 0.00, -0.00, -1.00, 625.0, 385.0)">2</text></g></g></g></g><g><clipPath id="clip-311"><path d="M 565.5 589.5 L 977.7 589.5 L 977.7 5.5 L 565.5 5.5 Z M 565.5 589.5 "></path></clipPath><g clip-path="url(#clip-311)"><g><clipPath id="clip-312"><path d="M 707.8 377.5 L 834.4 377.5 L 834.4 429.5 L 707.8 429.5 Z M 707.8 377.5 "></path></clipPath><g clip-path="url(#clip-312)"><text xml:space="preserve" font-family="Helvetica-Light" font-size="42.0" fill="#FEFFFE" transform="matrix(1.00, 0.00, -0.00, -1.00, 759.0, 385.0)">2</text></g></g></g></g><g><clipPath id="clip-313"><path d="M 565.5 589.5 L 977.7 589.5 L 977.7 5.5 L 565.5 5.5 Z M 565.5 589.5 "></path></clipPath><g clip-path="url(#clip-313)"><g><clipPath id="clip-314"><path d="M 835.4 377.5 L 976.7 377.5 L 976.7 429.5 L 835.4 429.5 Z M 835.4 377.5 "></path></clipPath><g clip-path="url(#clip-314)"><text xml:space="preserve" font-family="Helvetica-Light" font-size="42.0" fill="#FEFFFE" transform="matrix(1.00, 0.00, -0.00, -1.00, 894.0, 385.0)">1</text></g></g></g></g><g><clipPath id="clip-315"><path d="M 565.5 589.5 L 977.7 589.5 L 977.7 5.5 L 565.5 5.5 Z M 565.5 589.5 "></path></clipPath><g clip-path="url(#clip-315)"><g><clipPath id="clip-316"><path d="M 566.5 324.5 L 706.8 324.5 L 706.8 376.5 L 566.5 376.5 Z M 566.5 324.5 "></path></clipPath><g clip-path="url(#clip-316)"><text xml:space="preserve" font-family="Helvetica-Light" font-size="42.0" fill="#FEFFFE" transform="matrix(1.00, 0.00, -0.00, -1.00, 625.0, 332.0)">3</text></g></g></g></g><g><clipPath id="clip-317"><path d="M 565.5 589.5 L 977.7 589.5 L 977.7 5.5 L 565.5 5.5 Z M 565.5 589.5 "></path></clipPath><g clip-path="url(#clip-317)"><g><clipPath id="clip-318"><path d="M 707.8 324.5 L 834.4 324.5 L 834.4 376.5 L 707.8 376.5 Z M 707.8 324.5 "></path></clipPath><g clip-path="url(#clip-318)"><text xml:space="preserve" font-family="Helvetica-Light" font-size="42.0" fill="#FEFFFE" transform="matrix(1.00, 0.00, -0.00, -1.00, 759.0, 332.0)">3</text></g></g></g></g><g><clipPath id="clip-319"><path d="M 565.5 589.5 L 977.7 589.5 L 977.7 5.5 L 565.5 5.5 Z M 565.5 589.5 "></path></clipPath><g clip-path="url(#clip-319)"><g><clipPath id="clip-320"><path d="M 835.4 324.5 L 976.7 324.5 L 976.7 376.5 L 835.4 376.5 Z M 835.4 324.5 "></path></clipPath><g clip-path="url(#clip-320)"><text xml:space="preserve" font-family="Helvetica-Light" font-size="42.0" fill="#FEFFFE" transform="matrix(1.00, 0.00, -0.00, -1.00, 894.0, 332.0)">2</text></g></g></g></g><g><clipPath id="clip-321"><path d="M 565.5 589.5 L 977.7 589.5 L 977.7 5.5 L 565.5 5.5 Z M 565.5 589.5 "></path></clipPath><g clip-path="url(#clip-321)"><g><clipPath id="clip-322"><path d="M 566.5 271.5 L 706.8 271.5 L 706.8 323.5 L 566.5 323.5 Z M 566.5 271.5 "></path></clipPath><g clip-path="url(#clip-322)"><text xml:space="preserve" font-family="Helvetica-Light" font-size="42.0" fill="#FEFFFE" transform="matrix(1.00, 0.00, -0.00, -1.00, 625.0, 279.0)">4</text></g></g></g></g><g><clipPath id="clip-323"><path d="M 565.5 589.5 L 977.7 589.5 L 977.7 5.5 L 565.5 5.5 Z M 565.5 589.5 "></path></clipPath><g clip-path="url(#clip-323)"><g><clipPath id="clip-324"><path d="M 707.8 271.5 L 834.4 271.5 L 834.4 323.5 L 707.8 323.5 Z M 707.8 271.5 "></path></clipPath><g clip-path="url(#clip-324)"><text xml:space="preserve" font-family="Helvetica-Light" font-size="42.0" fill="#FEFFFE" transform="matrix(1.00, 0.00, -0.00, -1.00, 759.0, 279.0)">2</text></g></g></g></g><g><clipPath id="clip-325"><path d="M 565.5 589.5 L 977.7 589.5 L 977.7 5.5 L 565.5 5.5 Z M 565.5 589.5 "></path></clipPath><g clip-path="url(#clip-325)"><g><clipPath id="clip-326"><path d="M 835.4 271.5 L 976.7 271.5 L 976.7 323.5 L 835.4 323.5 Z M 835.4 271.5 "></path></clipPath><g clip-path="url(#clip-326)"><text xml:space="preserve" font-family="Helvetica-Light" font-size="42.0" fill="#FEFFFE" transform="matrix(1.00, 0.00, -0.00, -1.00, 894.0, 279.0)">2</text></g></g></g></g><g><clipPath id="clip-327"><path d="M 565.5 589.5 L 977.7 589.5 L 977.7 5.5 L 565.5 5.5 Z M 565.5 589.5 "></path></clipPath><g clip-path="url(#clip-327)"><g><clipPath id="clip-328"><path d="M 566.5 218.5 L 706.8 218.5 L 706.8 270.5 L 566.5 270.5 Z M 566.5 218.5 "></path></clipPath><g clip-path="url(#clip-328)"><text xml:space="preserve" font-family="Helvetica-Light" font-size="42.0" fill="#FEFFFE" transform="matrix(1.00, 0.00, -0.00, -1.00, 625.0, 226.0)">4</text></g></g></g></g><g><clipPath id="clip-329"><path d="M 565.5 589.5 L 977.7 589.5 L 977.7 5.5 L 565.5 5.5 Z M 565.5 589.5 "></path></clipPath><g clip-path="url(#clip-329)"><g><clipPath id="clip-330"><path d="M 707.8 218.5 L 834.4 218.5 L 834.4 270.5 L 707.8 270.5 Z M 707.8 218.5 "></path></clipPath><g clip-path="url(#clip-330)"><text xml:space="preserve" font-family="Helvetica-Light" font-size="42.0" fill="#FEFFFE" transform="matrix(1.00, 0.00, -0.00, -1.00, 759.0, 226.0)">5</text></g></g></g></g><g><clipPath id="clip-331"><path d="M 565.5 589.5 L 977.7 589.5 L 977.7 5.5 L 565.5 5.5 Z M 565.5 589.5 "></path></clipPath><g clip-path="url(#clip-331)"><g><clipPath id="clip-332"><path d="M 835.4 218.5 L 976.7 218.5 L 976.7 270.5 L 835.4 270.5 Z M 835.4 218.5 "></path></clipPath><g clip-path="url(#clip-332)"><text xml:space="preserve" font-family="Helvetica-Light" font-size="42.0" fill="#FEFFFE" transform="matrix(1.00, 0.00, -0.00, -1.00, 894.0, 226.0)">1</text></g></g></g></g><g><clipPath id="clip-333"><path d="M 565.5 589.5 L 977.7 589.5 L 977.7 5.5 L 565.5 5.5 Z M 565.5 589.5 "></path></clipPath><g clip-path="url(#clip-333)"><g><clipPath id="clip-334"><path d="M 566.5 165.5 L 706.8 165.5 L 706.8 217.5 L 566.5 217.5 Z M 566.5 165.5 "></path></clipPath><g clip-path="url(#clip-334)"><text xml:space="preserve" font-family="Helvetica-Light" font-size="42.0" fill="#FEFFFE" transform="matrix(1.00, 0.00, -0.00, -1.00, 625.0, 173.0)">5</text></g></g></g></g><g><clipPath id="clip-335"><path d="M 565.5 589.5 L 977.7 589.5 L 977.7 5.5 L 565.5 5.5 Z M 565.5 589.5 "></path></clipPath><g clip-path="url(#clip-335)"><g><clipPath id="clip-336"><path d="M 707.8 165.5 L 834.4 165.5 L 834.4 217.5 L 707.8 217.5 Z M 707.8 165.5 "></path></clipPath><g clip-path="url(#clip-336)"><text xml:space="preserve" font-family="Helvetica-Light" font-size="42.0" fill="#FEFFFE" transform="matrix(1.00, 0.00, -0.00, -1.00, 759.0, 173.0)">1</text></g></g></g></g><g><clipPath id="clip-337"><path d="M 565.5 589.5 L 977.7 589.5 L 977.7 5.5 L 565.5 5.5 Z M 565.5 589.5 "></path></clipPath><g clip-path="url(#clip-337)"><g><clipPath id="clip-338"><path d="M 835.4 165.5 L 976.7 165.5 L 976.7 217.5 L 835.4 217.5 Z M 835.4 165.5 "></path></clipPath><g clip-path="url(#clip-338)"><text xml:space="preserve" font-family="Helvetica-Light" font-size="42.0" fill="#FEFFFE" transform="matrix(1.00, 0.00, -0.00, -1.00, 894.0, 173.0)">1</text></g></g></g></g><g><clipPath id="clip-339"><path d="M 565.5 589.5 L 977.7 589.5 L 977.7 5.5 L 565.5 5.5 Z M 565.5 589.5 "></path></clipPath><g clip-path="url(#clip-339)"><g><clipPath id="clip-340"><path d="M 566.5 112.5 L 706.8 112.5 L 706.8 164.5 L 566.5 164.5 Z M 566.5 112.5 "></path></clipPath><g clip-path="url(#clip-340)"><text xml:space="preserve" font-family="Helvetica-Light" font-size="42.0" fill="#FEFFFE" transform="matrix(1.00, 0.00, -0.00, -1.00, 625.0, 120.0)">5</text></g></g></g></g><g><clipPath id="clip-341"><path d="M 565.5 589.5 L 977.7 589.5 L 977.7 5.5 L 565.5 5.5 Z M 565.5 589.5 "></path></clipPath><g clip-path="url(#clip-341)"><g><clipPath id="clip-342"><path d="M 707.8 112.5 L 834.4 112.5 L 834.4 164.5 L 707.8 164.5 Z M 707.8 112.5 "></path></clipPath><g clip-path="url(#clip-342)"><text xml:space="preserve" font-family="Helvetica-Light" font-size="42.0" fill="#FEFFFE" transform="matrix(1.00, 0.00, -0.00, -1.00, 759.0, 120.0)">3</text></g></g></g></g><g><clipPath id="clip-343"><path d="M 565.5 589.5 L 977.7 589.5 L 977.7 5.5 L 565.5 5.5 Z M 565.5 589.5 "></path></clipPath><g clip-path="url(#clip-343)"><g><clipPath id="clip-344"><path d="M 835.4 112.5 L 976.7 112.5 L 976.7 164.5 L 835.4 164.5 Z M 835.4 112.5 "></path></clipPath><g clip-path="url(#clip-344)"><text xml:space="preserve" font-family="Helvetica-Light" font-size="42.0" fill="#FEFFFE" transform="matrix(1.00, 0.00, -0.00, -1.00, 894.0, 120.0)">1</text></g></g></g></g><g><clipPath id="clip-345"><path d="M 565.5 589.5 L 977.7 589.5 L 977.7 5.5 L 565.5 5.5 Z M 565.5 589.5 "></path></clipPath><g clip-path="url(#clip-345)"><g><clipPath id="clip-346"><path d="M 566.5 59.5 L 706.8 59.5 L 706.8 111.5 L 566.5 111.5 Z M 566.5 59.5 "></path></clipPath><g clip-path="url(#clip-346)"><text xml:space="preserve" font-family="Helvetica-Light" font-size="42.0" fill="#FEFFFE" transform="matrix(1.00, 0.00, -0.00, -1.00, 625.0, 67.0)">5</text></g></g></g></g><g><clipPath id="clip-347"><path d="M 565.5 589.5 L 977.7 589.5 L 977.7 5.5 L 565.5 5.5 Z M 565.5 589.5 "></path></clipPath><g clip-path="url(#clip-347)"><g><clipPath id="clip-348"><path d="M 707.8 59.5 L 834.4 59.5 L 834.4 111.5 L 707.8 111.5 Z M 707.8 59.5 "></path></clipPath><g clip-path="url(#clip-348)"><text xml:space="preserve" font-family="Helvetica-Light" font-size="42.0" fill="#FEFFFE" transform="matrix(1.00, 0.00, -0.00, -1.00, 759.0, 67.0)">5</text></g></g></g></g><g><clipPath id="clip-349"><path d="M 565.5 589.5 L 977.7 589.5 L 977.7 5.5 L 565.5 5.5 Z M 565.5 589.5 "></path></clipPath><g clip-path="url(#clip-349)"><g><clipPath id="clip-350"><path d="M 835.4 59.5 L 976.7 59.5 L 976.7 111.5 L 835.4 111.5 Z M 835.4 59.5 "></path></clipPath><g clip-path="url(#clip-350)"><text xml:space="preserve" font-family="Helvetica-Light" font-size="42.0" fill="#FEFFFE" transform="matrix(1.00, 0.00, -0.00, -1.00, 894.0, 67.0)">3</text></g></g></g></g><g><clipPath id="clip-351"><path d="M 565.5 589.5 L 977.7 589.5 L 977.7 5.5 L 565.5 5.5 Z M 565.5 589.5 "></path></clipPath><g clip-path="url(#clip-351)"><g><clipPath id="clip-352"><path d="M 566.5 6.5 L 706.8 6.5 L 706.8 58.5 L 566.5 58.5 Z M 566.5 6.5 "></path></clipPath><g clip-path="url(#clip-352)"><text xml:space="preserve" font-family="Helvetica-Light" font-size="42.0" fill="#FEFFFE" transform="matrix(1.00, 0.00, -0.00, -1.00, 616.0, 14.0)">…</text></g></g></g></g><g><clipPath id="clip-353"><path d="M 565.5 589.5 L 977.7 589.5 L 977.7 5.5 L 565.5 5.5 Z M 565.5 589.5 "></path></clipPath><g clip-path="url(#clip-353)"><g><clipPath id="clip-354"><path d="M 707.8 6.5 L 834.4 6.5 L 834.4 58.5 L 707.8 58.5 Z M 707.8 6.5 "></path></clipPath><g clip-path="url(#clip-354)"><text xml:space="preserve" font-family="Helvetica-Light" font-size="42.0" fill="#FEFFFE" transform="matrix(1.00, 0.00, -0.00, -1.00, 750.0, 14.0)">…</text></g></g></g></g><g><clipPath id="clip-355"><path d="M 565.5 589.5 L 977.7 589.5 L 977.7 5.5 L 565.5 5.5 Z M 565.5 589.5 "></path></clipPath><g clip-path="url(#clip-355)"><g><clipPath id="clip-356"><path d="M 835.4 6.5 L 976.7 6.5 L 976.7 58.5 L 835.4 58.5 Z M 835.4 6.5 "></path></clipPath><g clip-path="url(#clip-356)"><text xml:space="preserve" font-family="Helvetica-Light" font-size="42.0" fill="#FEFFFE" transform="matrix(1.00, 0.00, -0.00, -1.00, 885.0, 14.0)">…</text></g></g></g></g><g><clipPath id="clip-357"><path d="M 565.5 589.5 L 977.7 589.5 L 977.7 5.5 L 565.5 5.5 Z M 565.5 589.5 "></path></clipPath><g clip-path="url(#clip-357)"><path d="M 143.3 1.5 L 143.3 585.5 " fill="none" stroke="#D6D6D6" stroke-width="1.00" transform="matrix(1.00, 0.00, 0.00, -1.00, 564.0, 591.0)"></path><path d="M 270.9 1.5 L 270.9 585.5 " fill="none" stroke="#D6D6D6" stroke-width="1.00" transform="matrix(1.00, 0.00, 0.00, -1.00, 564.0, 591.0)"></path><path d="M 1.5 55.0 L 413.7 55.0 " fill="none" stroke="#A6AAA8" stroke-width="1.00" transform="matrix(1.00, 0.00, 0.00, -1.00, 564.0, 591.0)"></path><path d="M 1.5 108.0 L 413.7 108.0 " fill="none" stroke="#D6D6D6" stroke-width="1.00" transform="matrix(1.00, 0.00, 0.00, -1.00, 564.0, 591.0)"></path><path d="M 1.5 161.0 L 413.7 161.0 " fill="none" stroke="#D6D6D6" stroke-width="1.00" transform="matrix(1.00, 0.00, 0.00, -1.00, 564.0, 591.0)"></path><path d="M 1.5 214.0 L 413.7 214.0 " fill="none" stroke="#D6D6D6" stroke-width="1.00" transform="matrix(1.00, 0.00, 0.00, -1.00, 564.0, 591.0)"></path><path d="M 1.5 267.0 L 413.7 267.0 " fill="none" stroke="#D6D6D6" stroke-width="1.00" transform="matrix(1.00, 0.00, 0.00, -1.00, 564.0, 591.0)"></path><path d="M 1.5 320.0 L 413.7 320.0 " fill="none" stroke="#D6D6D6" stroke-width="1.00" transform="matrix(1.00, 0.00, 0.00, -1.00, 564.0, 591.0)"></path><path d="M 1.5 373.0 L 413.7 373.0 " fill="none" stroke="#D6D6D6" stroke-width="1.00" transform="matrix(1.00, 0.00, 0.00, -1.00, 564.0, 591.0)"></path><path d="M 1.5 426.0 L 413.7 426.0 " fill="none" stroke="#D6D6D6" stroke-width="1.00" transform="matrix(1.00, 0.00, 0.00, -1.00, 564.0, 591.0)"></path><path d="M 1.5 479.0 L 413.7 479.0 " fill="none" stroke="#D6D6D6" stroke-width="1.00" transform="matrix(1.00, 0.00, 0.00, -1.00, 564.0, 591.0)"></path><path d="M 1.5 532.0 L 413.7 532.0 " fill="none" stroke="#D6D6D6" stroke-width="1.00" transform="matrix(1.00, 0.00, 0.00, -1.00, 564.0, 591.0)"></path><path d="M 2.0 1.5 L 2.0 55.0 " fill="none" stroke="#A6AAA8" stroke-width="1.00" transform="matrix(1.00, 0.00, 0.00, -1.00, 564.0, 591.0)"></path><path d="M 2.0 55.0 L 2.0 585.5 " fill="none" stroke="#D5D5D5" stroke-width="1.00" transform="matrix(1.00, 0.00, 0.00, -1.00, 564.0, 591.0)"></path><path d="M 413.2 1.5 L 413.2 55.0 " fill="none" stroke="#A6AAA8" stroke-width="1.00" transform="matrix(1.00, 0.00, 0.00, -1.00, 564.0, 591.0)"></path><path d="M 413.2 55.0 L 413.2 585.5 " fill="none" stroke="#D5D5D5" stroke-width="1.00" transform="matrix(1.00, 0.00, 0.00, -1.00, 564.0, 591.0)"></path><path d="M 1.5 2.0 L 413.7 2.0 " fill="none" stroke="#A6AAA8" stroke-width="1.00" transform="matrix(1.00, 0.00, 0.00, -1.00, 564.0, 591.0)"></path><path d="M 1.5 585.0 L 413.7 585.0 " fill="none" stroke="#D5D5D5" stroke-width="1.00" transform="matrix(1.00, 0.00, 0.00, -1.00, 564.0, 591.0)"></path></g></g></g></svg>