<?xml version="1.0" encoding="UTF-8" standalone="no"?><svg xmlns="http://www.w3.org/2000/svg" xmlns:xlink="http://www.w3.org/1999/xlink" clip-rule="evenodd" stroke-miterlimit="4.00" viewBox="0 0 1024 768"><desc>SVG generated by Keynote</desc><defs></defs><g transform="matrix(1.00, 0.00, -0.00, -1.00, 0.0, 768.0)"><path d="M 0.0 768.0 L 1024.0 768.0 L 1024.0 0.0 L 0.0 0.0 Z M 0.0 768.0 " fill="#000000"></path><text xml:space="preserve" font-family="Helvetica-Light" font-size="78.4" fill="#FEFFFF" transform="matrix(1.00, 0.00, -0.00, -1.00, 81.0, 634.0)">T</text><text xml:space="preserve" font-family="Helvetica-Light" font-size="78.4" fill="#FEFFFF" transform="matrix(1.00, 0.00, -0.00, -1.00, 115.9, 634.0)">o</text><text xml:space="preserve" font-family="Helvetica-Light" font-size="78.4" fill="#FEFFFF" transform="matrix(1.00, 0.00, -0.00, -1.00, 159.5, 634.0)">p</text><text xml:space="preserve" font-family="Helvetica-Light" font-size="78.4" fill="#FEFFFF" transform="matrix(1.00, 0.00, -0.00, -1.00, 207.4, 634.0)">i</text><text xml:space="preserve" font-family="Helvetica-Light" font-size="78.4" fill="#FEFFFF" transform="matrix(1.00, 0.00, -0.00, -1.00, 224.8, 634.0)">c</text><text xml:space="preserve" font-family="Helvetica-Light" font-size="78.4" fill="#FEFFFF" transform="matrix(1.00, 0.00, -0.00, -1.00, 268.4, 634.0)"> </text><text xml:space="preserve" font-family="Helvetica-Light" font-size="78.4" fill="#FEFFFF" transform="matrix(1.00, 0.00, -0.00, -1.00, 290.2, 634.0)">M</text><text xml:space="preserve" font-family="Helvetica-Light" font-size="78.4" fill="#FEFFFF" transform="matrix(1.00, 0.00, -0.00, -1.00, 355.5, 634.0)">o</text><text xml:space="preserve" font-family="Helvetica-Light" font-size="78.4" fill="#FEFFFF" transform="matrix(1.00, 0.00, -0.00, -1.00, 399.1, 634.0)">d</text><text xml:space="preserve" font-family="Helvetica-Light" font-size="78.4" fill="#FEFFFF" transform="matrix(1.00, 0.00, -0.00, -1.00, 447.0, 634.0)">e</text><text xml:space="preserve" font-family="Helvetica-Light" font-size="78.4" fill="#FEFFFF" transform="matrix(1.00, 0.00, -0.00, -1.00, 490.6, 634.0)">l</text><text xml:space="preserve" font-family="Helvetica-Light" font-size="78.4" fill="#FEFFFF" transform="matrix(1.00, 0.00, -0.00, -1.00, 508.0, 634.0)">i</text><text xml:space="preserve" font-family="Helvetica-Light" font-size="78.4" fill="#FEFFFF" transform="matrix(1.00, 0.00, -0.00, -1.00, 525.4, 634.0)">n</text><text xml:space="preserve" font-family="Helvetica-Light" font-size="78.4" fill="#FEFFFF" transform="matrix(1.00, 0.00, -0.00, -1.00, 569.0, 634.0)">g</text><text xml:space="preserve" font-family="Helvetica-Light" font-size="78.4" fill="#FEFFFF" transform="matrix(1.00, 0.00, -0.00, -1.00, 616.9, 634.0)"> </text><text xml:space="preserve" font-family="Helvetica-Light" font-size="78.4" fill="#FEFFFF" transform="matrix(1.00, 0.00, -0.00, -1.00, 638.7, 634.0)">E</text><text xml:space="preserve" font-family="Helvetica-Light" font-size="78.4" fill="#FEFFFF" transform="matrix(1.00, 0.00, -0.00, -1.00, 686.6, 634.0)">x</text><text xml:space="preserve" font-family="Helvetica-Light" font-size="78.4" fill="#FEFFFF" transform="matrix(1.00, 0.00, -0.00, -1.00, 725.8, 634.0)">a</text><text xml:space="preserve" font-family="Helvetica-Light" font-size="78.4" fill="#FEFFFF" transform="matrix(1.00, 0.00, -0.00, -1.00, 769.4, 634.0)">m</text><text xml:space="preserve" font-family="Helvetica-Light" font-size="78.4" fill="#FEFFFF" transform="matrix(1.00, 0.00, -0.00, -1.00, 834.7, 634.0)">p</text><text xml:space="preserve" font-family="Helvetica-Light" font-size="78.4" fill="#FEFFFF" transform="matrix(1.00, 0.00, -0.00, -1.00, 882.6, 634.0)">l</text><text xml:space="preserve" font-family="Helvetica-Light" font-size="78.4" fill="#FEFFFF" transform="matrix(1.00, 0.00, -0.00, -1.00, 900.0, 634.0)">e</text><text xml:space="preserve" font-family="Helvetica-Light" font-size="42.0" fill="#FEFFFF" transform="matrix(1.00, 0.00, -0.00, -1.00, 305.0, 369.0)">(</text><text xml:space="preserve" font-family="Helvetica-Light" font-size="42.0" fill="#FEFFFF" transform="matrix(1.00, 0.00, -0.00, -1.00, 319.0, 369.0)">T</text><text xml:space="preserve" font-family="Helvetica-Light" font-size="42.0" fill="#FEFFFF" transform="matrix(1.00, 0.00, -0.00, -1.00, 337.7, 369.0)">o</text><text xml:space="preserve" font-family="Helvetica-Light" font-size="42.0" fill="#FEFFFF" transform="matrix(1.00, 0.00, -0.00, -1.00, 361.0, 369.0)">m</text><text xml:space="preserve" font-family="Helvetica-Light" font-size="42.0" fill="#FEFFFF" transform="matrix(1.00, 0.00, -0.00, -1.00, 396.0, 369.0)">m</text><text xml:space="preserve" font-family="Helvetica-Light" font-size="42.0" fill="#FEFFFF" transform="matrix(1.00, 0.00, -0.00, -1.00, 431.0, 369.0)">y</text><text xml:space="preserve" font-family="Helvetica-Light" font-size="42.0" fill="#FEFFFF" transform="matrix(1.00, 0.00, -0.00, -1.00, 448.1, 369.0)">,</text><text xml:space="preserve" font-family="Helvetica-Light" font-size="42.0" fill="#FEFFFF" transform="matrix(1.00, 0.00, -0.00, -1.00, 459.8, 369.0)"> </text><text xml:space="preserve" font-family="Helvetica-Light" font-size="42.0" fill="#FEFFFF" transform="matrix(1.00, 0.00, -0.00, -1.00, 471.5, 369.0)">g</text><text xml:space="preserve" font-family="Helvetica-Light" font-size="42.0" fill="#FEFFFF" transform="matrix(1.00, 0.00, -0.00, -1.00, 497.1, 369.0)">o</text><text xml:space="preserve" font-family="Helvetica-Light" font-size="42.0" fill="#FEFFFF" transform="matrix(1.00, 0.00, -0.00, -1.00, 520.5, 369.0)"> </text><text xml:space="preserve" font-family="Helvetica-Light" font-size="42.0" fill="#FEFFFF" transform="matrix(1.00, 0.00, -0.00, -1.00, 532.2, 369.0)">t</text><text xml:space="preserve" font-family="Helvetica-Light" font-size="42.0" fill="#FEFFFF" transform="matrix(1.00, 0.00, -0.00, -1.00, 543.9, 369.0)">o</text><text xml:space="preserve" font-family="Helvetica-Light" font-size="42.0" fill="#FEFFFF" transform="matrix(1.00, 0.00, -0.00, -1.00, 567.2, 369.0)"> </text><text xml:space="preserve" font-family="Helvetica-Light" font-size="42.0" fill="#FEFFFF" transform="matrix(1.00, 0.00, -0.00, -1.00, 578.9, 369.0)">R</text><text xml:space="preserve" font-family="Helvetica-Light" font-size="42.0" fill="#FEFFFF" transform="matrix(1.00, 0.00, -0.00, -1.00, 606.9, 369.0)"> </text><text xml:space="preserve" font-family="Helvetica-Light" font-size="42.0" fill="#FEFFFF" transform="matrix(1.00, 0.00, -0.00, -1.00, 618.6, 369.0)">n</text><text xml:space="preserve" font-family="Helvetica-Light" font-size="42.0" fill="#FEFFFF" transform="matrix(1.00, 0.00, -0.00, -1.00, 641.9, 369.0)">o</text><text xml:space="preserve" font-family="Helvetica-Light" font-size="42.0" fill="#FEFFFF" transform="matrix(1.00, 0.00, -0.00, -1.00, 665.3, 369.0)">w</text><text xml:space="preserve" font-family="Helvetica-Light" font-size="42.0" fill="#FEFFFF" transform="matrix(1.00, 0.00, -0.00, -1.00, 693.3, 369.0)">.</text><text xml:space="preserve" font-family="Helvetica-Light" font-size="42.0" fill="#FEFFFF" transform="matrix(1.00, 0.00, -0.00, -1.00, 705.0, 369.0)">)</text></g></svg>